<svg xmlns="http://www.w3.org/2000/svg" width="651" height="589" viewBox="0 0 651 589" fill="none">
  <path style="mix-blend-mode:multiply" d="M651.001 -0.00272344V3.73544C648.675 2.35203 646.335 1.11578 644.054 -0.00272344H651.001ZM3.26801 352.091C2.07593 349.957 0.986816 347.853 0.000793457 345.778V337.698C4.13635 327.381 5.65216 319.419 5.69635 319.198L6.28503 315.931L8.43378 318.462C8.58093 318.639 13.8938 324.806 22.6505 331.664C21.0905 320.641 18.3973 312.958 18.3237 312.737L17.2052 309.617L20.3252 310.736C20.5312 310.81 28.2136 313.503 39.2515 315.063C32.3786 306.291 26.2121 300.978 26.0355 300.846L23.5042 298.697L26.7714 298.109C26.9921 298.064 34.9836 296.549 45.315 292.398H45.2709C34.9541 288.263 26.9921 286.747 26.7714 286.703L23.5042 286.114L26.0355 283.965C26.2121 283.818 32.3786 278.505 39.2515 269.749C28.2283 271.309 20.546 274.002 20.3252 274.075L17.2052 275.194L18.3237 272.074C18.3973 271.868 21.0905 264.185 22.6505 253.148C13.8791 260.021 8.56622 266.187 8.43378 266.364L6.28503 268.895L5.69635 265.628C5.65216 265.407 4.15106 257.445 0.000793457 247.128V239.049C0.986816 236.973 2.06122 234.869 3.26801 232.735C7.93335 224.434 13.3934 217.503 19.5452 212.013C16.0425 202.373 9.97906 193.234 0.0155029 186.096V182.284L0.103821 182.343C2.9884 180.607 12.9519 173.557 12.9519 159.046V157.486H14.5119C29.1702 157.486 36.0726 147.581 37.7945 144.667L37.7062 144.549L37.7651 144.461C36.0137 141.547 28.9642 131.643 14.4825 131.643H12.9225V130.082C12.9225 115.38 2.94421 108.463 0.0743408 106.785L0.000793457 106.829V103.018C9.97906 95.865 16.0278 86.7256 19.5305 77.1006C13.3787 71.6111 7.91864 64.694 3.2533 56.3788C2.06116 54.2448 0.972107 52.1403 -0.013916 50.0651V41.9854C4.12158 31.6687 5.63745 23.7067 5.68158 23.4859L6.27032 20.2187L8.41901 22.75C8.56622 22.9267 13.8791 29.0932 22.6358 35.9514C21.0758 24.9282 18.3826 17.2458 18.309 17.0251L17.1904 13.905L20.3105 15.0235C20.5165 15.0971 28.1989 17.7904 39.2368 19.3504C32.3639 10.5789 26.1974 5.26603 26.0208 5.13357L23.4894 2.98487L26.7567 2.39618C26.9038 2.36674 30.5537 1.67504 36.0726 -0.0321578H45.6976C39.1485 2.52863 33.5854 4.05922 30.3476 4.82451C33.2175 7.53248 38.3685 12.7718 43.6814 19.8949C53.6302 20.9104 65.5659 20.7927 77.0599 17.3341C69.8191 9.62232 60.9594 3.98563 52.703 -0.0321578H59.6495C67.95 4.63319 74.8818 10.0933 80.3713 16.2303C88.9073 13.125 97.0459 8.01814 103.757 -0.0321578H107.701C101.167 8.51853 92.7043 14.8469 82.5347 18.8058C89.3046 27.2241 93.4844 36.8491 94.8972 47.4013L129.733 12.551C117.812 11.3001 111.16 3.98563 108.378 -0.0174406H112.293C115.634 4.00035 122.271 9.62232 133.309 9.62232H134.869V11.1823C134.869 25.8407 144.803 32.7724 147.717 34.4796L147.805 34.4208L147.894 34.4796C150.778 32.743 160.742 25.7082 160.742 11.1823V9.62232H162.302C173.34 9.62232 179.977 4.00035 183.318 -0.0174406H187.233C184.451 3.98563 177.799 11.3001 165.878 12.551L200.714 47.3719C202.141 36.8344 206.321 27.2388 213.061 18.8206C202.907 14.8764 194.444 8.51853 187.91 -0.0174406H191.854C198.565 8.03286 206.718 13.1544 215.24 16.245C220.729 10.0933 227.646 4.63319 235.961 -0.0174406H242.908C234.652 4.01507 225.807 9.63703 218.551 17.3488C230.03 20.8074 241.966 20.9251 251.915 19.9096C257.228 12.7718 262.379 7.54719 265.249 4.83923C262.011 4.07394 256.462 2.54335 249.899 -0.0174406H259.524C265.028 1.68975 268.678 2.38146 268.84 2.41089L272.107 2.99958L269.575 5.14829C269.399 5.29546 263.232 10.6084 256.359 19.3651C267.383 17.8051 275.065 15.1118 275.286 15.0382L278.406 13.9197L277.287 17.0398C277.214 17.2458 274.52 24.9282 272.96 35.9661C281.732 29.0932 287.045 22.9267 287.177 22.75L289.326 20.2187L289.915 23.4859C289.959 23.7067 291.475 31.6981 295.625 42.0296V41.9707C299.76 31.6539 301.276 23.6919 301.32 23.4712L301.909 20.204L304.058 22.7353C304.205 22.9119 309.518 29.0784 318.275 35.9366C316.715 24.9135 314.021 17.2311 313.948 17.0103L312.829 13.8903L315.949 15.0088C316.155 15.0824 323.838 17.7756 334.876 19.3357C328.003 10.5642 321.836 5.25131 321.66 5.11886L319.128 2.97015L322.395 2.38146C322.543 2.35203 326.207 1.66032 331.711 -0.046875H341.336C334.787 2.51392 329.224 4.0445 325.986 4.8098C328.856 7.51776 334.007 12.7571 339.32 19.8802C349.269 20.8957 361.205 20.7779 372.699 17.3194C365.458 9.6076 356.598 3.97092 348.342 -0.046875H355.288C363.589 4.61847 370.521 10.0785 376.01 16.2156C384.546 13.1103 392.685 8.00343 399.396 -0.046875H403.34C396.806 8.50381 388.343 14.8322 378.174 18.7911C384.943 27.2094 389.123 36.8344 390.536 47.3866L425.372 12.5363C413.451 11.2854 406.799 3.97092 404.017 -0.0321578H407.932C411.273 3.98563 417.91 9.6076 428.948 9.6076H430.508V11.1676C430.508 25.8259 440.442 32.7577 443.356 34.4649L443.444 34.4061L443.533 34.4649C446.417 32.7283 456.381 25.6935 456.381 11.1676V9.6076H457.941C468.979 9.6076 475.616 3.98563 478.957 -0.0321578H482.872C480.09 3.97092 473.438 11.2854 461.517 12.5363L496.353 47.3572C497.78 36.8197 501.96 27.2241 508.715 18.8058C498.56 14.8616 490.098 8.50381 483.563 -0.0321578H487.508C494.219 8.01814 502.372 13.1397 510.893 16.2303C516.383 10.0785 523.3 4.61847 531.615 -0.0321578H538.561C530.305 4.00035 521.46 9.62232 514.205 17.3341C525.684 20.7927 537.62 20.9104 547.568 19.8949C552.881 12.7571 558.032 7.53248 560.902 4.82451C557.664 4.05922 552.116 2.52863 545.552 -0.0321578H555.177C560.681 1.67504 564.331 2.36674 564.493 2.39618L567.76 2.98487L565.229 5.13357C565.052 5.28075 558.886 10.5936 552.013 19.3504C563.036 17.7904 570.719 15.0971 570.939 15.0235L574.059 13.905L572.941 17.0251C572.867 17.2311 570.174 24.9135 568.614 35.9514C577.385 29.0784 582.698 22.9119 582.831 22.7353L584.979 20.204L585.568 23.4712C585.612 23.6919 587.113 31.6245 591.234 41.9118C595.355 31.6245 596.871 23.6919 596.9 23.4712L597.489 20.204L599.638 22.7353C599.785 22.9119 605.098 29.0784 613.855 35.9366C612.295 24.9135 609.601 17.2311 609.528 17.0103L608.409 13.8903L611.529 15.0088C611.735 15.0824 619.418 17.7756 630.456 19.3357C623.583 10.5642 617.416 5.25131 617.24 5.11886L614.708 2.97015L617.975 2.38146C618.123 2.35203 621.772 1.66032 627.291 -0.046875H636.916C630.367 2.51392 624.804 4.0445 621.566 4.8098C624.436 7.51776 629.587 12.7571 634.9 19.8802C639.83 20.3806 645.261 20.6161 650.868 20.2923V23.5153C649.176 23.6036 647.454 23.6772 645.703 23.6772C645.305 23.6772 644.908 23.6772 644.525 23.6772C642.067 23.6478 639.683 23.5301 637.387 23.3387C638.697 25.2372 639.992 27.2388 641.243 29.3581C646.085 37.3348 649.279 45.2821 651.001 53.1116V79.264C650.353 82.0309 649.529 84.7535 648.469 87.4321C649.308 87.0936 650.162 86.8139 651.001 86.5196V89.8163C649.706 90.2872 648.396 90.817 647.101 91.4057C647.66 97.116 649.029 102.296 651.001 107.006V114.1C647.513 107.845 645.217 101.075 644.246 93.8635L609.41 128.714C621.772 130.024 628.483 137.853 631.088 141.738C636.431 134.601 643.142 129.008 651.001 124.99V128.508C644.29 132.143 638.035 137.323 632.854 144.564C638.05 151.805 644.29 156.985 651.001 160.621V164.138C643.142 160.135 636.445 154.542 631.103 147.419C628.513 151.29 621.817 159.134 609.439 160.444L644.26 195.25C645.232 188.053 647.528 181.298 651.015 175.058V182.152C649.043 186.861 647.675 192.042 647.115 197.752C648.425 198.341 649.72 198.871 651.015 199.342V202.638C650.162 202.344 649.323 202.064 648.484 201.726C649.544 204.404 650.383 207.142 651.015 209.894V236.046C649.294 243.876 646.1 251.823 641.376 259.756C640.125 261.875 638.83 263.876 637.52 265.775C639.816 265.598 642.2 265.466 644.658 265.436C646.821 265.407 648.926 265.466 651.015 265.584V268.821C645.408 268.498 639.978 268.718 635.047 269.233C629.734 276.371 624.583 281.596 621.714 284.304C625.555 285.216 632.634 287.174 640.802 290.691C644.113 289.205 647.557 287.453 651.015 285.422V289.161C648.881 290.353 646.777 291.442 644.702 292.428H644.658C646.748 293.414 648.867 294.503 651.015 295.71V299.448C647.557 297.417 644.098 295.666 640.802 294.179C632.634 297.697 625.555 299.654 621.714 300.566C624.583 303.274 629.734 308.514 635.047 315.637C639.978 316.137 645.408 316.373 651.015 316.049V319.272C649.323 319.36 647.601 319.434 645.85 319.434C645.452 319.434 645.055 319.434 644.672 319.434C642.215 319.404 639.83 319.287 637.535 319.095C638.844 320.994 640.139 322.995 641.39 325.115C646.1 333.062 649.308 341.009 651.03 348.824V374.976C650.383 377.743 649.558 380.466 648.499 383.144C649.338 382.806 650.191 382.526 651.03 382.232V385.529C649.735 386 648.425 386.529 647.13 387.118C647.689 392.828 649.058 398.009 651.03 402.718V409.812C647.542 403.557 645.246 396.787 644.275 389.576L609.439 424.426C621.802 425.736 628.513 433.566 631.118 437.451C636.46 430.313 643.171 424.721 651.03 420.703V424.22C644.319 427.855 638.064 433.036 632.884 440.277C638.079 447.517 644.319 452.698 651.03 456.333V459.85C643.171 455.847 636.475 450.255 631.133 443.132C628.542 447.002 621.846 454.847 609.469 456.156L644.29 490.963C645.261 483.766 647.557 477.011 651.045 470.771V477.864C649.073 482.574 647.704 487.754 647.145 493.464C648.455 494.053 649.75 494.583 651.045 495.054V498.351C650.191 498.056 649.352 497.777 648.514 497.438C649.573 500.117 650.412 502.854 651.045 505.606V531.759C649.323 539.588 646.129 547.535 641.405 555.468C640.154 557.587 638.859 559.589 637.549 561.487C639.845 561.311 642.229 561.178 644.687 561.149C646.851 561.119 648.955 561.178 651.045 561.296V564.534C645.438 564.21 640.007 564.431 635.077 564.946C629.764 572.084 624.613 577.308 621.743 580.016C625.584 580.929 632.663 582.886 640.831 586.404C644.143 584.917 647.586 583.166 651.045 581.135V584.873C648.911 586.065 646.806 587.154 644.731 588.14H636.652C626.335 584.005 618.373 582.489 618.152 582.445L614.885 581.856L617.416 579.707C617.593 579.56 623.759 574.247 630.632 565.49C619.609 567.05 611.927 569.744 611.706 569.817L608.586 570.936L609.704 567.816C609.778 567.61 612.471 559.927 614.031 548.889C605.26 555.762 599.947 561.929 599.814 562.105L597.666 564.637L597.077 561.37C597.033 561.149 595.532 553.216 591.411 542.929C587.29 553.216 585.774 561.149 585.745 561.37L585.156 564.637L583.007 562.105C582.86 561.929 577.547 555.762 568.791 548.889C570.351 559.913 573.044 567.595 573.117 567.816L574.236 570.936L571.116 569.817C570.91 569.744 563.227 567.05 552.19 565.49C559.063 574.262 565.229 579.575 565.406 579.707L567.937 581.856L564.67 582.445C564.449 582.489 556.472 583.99 546.141 588.14H538.091C536.015 587.154 533.911 586.065 531.777 584.873C523.476 580.208 516.545 574.747 511.055 568.61C501.415 572.113 492.276 578.162 485.138 588.14H481.326L481.37 588.067C479.619 585.153 472.57 575.248 458.088 575.248H456.528V573.688C456.528 558.985 446.55 552.068 443.68 550.391L443.591 550.449L443.518 550.405C440.604 552.112 430.655 559.015 430.655 573.688V575.248H429.095C414.422 575.248 407.52 585.197 405.812 588.111L405.842 588.155H402.03C394.878 578.177 385.753 572.128 376.113 568.625C370.624 574.777 363.707 580.237 355.391 584.888C353.257 586.08 351.153 587.169 349.078 588.155H340.998C330.681 584.019 322.719 582.503 322.498 582.459L319.231 581.871L321.763 579.722C321.939 579.575 328.106 574.262 334.979 565.505C323.955 567.065 316.273 569.758 316.052 569.832L312.932 570.951L314.051 567.83C314.124 567.624 316.818 559.942 318.378 548.904C309.606 555.777 304.293 561.944 304.146 562.12L301.997 564.652L301.409 561.384C301.365 561.164 299.863 553.202 295.713 542.885V542.826C291.563 553.157 290.047 561.149 290.003 561.37L289.414 564.637L287.266 562.105C287.118 561.929 281.805 555.762 273.049 548.889C274.609 559.913 277.302 567.595 277.376 567.816L278.494 570.936L275.374 569.817C275.168 569.744 267.486 567.05 256.448 565.49C263.321 574.262 269.487 579.575 269.664 579.707L272.195 581.856L268.928 582.445C268.707 582.489 260.73 583.99 250.414 588.14H242.363C240.288 587.154 238.184 586.065 236.05 584.873C227.749 580.208 220.817 574.747 215.328 568.61C205.688 572.113 196.549 578.162 189.411 588.14H185.599L185.643 588.067C183.892 585.153 176.842 575.248 162.361 575.248H160.801V573.688C160.801 558.985 150.823 552.068 147.953 550.391L147.864 550.449L147.791 550.405C144.877 552.112 134.928 559.015 134.928 573.688V575.248H133.368C118.695 575.248 111.793 585.197 110.085 588.111L110.115 588.155H106.303C99.1505 578.177 90.0111 572.128 80.386 568.625C74.8965 574.777 67.9795 580.237 59.6643 584.888C57.5303 586.08 55.4257 587.169 53.3506 588.155H45.2709C34.9541 584.019 26.9921 582.503 26.7714 582.459L23.5042 581.871L26.0355 579.722C26.2121 579.575 32.3786 574.262 39.2515 565.505C28.2283 567.065 20.546 569.758 20.3252 569.832L17.2052 570.951L18.3237 567.83C18.3973 567.624 21.0905 559.942 22.6505 548.904C13.8791 555.777 8.56622 561.944 8.41901 562.12L6.27032 564.652L5.68158 561.384C5.63745 561.164 4.13629 553.202 -0.013916 542.885V534.805C0.972107 532.73 2.04645 530.625 3.2533 528.491C7.91864 520.191 13.3787 513.259 19.5305 507.77C16.0278 498.13 9.96436 488.99 0.000793457 481.853V478.041L0.0891113 478.1C2.97363 476.363 12.9372 469.314 12.9372 454.802V453.242H14.4973C29.1555 453.242 36.0579 443.338 37.7798 440.424L37.6915 440.306L37.7504 440.218C35.999 437.304 28.9495 427.399 14.4678 427.399H12.9078V425.839C12.9078 411.137 2.9295 404.219 0.0596924 402.542L-0.013916 402.586V398.774C9.96429 391.622 16.0131 382.482 19.5158 372.857C13.364 367.368 7.90387 360.451 3.23853 352.135L3.26801 352.091ZM22.2238 314.651C23.357 318.433 25.1966 325.541 26.2415 334.372C34.3507 340.229 44.741 346.101 56.4265 348.839C53.6891 337.168 47.817 326.763 41.9595 318.654C33.1292 317.624 26.0208 315.769 22.2385 314.636L22.2238 314.651ZM26.6536 541.958C28.5521 540.648 30.5536 539.353 32.6729 538.102C40.8704 533.245 49.0532 529.978 57.1182 528.3C58.899 518.204 58.222 507.255 53.1592 496.069C40.9293 497.262 31.1129 502.162 23.2539 508.756C25.8294 516.57 27.1099 525.298 26.9921 534.82C26.9626 537.278 26.8449 539.662 26.6536 541.958ZM60.4443 527.682C70.8788 526.078 81.063 527.167 90.7028 530.993C86.8763 521.339 85.7873 511.169 87.3914 500.735C76.957 502.339 66.7727 501.25 57.1329 497.423C60.9594 507.078 62.0485 517.247 60.4443 527.682ZM238.566 497.423C228.927 501.25 218.742 502.339 208.308 500.735C209.912 511.169 208.823 521.354 204.996 530.993C214.651 527.167 224.821 526.078 235.255 527.682C233.651 517.247 234.74 507.063 238.566 497.423ZM272.445 508.741C264.586 502.133 254.77 497.247 242.54 496.055C237.463 507.24 236.786 518.189 238.581 528.285C246.646 529.963 254.844 533.23 263.026 538.087C265.146 539.338 267.147 540.633 269.046 541.943C268.869 539.647 268.737 537.263 268.707 534.805C268.589 525.283 269.87 516.556 272.445 508.741ZM322.351 541.958C324.25 540.648 326.251 539.353 328.371 538.102C336.568 533.245 344.751 529.978 352.816 528.3C354.597 518.204 353.92 507.255 348.857 496.069C336.627 497.262 326.811 502.162 318.952 508.756C321.527 516.57 322.808 525.298 322.69 534.82C322.66 537.278 322.543 539.662 322.351 541.958ZM356.142 527.682C366.576 526.078 376.761 527.167 386.401 530.993C382.574 521.339 381.485 511.169 383.089 500.735C372.655 502.339 362.47 501.25 352.831 497.423C356.657 507.078 357.746 517.247 356.142 527.682ZM534.264 497.423C524.61 501.25 514.44 502.339 504.006 500.735C505.61 511.169 504.521 521.354 500.694 530.993C510.349 527.167 520.518 526.078 530.953 527.682C529.349 517.247 530.438 507.063 534.264 497.423ZM568.158 508.741C560.299 502.133 550.482 497.247 538.252 496.055C533.175 507.24 532.498 518.189 534.293 528.285C542.359 529.963 550.556 533.23 558.739 538.087C560.858 539.338 562.86 540.633 564.758 541.943C564.581 539.647 564.449 537.263 564.42 534.805C564.302 525.283 565.582 516.556 568.158 508.741ZM594.605 352.091C593.412 349.972 592.353 347.882 591.367 345.822C590.381 347.882 589.306 349.972 588.129 352.091C583.464 360.392 578.004 367.324 571.852 372.813C575.354 382.438 581.403 391.577 591.367 398.715C601.33 391.577 607.379 382.438 610.882 372.813C604.73 367.324 599.27 360.406 594.605 352.091ZM611.971 369.502C615.429 358.022 615.547 346.087 614.532 336.138C607.394 330.825 602.169 325.674 599.461 322.804C598.549 326.645 596.591 333.724 593.074 341.892C597.165 351.017 603.229 361.304 611.971 369.516V369.502ZM594.605 232.764C599.27 224.464 604.73 217.532 610.882 212.042C607.379 202.417 601.33 193.278 591.367 186.14C581.403 193.278 575.354 202.417 571.852 212.042C578.004 217.532 583.464 224.449 588.114 232.764C589.306 234.884 590.366 236.973 591.352 239.034C592.338 236.973 593.412 234.884 594.59 232.764H594.605ZM593.074 242.978C596.591 251.146 598.549 258.225 599.461 262.066C602.169 259.196 607.408 254.031 614.532 248.732C615.547 238.784 615.429 226.848 611.971 215.369C603.229 223.581 597.151 233.868 593.074 242.993V242.978ZM564.743 42.8979C562.845 44.2077 560.843 45.5028 558.724 46.7538C550.527 51.6104 542.344 54.8777 534.279 56.5554C532.498 66.6514 533.175 77.601 538.238 88.7861C550.468 87.594 560.284 82.6931 568.143 76.0998C565.568 68.285 564.287 59.5577 564.405 50.0357C564.434 47.5779 564.552 45.1938 564.743 42.8979ZM530.953 57.1735C520.518 58.7777 510.334 57.6886 500.694 53.8622C504.521 63.5166 505.61 73.6862 504.006 84.1207C514.44 82.5165 524.624 83.6056 534.264 87.4321C530.438 77.7776 529.349 67.608 530.953 57.1735ZM352.831 87.4321C362.485 83.6056 372.669 82.5165 383.089 84.1207C381.485 73.6862 382.574 63.5019 386.401 53.8622C376.761 57.6886 366.576 58.7777 356.142 57.1735C357.746 67.608 356.657 77.7923 352.831 87.4321ZM318.952 76.1146C326.811 82.7226 336.627 87.6087 348.857 88.8008C353.934 77.6157 354.611 66.6661 352.816 56.5701C344.751 54.8924 336.553 51.6252 328.371 46.7685C326.251 45.5175 324.25 44.2224 322.351 42.9126C322.528 45.2085 322.66 47.5927 322.69 50.0504C322.808 59.5724 321.527 68.2997 318.952 76.1146ZM295.61 106.785C292.696 108.492 282.762 115.395 282.762 130.068V131.628H281.202C266.544 131.628 259.627 141.562 257.919 144.476L257.978 144.564L257.919 144.652C259.627 147.566 266.544 157.471 281.202 157.471H282.762V159.031C282.762 173.689 292.696 180.621 295.61 182.328L295.698 182.27L295.787 182.343C298.671 180.607 308.635 173.557 308.635 159.046V157.486H310.195C324.853 157.486 331.756 147.581 333.478 144.667L333.389 144.549L333.448 144.461C331.697 141.547 324.647 131.643 310.165 131.643H308.605V130.082C308.605 115.38 298.627 108.463 295.757 106.785L295.684 106.829L295.595 106.785H295.61ZM269.046 42.8979C267.147 44.2077 265.146 45.5028 263.026 46.7538C254.829 51.6104 246.646 54.8777 238.581 56.5554C236.8 66.6514 237.477 77.601 242.54 88.7861C254.77 87.594 264.586 82.6931 272.445 76.0998C269.87 68.285 268.589 59.5577 268.707 50.0357C268.737 47.5779 268.854 45.1938 269.046 42.8979ZM235.255 57.1735C224.821 58.7777 214.636 57.6886 204.996 53.8622C208.823 63.5166 209.912 73.6862 208.308 84.1207C218.742 82.5165 228.927 83.6056 238.566 87.4321C234.74 77.7776 233.651 67.608 235.255 57.1735ZM57.1329 87.4321C66.7874 83.6056 76.957 82.5165 87.3914 84.1207C85.7873 73.6862 86.8763 63.5019 90.7028 53.8622C81.063 57.6886 70.8788 58.7777 60.4443 57.1735C62.0485 67.608 60.9594 77.7923 57.1329 87.4321ZM23.2393 76.1146C31.0982 82.7226 40.9146 87.6087 53.1445 88.8008C58.222 77.6157 58.8989 66.6661 57.1035 56.5701C49.0385 54.8924 40.841 51.6252 32.6582 46.7685C30.5389 45.5175 28.5374 44.2224 26.6389 42.9126C26.8155 45.2085 26.9479 47.5927 26.9774 50.0504C27.0951 59.5724 25.8148 68.2997 23.2393 76.1146ZM55.7642 91.4057C56.9563 103.621 61.8424 113.452 68.4504 121.296C75.9415 118.824 84.2861 117.558 93.3519 117.558C93.7493 117.558 94.1467 117.558 94.5293 117.558C96.9871 117.588 99.3712 117.705 101.667 117.897C100.357 115.998 99.0621 113.997 97.8112 111.877C92.9545 103.68 89.6873 95.4971 88.0095 87.4321C77.9136 85.6513 66.9492 86.3283 55.7642 91.391V91.4057ZM26.6536 246.26C28.5521 244.95 30.5536 243.655 32.6729 242.404C40.8704 237.547 49.0532 234.28 57.1182 232.602C58.899 222.506 58.222 211.557 53.1592 200.372C40.9293 201.564 31.1129 206.465 23.2539 213.058C25.8294 220.873 27.1099 229.6 26.9921 239.122C26.9626 241.58 26.8449 243.964 26.6536 246.26ZM90.7028 349.56C81.063 353.386 70.8788 354.475 60.4443 352.871C62.0485 363.306 60.9594 373.49 57.1329 383.13C66.7874 379.303 76.957 378.214 87.3914 379.818C85.7873 369.384 86.8763 359.2 90.7028 349.56ZM117.473 448.415C113.632 447.503 106.553 445.545 98.3852 442.028C89.2606 446.119 78.9732 452.183 70.761 460.925C82.2404 464.383 94.1908 464.501 104.14 463.486C109.453 456.348 114.604 451.123 117.473 448.415ZM91.424 496.702C103.095 493.965 113.5 488.093 121.609 482.235C122.639 473.405 124.493 466.297 125.627 462.514C121.844 463.647 114.736 465.502 105.906 466.532C100.048 474.641 94.1761 485.032 91.4387 496.717L91.424 496.702ZM117.473 432.138C114.604 429.43 109.453 424.191 104.14 417.068C94.1908 416.052 82.2551 416.17 70.761 419.628C78.9732 428.37 89.2606 434.449 98.3852 438.525C106.553 435.008 113.632 433.05 117.473 432.138ZM105.891 414.021C114.721 415.051 121.83 416.906 125.612 418.039C124.479 414.257 122.639 407.148 121.594 398.318C113.485 392.46 103.095 386.588 91.4092 383.851C94.1466 395.522 100.019 405.927 105.876 414.036L105.891 414.021ZM315.243 372.813C309.091 367.324 303.631 360.406 298.966 352.091C297.774 349.957 296.685 347.853 295.698 345.778V345.733C294.712 347.823 293.623 349.943 292.417 352.091C287.751 360.392 282.291 367.324 276.139 372.813C279.642 382.453 285.706 391.592 295.698 398.745C305.677 391.577 311.725 382.438 315.228 372.813H315.243ZM564.743 338.596C562.845 339.905 560.843 341.201 558.724 342.451C550.527 347.308 542.344 350.575 534.279 352.253C532.498 362.349 533.175 373.313 538.238 384.498C550.468 383.306 560.284 378.406 568.143 371.812C565.568 363.997 564.287 355.27 564.405 345.748C564.434 343.29 564.552 340.906 564.743 338.61V338.596ZM568.158 213.043C560.299 206.435 550.482 201.549 538.252 200.357C533.175 211.542 532.498 222.492 534.293 232.588C542.359 234.265 550.556 237.533 558.739 242.389C560.858 243.64 562.86 244.935 564.758 246.245C564.581 243.949 564.449 241.565 564.42 239.107C564.302 229.585 565.582 220.858 568.158 213.043ZM70.761 165.227C82.2404 168.686 94.1908 168.803 104.14 167.788C109.453 160.65 114.604 155.425 117.473 152.717C113.632 151.805 106.553 149.848 98.3852 146.33C89.2606 150.422 78.9732 156.485 70.761 165.227ZM117.473 136.44C114.604 133.732 109.453 128.493 104.14 121.37C94.1908 120.354 82.2551 120.472 70.761 123.931C78.9732 132.673 89.2606 138.751 98.3852 142.828C106.553 139.31 113.632 137.353 117.473 136.44ZM91.424 201.005C103.095 198.267 113.5 192.395 121.609 186.538C122.639 177.707 124.493 170.599 125.627 166.817C121.844 167.95 114.736 169.804 105.906 170.834C100.048 178.944 94.1761 189.334 91.4387 201.019L91.424 201.005ZM87.3914 205.022C76.957 206.627 66.7727 205.537 57.1329 201.711C60.9594 211.365 62.0485 221.535 60.4443 231.97C70.8788 230.365 81.063 231.454 90.7028 235.281C86.8763 225.626 85.7873 215.457 87.3914 205.022ZM94.6765 236.664C106.906 235.472 116.723 230.571 124.582 223.978C122.006 216.163 120.726 207.436 120.844 197.914C120.873 195.456 120.991 193.072 121.182 190.776C119.284 192.086 117.282 193.381 115.163 194.632C106.965 199.489 98.7825 202.756 90.7175 204.434C88.9367 214.53 89.6137 225.494 94.6765 236.679V236.664ZM174.502 394.094C176.401 392.784 178.417 391.489 180.522 390.238C188.719 385.382 196.902 382.114 204.967 380.437C206.748 370.341 206.071 359.391 201.008 348.206C188.778 349.398 178.962 354.299 171.103 360.892C173.678 368.707 174.959 377.434 174.841 386.956C174.811 389.414 174.694 391.798 174.502 394.094ZM227.249 417.009C233.842 409.15 238.728 399.333 239.935 387.118C228.75 382.041 217.8 381.364 207.704 383.159C206.027 391.224 202.759 399.422 197.903 407.604C196.652 409.724 195.357 411.725 194.047 413.624C196.343 413.447 198.727 413.315 201.185 413.285C201.582 413.285 201.979 413.285 202.362 413.285C211.428 413.285 219.758 414.551 227.264 417.023L227.249 417.009ZM207.528 436.995C205.379 438.201 203.26 439.291 201.17 440.277C203.26 441.263 205.379 442.352 207.528 443.559C215.828 448.224 222.76 453.684 228.25 459.821C237.889 456.318 247.043 450.255 254.181 440.262C247.029 430.269 237.889 424.22 228.25 420.703C222.76 426.854 215.843 432.315 207.528 436.98V436.995ZM301.394 319.198L301.983 315.931L304.131 318.462C304.279 318.639 309.591 324.806 318.348 331.664C316.788 320.641 314.095 312.958 314.021 312.737L312.903 309.617L316.023 310.736C316.229 310.81 323.911 313.503 334.949 315.063C328.076 306.291 321.91 300.978 321.733 300.846L319.202 298.697L322.469 298.109C322.69 298.064 330.681 296.549 341.013 292.398H340.969C330.667 288.263 322.69 286.747 322.469 286.703L319.202 286.114L321.733 283.965C321.91 283.818 328.076 278.505 334.949 269.749C323.926 271.309 316.244 274.002 316.023 274.075L312.903 275.194L314.021 272.074C314.095 271.868 316.788 264.185 318.348 253.148C309.577 260.021 304.264 266.187 304.131 266.364L301.983 268.895L301.394 265.628C301.35 265.407 299.849 257.445 295.698 247.128V247.069C291.534 257.401 290.032 265.407 289.988 265.628L289.4 268.895L287.251 266.364C287.104 266.187 281.791 260.021 273.034 253.148C274.594 264.171 277.287 271.853 277.361 272.074L278.479 275.194L275.359 274.075C275.153 274.002 267.471 271.309 256.433 269.749C263.306 278.52 269.472 283.833 269.649 283.965L272.18 286.114L268.913 286.703C268.692 286.747 260.716 288.248 250.399 292.398H250.37C260.701 296.549 268.692 298.064 268.913 298.109L272.18 298.697L269.649 300.846C269.472 300.993 263.306 306.306 256.433 315.063C267.456 313.503 275.139 310.81 275.359 310.736L278.479 309.617L277.361 312.737C277.287 312.944 274.594 320.626 273.034 331.664C281.805 324.791 287.118 318.624 287.251 318.448L289.4 315.916L289.988 319.184C290.032 319.404 291.548 327.396 295.698 337.742V337.683C299.834 327.366 301.35 319.404 301.394 319.184V319.198ZM364.148 417.009C371.639 414.536 379.984 413.271 389.05 413.271C389.447 413.271 389.844 413.271 390.227 413.271C392.685 413.3 395.069 413.418 397.365 413.609C396.055 411.711 394.76 409.709 393.509 407.59C388.652 399.392 385.385 391.21 383.707 383.144C373.611 381.364 362.647 382.041 351.462 387.103C352.654 399.319 357.54 409.15 364.148 416.994V417.009ZM363.147 420.717C353.508 424.22 344.368 430.284 337.216 440.277C344.368 450.27 353.508 456.318 363.147 459.836C368.637 453.684 375.554 448.224 383.869 443.559C386.018 442.352 388.137 441.263 390.227 440.277C388.137 439.291 386.018 438.201 383.869 436.995C375.569 432.329 368.637 426.869 363.147 420.717ZM420.294 360.877C412.435 354.269 402.619 349.383 390.389 348.191C385.311 359.376 384.634 370.326 386.43 380.422C394.495 382.1 402.692 385.367 410.875 390.223C412.994 391.474 414.996 392.77 416.894 394.079C416.718 391.783 416.585 389.399 416.556 386.942C416.438 377.42 417.719 368.692 420.294 360.877ZM470.215 394.094C472.113 392.784 474.115 391.489 476.234 390.238C484.432 385.382 492.614 382.114 500.679 380.437C502.46 370.341 501.783 359.391 496.721 348.206C484.491 349.398 474.674 354.299 466.815 360.892C469.391 368.707 470.671 377.434 470.553 386.956C470.524 389.414 470.406 391.798 470.215 394.094ZM504.006 379.818C514.44 378.214 524.624 379.303 534.264 383.13C530.438 373.475 529.349 363.306 530.953 352.871C520.518 354.475 510.334 353.386 500.694 349.56C504.521 359.214 505.61 369.384 504.006 379.818ZM534.264 201.711C524.624 205.537 514.44 206.627 504.006 205.022C505.61 215.457 504.521 225.641 500.694 235.281C510.349 231.454 520.518 230.365 530.953 231.97C529.349 221.535 530.438 211.351 534.264 201.711ZM500.679 204.419C492.614 202.741 484.417 199.474 476.234 194.617C474.115 193.366 472.113 192.071 470.215 190.761C470.391 193.057 470.524 195.441 470.553 197.899C470.671 207.421 469.391 216.149 466.815 223.963C474.674 230.571 484.491 235.458 496.721 236.65C501.798 225.465 502.475 214.515 500.679 204.419ZM465.682 227.157C461.664 237.503 455.159 246.098 446.373 252.677C450.244 255.252 458.117 261.948 459.427 274.37L494.263 239.519C483.711 238.092 474.1 233.927 465.682 227.157ZM496.47 241.727L461.635 276.577C473.997 277.887 480.708 285.717 483.313 289.602C489.892 280.816 498.472 274.311 508.818 270.293C502.063 261.875 497.898 252.265 496.47 241.727ZM483.313 295.239C480.723 299.109 474.027 306.968 461.635 308.263L496.47 343.084C497.898 332.547 502.078 322.951 508.833 314.533C498.487 310.515 489.892 304.01 483.313 295.224V295.239ZM494.292 345.336L459.427 310.486C458.117 322.878 450.258 329.589 446.373 332.179C455.159 338.757 461.649 347.352 465.682 357.698C474.115 350.929 483.74 346.749 494.292 345.336ZM456.484 306.895V305.335H458.044C472.702 305.335 479.619 295.415 481.326 292.516L481.267 292.428H481.282L481.326 292.354C479.575 289.44 472.525 279.521 458.044 279.521H456.484V277.961C456.484 263.258 446.505 256.341 443.636 254.663L443.547 254.722L443.474 254.678C440.56 256.385 430.611 263.288 430.611 277.961V279.521H429.051C414.378 279.521 407.475 289.47 405.768 292.384L405.798 292.428L405.739 292.516C407.446 295.43 414.363 305.335 429.021 305.335H430.581V306.895C430.581 321.553 440.516 328.485 443.43 330.192L443.518 330.133L443.606 330.192C446.491 328.47 456.454 321.421 456.454 306.895H456.484ZM416.88 190.761C414.981 192.071 412.98 193.366 410.86 194.617C402.663 199.474 394.48 202.741 386.415 204.419C384.634 214.515 385.311 225.479 390.374 236.664C402.604 235.472 412.42 230.571 420.279 223.978C417.704 216.163 416.424 207.436 416.541 197.914C416.571 195.456 416.688 193.072 416.88 190.776V190.761ZM386.401 349.56C376.746 353.386 366.576 354.475 356.142 352.871C357.746 363.306 356.657 373.49 352.831 383.13C362.485 379.303 372.655 378.214 383.089 379.818C381.485 369.384 382.574 359.2 386.401 349.56ZM387.769 345.586C386.577 333.371 381.691 323.54 375.083 315.696C367.592 318.168 359.247 319.434 350.182 319.434C349.784 319.434 349.387 319.434 349.004 319.434C346.546 319.404 344.162 319.287 341.866 319.095C343.176 320.994 344.471 322.995 345.722 325.115C350.579 333.312 353.846 341.495 355.524 349.56C365.635 351.341 376.584 350.664 387.769 345.601V345.586ZM383.089 205.022C372.655 206.627 362.47 205.537 352.831 201.711C356.657 211.365 357.746 221.535 356.142 231.97C366.576 230.365 376.761 231.454 386.401 235.281C382.574 225.626 381.485 215.457 383.089 205.022ZM355.539 235.31C353.861 243.375 350.594 251.573 345.737 259.756C344.486 261.875 343.191 263.876 341.881 265.775C344.177 265.598 346.561 265.466 349.019 265.436C358.556 265.319 367.283 266.584 375.098 269.16C381.691 261.301 386.577 251.485 387.784 239.255C376.599 234.177 365.649 233.5 355.553 235.296L355.539 235.31ZM355.362 289.146C353.228 290.338 351.123 291.427 349.048 292.413H349.004C351.094 293.399 353.213 294.488 355.362 295.695C363.662 300.36 370.594 305.82 376.084 311.972C385.724 308.469 394.863 302.406 402.015 292.413C394.863 282.435 385.724 276.386 376.098 272.883C370.609 279.035 363.692 284.495 355.377 289.146H355.362ZM378.277 270.293C388.638 274.326 397.232 280.831 403.811 289.632C406.401 285.746 413.097 277.872 425.504 276.577L390.639 241.727C389.211 252.265 385.047 261.875 378.291 270.293H378.277ZM403.796 295.239C397.218 304.025 388.623 310.515 378.262 314.533C385.032 322.951 389.211 332.576 390.624 343.128L425.46 308.278C413.068 306.968 406.372 299.124 403.781 295.253L403.796 295.239ZM337.642 318.668C328.812 317.638 321.704 315.784 317.921 314.651C319.055 318.433 320.894 325.541 321.939 334.372C330.048 340.229 340.439 346.101 352.124 348.839C349.387 337.168 343.515 326.763 337.657 318.654L337.642 318.668ZM339.394 315.622C349.343 316.638 361.278 316.52 372.772 313.061C364.56 304.319 354.273 298.256 345.148 294.164C336.98 297.682 329.901 299.639 326.06 300.552C328.93 303.26 334.081 308.499 339.394 315.622ZM345.148 290.691C354.273 286.6 364.56 280.536 372.772 271.794C361.293 268.336 349.357 268.218 339.409 269.233C334.096 276.371 328.945 281.596 326.075 284.304C329.916 285.216 336.995 287.174 345.163 290.691H345.148ZM352.109 236.002C340.439 238.739 330.034 244.612 321.924 250.469C320.894 259.299 319.04 266.408 317.907 270.19C321.689 269.057 328.797 267.217 337.628 266.172C343.485 258.063 349.357 247.673 352.095 235.987L352.109 236.002ZM316.347 215.354C307.605 223.566 301.526 233.853 297.45 242.978C300.967 251.146 302.925 258.225 303.837 262.066C306.545 259.196 311.784 254.031 318.908 248.732C319.923 238.784 319.805 226.848 316.347 215.369V215.354ZM322.69 239.107C322.66 241.565 322.543 243.949 322.351 246.245C324.25 244.935 326.251 243.64 328.371 242.389C336.568 237.533 344.751 234.265 352.816 232.588C354.597 222.492 353.92 211.542 348.857 200.357C336.627 201.549 326.811 206.45 318.952 213.043C321.527 220.858 322.808 229.585 322.69 239.107ZM383.707 201.696C385.385 193.631 388.652 185.449 393.509 177.251C394.76 175.132 396.055 173.13 397.365 171.232C395.069 171.408 392.685 171.541 390.227 171.57C389.83 171.57 389.432 171.57 389.05 171.57C379.984 171.57 371.654 170.305 364.148 167.832C357.555 175.691 352.669 185.507 351.462 197.737C362.647 202.815 373.597 203.492 383.707 201.696ZM392.847 239.519L427.697 274.355C429.007 261.978 436.88 255.282 440.751 252.706C431.95 246.128 425.445 237.533 421.427 227.172C413.009 233.927 403.399 238.107 392.847 239.534V239.519ZM427.682 310.486L392.847 345.336C403.399 346.764 413.009 350.929 421.427 357.698C425.445 347.352 431.95 338.757 440.736 332.179C436.866 329.589 428.992 322.878 427.682 310.486ZM352.816 352.268C344.751 350.59 336.553 347.323 328.371 342.466C326.251 341.215 324.25 339.92 322.351 338.61C322.528 340.906 322.66 343.29 322.69 345.748C322.808 355.27 321.527 363.997 318.952 371.812C326.811 378.42 336.627 383.306 348.857 384.498C353.934 373.313 354.611 362.364 352.816 352.268ZM318.908 336.123C311.77 330.81 306.545 325.659 303.837 322.789C302.925 326.63 300.967 333.709 297.45 341.878C301.541 351.002 307.605 361.289 316.347 369.502C319.805 358.022 319.923 346.087 318.908 336.138V336.123ZM171.103 223.963C178.962 230.571 188.778 235.458 201.008 236.65C206.086 225.465 206.763 214.515 204.967 204.419C196.902 202.741 188.705 199.474 180.522 194.617C178.403 193.366 176.401 192.071 174.502 190.761C174.679 193.057 174.811 195.441 174.841 197.899C174.959 207.421 173.678 216.149 171.103 223.963ZM208.308 379.818C218.742 378.214 228.927 379.303 238.566 383.13C234.74 373.475 233.651 363.306 235.255 352.871C224.821 354.475 214.636 353.386 204.996 349.56C208.823 359.214 209.912 369.384 208.308 379.818ZM235.858 349.545C237.536 341.48 240.803 333.283 245.66 325.1C246.911 322.981 248.206 320.979 249.516 319.081C247.22 319.257 244.836 319.39 242.378 319.419C232.856 319.537 224.129 318.256 216.314 315.681C209.706 323.54 204.82 333.371 203.628 345.586C214.813 350.664 225.762 351.341 235.858 349.545ZM204.982 235.296C214.636 231.469 224.806 230.38 235.24 231.984C233.636 221.55 234.725 211.366 238.552 201.726C228.912 205.552 218.728 206.641 208.293 205.037C209.897 215.472 208.808 225.656 204.982 235.296ZM203.628 239.269C204.82 251.485 209.706 261.316 216.314 269.175C224.129 266.599 232.856 265.319 242.393 265.451C244.851 265.481 247.235 265.598 249.531 265.79C248.221 263.891 246.926 261.875 245.675 259.77C240.818 251.573 237.551 243.39 235.873 235.325C225.777 233.544 214.828 234.221 203.642 239.284L203.628 239.269ZM215.313 272.883C205.673 276.386 196.534 282.435 189.396 292.413H189.382C196.534 302.406 205.673 308.455 215.313 311.972C220.803 305.82 227.72 300.36 236.035 295.71C238.184 294.503 240.303 293.414 242.393 292.428H242.349C240.274 291.442 238.169 290.353 236.035 289.161C227.735 284.495 220.803 279.035 215.313 272.898V272.883ZM253.754 266.187C262.585 267.217 269.693 269.072 273.476 270.205C272.342 266.422 270.488 259.314 269.458 250.484C261.349 244.626 250.958 238.754 239.273 236.017C242.01 247.688 247.882 258.093 253.74 266.202L253.754 266.187ZM252.003 269.219C242.054 268.203 230.119 268.321 218.639 271.78C226.852 280.522 237.139 286.585 246.263 290.676C254.431 287.159 261.51 285.202 265.352 284.289C262.482 281.581 257.331 276.342 252.018 269.219H252.003ZM246.249 294.164C237.124 298.256 226.837 304.319 218.625 313.061C230.104 316.52 242.04 316.638 251.988 315.622C257.301 308.484 262.452 303.26 265.322 300.552C261.481 299.639 254.402 297.682 246.234 294.164H246.249ZM239.273 348.839C250.944 346.101 261.349 340.229 269.458 334.372C270.488 325.541 272.342 318.433 273.476 314.651C269.693 315.784 262.585 317.638 253.754 318.668C247.897 326.778 242.025 337.168 239.288 348.853L239.273 348.839ZM213.12 314.533C202.774 310.515 194.179 304.01 187.601 295.224C185.011 299.095 178.314 306.954 165.922 308.249L200.758 343.07C202.185 332.532 206.365 322.936 213.12 314.518V314.533ZM187.601 289.602C194.179 280.816 202.759 274.311 213.106 270.293C206.35 261.875 202.185 252.265 200.758 241.727L165.922 276.577C178.285 277.887 184.996 285.717 187.601 289.602ZM198.55 239.519C187.998 238.092 178.388 233.927 169.97 227.157C165.952 237.503 159.447 246.098 150.661 252.677C154.531 255.252 162.405 261.948 163.715 274.37L198.55 239.519ZM207.69 201.711C217.786 203.492 228.735 202.815 239.92 197.752C238.728 185.537 233.842 175.706 227.234 167.861C219.743 170.334 211.398 171.6 202.333 171.6C201.935 171.6 201.553 171.6 201.155 171.6C198.698 171.57 196.313 171.452 194.017 171.261C195.327 173.16 196.622 175.161 197.873 177.28C202.73 185.478 205.997 193.661 207.675 201.726L207.69 201.711ZM238.581 232.588C246.646 234.265 254.844 237.533 263.026 242.389C265.146 243.64 267.147 244.935 269.046 246.245C268.869 243.949 268.737 241.565 268.707 239.107C268.589 229.585 269.87 220.858 272.445 213.043C264.586 206.435 254.77 201.549 242.54 200.357C237.463 211.542 236.786 222.492 238.581 232.588ZM272.489 248.718C279.627 254.031 284.852 259.182 287.56 262.051C288.472 258.21 290.43 251.131 293.947 242.963C289.856 233.839 283.792 223.551 275.05 215.339C271.592 226.819 271.474 238.754 272.489 248.703V248.718ZM287.575 322.789C284.867 325.659 279.627 330.81 272.504 336.123C271.489 346.072 271.606 358.008 275.065 369.487C283.807 361.275 289.87 350.987 293.962 341.863C290.444 333.695 288.487 326.616 287.575 322.775V322.789ZM268.707 345.733C268.737 343.276 268.854 340.891 269.046 338.596C267.147 339.905 265.146 341.201 263.026 342.451C254.829 347.308 246.646 350.575 238.581 352.253C236.8 362.349 237.477 373.313 242.54 384.498C254.77 383.306 264.586 378.406 272.445 371.812C269.87 363.997 268.589 355.27 268.707 345.748V345.733ZM198.595 345.336L163.729 310.486C162.42 322.878 154.561 329.589 150.675 332.179C159.462 338.757 165.952 347.352 169.984 357.698C178.417 350.929 188.042 346.749 198.595 345.336ZM160.786 306.895V305.335H162.346C177.004 305.335 183.921 295.415 185.629 292.516L185.57 292.428H185.585L185.629 292.354C183.877 289.44 176.828 279.521 162.346 279.521H160.786V277.961C160.786 263.258 150.808 256.341 147.938 254.663L147.85 254.722L147.776 254.678C144.862 256.385 134.913 263.288 134.913 277.961V279.521H133.353C118.68 279.521 111.778 289.47 110.071 292.384L110.1 292.428L110.041 292.516C111.748 295.43 118.665 305.335 133.324 305.335H134.884V306.895C134.884 321.553 144.818 328.485 147.732 330.192L147.82 330.133L147.909 330.192C150.793 328.47 160.757 321.421 160.757 306.895H160.786ZM145.039 252.691C136.238 246.113 129.733 237.518 125.715 227.157C117.297 233.912 107.686 238.092 97.1342 239.519L131.984 274.355C133.294 261.978 141.168 255.282 145.039 252.706V252.691ZM131.97 310.486L97.1342 345.336C107.686 346.764 117.297 350.929 125.715 357.698C129.733 347.352 136.238 338.757 145.024 332.179C141.153 329.589 133.28 322.878 131.97 310.486ZM129.762 308.263C117.37 306.954 110.674 299.109 108.084 295.239C101.505 304.025 92.9104 310.515 82.5495 314.533C89.3194 322.951 93.4991 332.576 94.9119 343.128L129.747 308.278L129.762 308.263ZM108.099 289.632C110.689 285.746 117.385 277.872 129.792 276.577L94.9266 241.727C93.4991 252.265 89.3341 261.875 82.5789 270.293C92.9398 274.326 101.535 280.831 108.113 289.632H108.099ZM127.187 221.653C135.929 213.441 142.007 203.153 146.084 194.029C142.566 185.861 140.609 178.782 139.696 174.94C136.988 177.81 131.749 182.961 124.626 188.274C123.61 198.223 123.728 210.159 127.187 221.638V221.653ZM144.568 204.257C139.902 212.558 134.442 219.489 128.29 224.979C131.793 234.619 137.857 243.758 147.85 250.911C157.843 243.758 163.891 234.619 167.409 224.979C161.257 219.489 155.797 212.572 151.146 204.257C149.939 202.108 148.85 199.989 147.864 197.899C146.878 199.989 145.789 202.108 144.582 204.257H144.568ZM168.498 221.653C171.956 210.173 172.074 198.238 171.059 188.289C163.921 182.976 158.696 177.825 155.988 174.955C155.076 178.796 153.118 185.875 149.601 194.043C153.692 203.168 159.756 213.455 168.498 221.668V221.653ZM174.09 186.538C182.2 192.395 192.59 198.267 204.275 201.005C201.538 189.334 195.666 178.929 189.808 170.82C180.978 169.789 173.87 167.935 170.087 166.802C171.221 170.584 173.06 177.693 174.105 186.523L174.09 186.538ZM191.56 167.788C201.509 168.803 213.444 168.686 224.924 165.227C216.711 156.485 206.424 150.422 197.299 146.33C189.131 149.848 182.052 151.805 178.211 152.717C181.081 155.425 186.232 160.665 191.545 167.788H191.56ZM224.924 123.916C213.444 120.457 201.509 120.34 191.56 121.355C186.247 128.493 181.096 133.718 178.226 136.426C182.067 137.338 189.146 139.295 197.314 142.813C206.439 138.721 216.726 132.658 224.938 123.916H224.924ZM207.528 141.297C205.379 142.504 203.26 143.593 201.17 144.579C203.26 145.565 205.379 146.654 207.528 147.861C215.828 152.526 222.76 157.986 228.25 164.123C237.889 160.621 247.043 154.557 254.181 144.564C247.029 134.571 237.889 128.522 228.25 125.005C222.76 131.157 215.843 136.617 207.528 141.282V141.297ZM255.947 141.753C258.538 137.868 265.234 129.994 277.626 128.699L242.775 93.8782C241.348 104.43 237.168 114.041 230.413 122.474C240.759 126.491 249.369 132.982 255.947 141.768V141.753ZM230.413 166.684C237.183 175.102 241.363 184.727 242.775 195.28L277.611 160.429C265.219 159.119 258.523 151.275 255.933 147.405C249.354 156.191 240.745 162.681 230.398 166.699L230.413 166.684ZM244.998 197.502C255.55 198.929 265.16 203.094 273.579 209.864C277.596 199.518 284.101 190.923 292.887 184.345C289.017 181.755 281.143 175.043 279.833 162.652L244.998 197.502ZM276.154 212.042C282.306 217.532 287.766 224.449 292.417 232.764C293.623 234.913 294.712 237.032 295.698 239.122V239.078C296.685 237.003 297.759 234.898 298.966 232.764C303.631 224.464 309.091 217.532 315.243 212.042C311.74 202.403 305.677 193.263 295.713 186.126C285.72 193.263 279.671 202.403 276.154 212.042ZM317.818 209.85C326.251 203.08 335.876 198.9 346.429 197.487L311.578 162.652C310.268 175.043 302.41 181.755 298.524 184.345C307.296 190.923 313.786 199.503 317.804 209.85H317.818ZM348.607 195.25C350.034 184.713 354.214 175.102 360.969 166.684C350.623 162.666 342.028 156.191 335.45 147.419C332.859 151.29 326.163 159.134 313.786 160.444L348.607 195.25ZM360.969 122.459C354.199 114.041 350.02 104.416 348.607 93.8635L313.771 128.714C326.134 130.024 332.845 137.853 335.45 141.738C342.028 132.952 350.623 126.477 360.969 122.444V122.459ZM337.216 144.579C344.368 154.572 353.508 160.621 363.147 164.138C368.637 157.986 375.554 152.526 383.869 147.876C386.018 146.669 388.137 145.58 390.227 144.594C388.137 143.608 386.018 142.518 383.869 141.312C375.569 136.646 368.637 131.186 363.147 125.034C353.508 128.537 344.368 134.601 337.216 144.594V144.579ZM394.083 142.828C402.251 139.31 409.33 137.353 413.171 136.44C410.301 133.732 405.15 128.493 399.837 121.37C389.888 120.354 377.953 120.472 366.473 123.931C374.686 132.673 384.973 138.751 394.098 142.828H394.083ZM366.473 165.227C377.953 168.686 389.888 168.803 399.852 167.788C405.165 160.65 410.316 155.425 413.186 152.717C409.345 151.805 402.266 149.848 394.098 146.33C384.973 150.422 374.686 156.485 366.473 165.227ZM387.122 201.005C398.792 198.267 409.197 192.395 417.307 186.538C418.337 177.707 420.191 170.599 421.324 166.817C417.542 167.95 410.434 169.804 401.603 170.834C395.746 178.944 389.874 189.334 387.136 201.019L387.122 201.005ZM422.899 221.653C431.641 213.441 437.705 203.153 441.796 194.029C438.279 185.861 436.321 178.782 435.409 174.94C432.701 177.81 427.461 182.961 420.338 188.274C419.323 198.223 419.441 210.159 422.899 221.638V221.653ZM440.265 204.257C435.6 212.558 430.14 219.489 423.988 224.979C427.491 234.619 433.554 243.758 443.547 250.911C453.54 243.758 459.589 234.619 463.106 224.979C456.955 219.489 451.495 212.572 446.844 204.257C445.637 202.108 444.548 199.989 443.562 197.899C442.576 199.989 441.487 202.108 440.28 204.257H440.265ZM464.196 221.653C467.654 210.173 467.772 198.238 466.756 188.289C459.618 182.976 454.394 177.825 451.686 174.955C450.773 178.796 448.816 185.875 445.299 194.043C449.39 203.168 455.454 213.455 464.196 221.668V221.653ZM469.803 186.538C477.912 192.395 488.302 198.267 499.988 201.005C497.25 189.334 491.378 178.929 485.521 170.82C476.69 169.789 469.582 167.935 465.8 166.802C466.933 170.584 468.787 177.693 469.818 186.523L469.803 186.538ZM487.257 167.788C497.206 168.803 509.142 168.686 520.621 165.227C512.409 156.485 502.122 150.422 492.997 146.33C484.829 149.848 477.75 151.805 473.909 152.717C476.779 155.425 481.93 160.665 487.243 167.788H487.257ZM520.636 123.916C509.157 120.457 497.221 120.34 487.272 121.355C481.959 128.493 476.808 133.718 473.938 136.426C477.779 137.338 484.858 139.295 493.027 142.813C502.151 138.721 512.438 132.658 520.651 123.916H520.636ZM503.226 141.297C501.077 142.504 498.958 143.593 496.868 144.579C498.958 145.565 501.077 146.654 503.226 147.861C511.526 152.526 518.458 157.986 523.947 164.123C533.587 160.621 542.741 154.557 549.879 144.564C542.726 134.571 533.587 128.522 523.947 125.005C518.458 131.157 511.541 136.617 503.226 141.282V141.297ZM522.947 167.847C515.455 170.319 507.111 171.585 498.045 171.585C497.648 171.585 497.265 171.585 496.868 171.585C494.41 171.555 492.026 171.438 489.73 171.246C491.04 173.145 492.335 175.146 493.586 177.266C498.442 185.463 501.71 193.646 503.387 201.711C513.483 203.492 524.448 202.815 535.618 197.752C534.426 185.537 529.54 175.706 522.932 167.861L522.947 167.847ZM531.556 235.31C521.46 233.53 510.511 234.207 499.325 239.269C500.518 251.485 505.404 261.316 512.012 269.175C519.826 266.599 528.554 265.319 538.091 265.451C540.548 265.481 542.932 265.598 545.228 265.79C543.919 263.891 542.623 261.875 541.372 259.77C536.516 251.573 533.249 243.39 531.571 235.325L531.556 235.31ZM511.011 272.883C501.371 276.386 492.232 282.435 485.094 292.413H485.079C492.232 302.406 501.371 308.455 511.011 311.972C516.5 305.82 523.417 300.36 531.733 295.71C533.881 294.503 536.001 293.414 538.091 292.428H538.046C535.971 291.442 533.867 290.353 531.733 289.161C523.432 284.495 516.5 279.035 511.011 272.898V272.883ZM512.012 315.666C505.404 323.525 500.518 333.356 499.325 345.572C510.511 350.649 521.46 351.326 531.556 349.53C533.234 341.465 536.501 333.268 541.358 325.085C542.609 322.966 543.904 320.964 545.214 319.066C542.918 319.242 540.534 319.375 538.076 319.404C528.554 319.522 519.826 318.242 512.012 315.666ZM503.402 383.144C501.724 391.21 498.457 399.407 493.6 407.59C492.35 409.709 491.054 411.711 489.745 413.609C492.04 413.432 494.425 413.3 496.882 413.271C497.28 413.271 497.677 413.271 498.06 413.271C507.126 413.271 515.455 414.536 522.961 417.009C529.555 409.15 534.441 399.333 535.647 387.118C524.462 382.041 513.513 381.364 503.417 383.159L503.402 383.144ZM503.226 436.995C501.077 438.201 498.958 439.291 496.868 440.277C498.958 441.263 501.077 442.352 503.226 443.559C511.526 448.224 518.458 453.684 523.947 459.821C533.587 456.318 542.741 450.255 549.879 440.262C542.726 430.269 533.587 424.22 523.947 420.703C518.458 426.854 511.541 432.315 503.226 436.98V436.995ZM522.947 463.544C515.455 466.017 507.111 467.283 498.045 467.283C497.648 467.283 497.265 467.283 496.868 467.283C494.41 467.253 492.026 467.135 489.73 466.944C491.04 468.843 492.335 470.844 493.586 472.963C498.442 481.161 501.71 489.344 503.387 497.409C513.483 499.19 524.433 498.513 535.618 493.45C534.426 481.235 529.54 471.403 522.932 463.559L522.947 463.544ZM485.506 466.517C476.676 465.487 469.567 463.633 465.785 462.5C466.918 466.282 468.758 473.39 469.803 482.221C477.912 488.078 488.302 493.95 499.988 496.688C497.25 485.017 491.378 474.612 485.521 466.503L485.506 466.517ZM487.257 463.486C497.206 464.501 509.142 464.383 520.621 460.925C512.409 452.183 502.122 446.119 492.997 442.028C484.829 445.545 477.75 447.503 473.909 448.415C476.779 451.123 481.93 456.362 487.243 463.486H487.257ZM520.636 419.628C509.157 416.17 497.221 416.052 487.272 417.068C481.959 424.205 476.808 429.43 473.938 432.138C477.779 433.05 484.858 435.008 493.027 438.525C502.151 434.434 512.438 428.37 520.651 419.628H520.636ZM499.973 383.851C488.302 386.588 477.897 392.46 469.788 398.318C468.758 407.148 466.904 414.257 465.77 418.039C469.553 416.906 476.661 415.051 485.491 414.021C491.349 405.912 497.221 395.522 499.958 383.836L499.973 383.851ZM464.196 363.188C455.454 371.4 449.39 381.687 445.299 390.812C448.816 398.98 450.773 406.059 451.686 409.9C454.394 407.03 459.633 401.879 466.756 396.567C467.772 386.618 467.654 374.682 464.196 363.203V363.188ZM446.829 380.598C451.495 372.298 456.955 365.366 463.092 359.877C459.589 350.237 453.526 341.083 443.533 333.945C433.54 341.098 427.491 350.237 423.973 359.877C430.125 365.366 435.585 372.283 440.251 380.598C441.457 382.747 442.547 384.866 443.533 386.956C444.519 384.866 445.608 382.747 446.815 380.598H446.829ZM422.899 363.188C419.441 374.667 419.323 386.603 420.338 396.552C427.476 401.865 432.701 407.016 435.409 409.886C436.321 406.044 438.279 398.965 441.796 390.797C437.705 381.673 431.641 371.385 422.899 363.173V363.188ZM417.307 398.318C409.197 392.46 398.807 386.588 387.122 383.851C389.859 395.522 395.731 405.927 401.589 414.036C410.419 415.066 417.527 416.92 421.31 418.054C420.176 414.271 418.337 407.163 417.292 398.333L417.307 398.318ZM399.837 417.068C389.888 416.052 377.953 416.17 366.459 419.628C374.671 428.37 384.958 434.449 394.083 438.525C402.251 435.008 409.33 433.05 413.171 432.138C410.301 429.43 405.15 424.191 399.837 417.068ZM366.473 460.925C377.953 464.383 389.903 464.501 399.852 463.486C405.165 456.348 410.316 451.123 413.186 448.415C409.345 447.503 402.266 445.545 394.098 442.028C384.973 446.119 374.686 452.183 366.473 460.925ZM387.122 496.702C398.792 493.965 409.197 488.093 417.307 482.235C418.337 473.405 420.191 466.297 421.324 462.514C417.542 463.647 410.434 465.502 401.603 466.532C395.746 474.641 389.874 485.032 387.136 496.717L387.122 496.702ZM393.509 472.963C394.76 470.844 396.055 468.843 397.365 466.944C395.069 467.121 392.685 467.253 390.227 467.283C389.83 467.283 389.432 467.283 389.05 467.283C379.984 467.283 371.654 466.017 364.148 463.544C357.555 471.403 352.669 481.22 351.462 493.45C362.647 498.527 373.597 499.204 383.707 497.409C385.385 489.344 388.652 481.161 393.509 472.963ZM360.969 462.397C350.623 458.379 342.028 451.903 335.45 443.132C332.859 447.002 326.163 454.847 313.786 456.156L348.607 490.963C350.034 480.425 354.214 470.815 360.969 462.411V462.397ZM360.969 418.157C354.199 409.738 350.02 400.113 348.607 389.561L313.771 424.411C326.134 425.721 332.845 433.551 335.45 437.436C342.028 428.65 350.623 422.174 360.969 418.142V418.157ZM346.399 387.354C335.847 385.926 326.237 381.761 317.818 374.991C313.801 385.337 307.296 393.932 298.509 400.511C302.38 403.086 310.254 409.783 311.564 422.204L346.399 387.354ZM273.579 374.991C265.16 381.746 255.55 385.926 244.998 387.354L279.833 422.16C281.143 409.783 289.002 403.086 292.887 400.511C284.101 393.932 277.611 385.337 273.579 374.991ZM242.79 389.561C241.363 400.113 237.183 409.724 230.428 418.157C240.774 422.174 249.383 428.665 255.962 437.451C258.552 433.566 265.249 425.692 277.641 424.397L242.79 389.576V389.561ZM230.413 462.397C237.183 470.815 241.363 480.44 242.775 490.992L277.611 456.142C265.219 454.832 258.523 446.988 255.933 443.117C249.354 451.903 240.759 458.393 230.398 462.411L230.413 462.397ZM227.249 463.544C219.758 466.017 211.413 467.283 202.347 467.283C201.95 467.283 201.567 467.283 201.17 467.283C198.712 467.253 196.328 467.135 194.032 466.944C195.342 468.843 196.637 470.844 197.888 472.963C202.745 481.161 206.012 489.344 207.69 497.409C217.786 499.19 228.735 498.513 239.92 493.45C238.728 481.235 233.842 471.403 227.234 463.559L227.249 463.544ZM189.808 466.517C180.978 465.487 173.87 463.633 170.087 462.5C171.221 466.282 173.06 473.39 174.105 482.221C182.214 488.078 192.605 493.95 204.29 496.688C201.553 485.017 195.681 474.612 189.823 466.503L189.808 466.517ZM191.56 463.486C201.509 464.501 213.444 464.383 224.924 460.925C216.711 452.183 206.424 446.119 197.299 442.028C189.131 445.545 182.052 447.503 178.211 448.415C181.081 451.123 186.232 456.362 191.545 463.486H191.56ZM224.924 419.628C213.444 416.17 201.509 416.052 191.56 417.068C186.247 424.205 181.096 429.43 178.226 432.138C182.067 433.05 189.146 435.008 197.314 438.525C206.439 434.434 216.726 428.37 224.938 419.628H224.924ZM204.275 383.851C192.605 386.588 182.2 392.46 174.09 398.318C173.06 407.148 171.206 414.257 170.073 418.039C173.855 416.906 180.963 415.051 189.794 414.021C195.651 405.912 201.523 395.522 204.261 383.836L204.275 383.851ZM168.498 363.188C159.756 371.4 153.692 381.687 149.601 390.812C153.118 398.98 155.076 406.059 155.988 409.9C158.696 407.03 163.936 401.879 171.059 396.567C172.074 386.618 171.956 374.682 168.498 363.203V363.188ZM151.132 380.598C155.797 372.298 161.257 365.366 167.394 359.877C163.891 350.237 157.828 341.083 147.835 333.945C137.842 341.098 131.793 350.237 128.276 359.877C134.428 365.366 139.888 372.283 144.553 380.598C145.76 382.747 146.849 384.866 147.835 386.956C148.821 384.866 149.91 382.747 151.117 380.598H151.132ZM127.187 363.188C123.728 374.667 123.61 386.603 124.626 396.552C131.764 401.865 136.988 407.016 139.696 409.886C140.609 406.044 142.566 398.965 146.084 390.797C141.992 381.673 135.929 371.385 127.187 363.173V363.188ZM115.163 390.238C117.282 391.489 119.284 392.784 121.182 394.094C121.005 391.798 120.873 389.414 120.844 386.956C120.726 377.434 122.006 368.707 124.582 360.892C116.723 354.284 106.906 349.398 94.6765 348.206C89.599 359.391 88.922 370.341 90.7175 380.437C98.7825 382.114 106.98 385.382 115.163 390.238ZM92.0715 345.586C90.8794 333.371 85.9933 323.54 79.3853 315.696C71.8942 318.168 63.5496 319.434 54.4838 319.434C54.0864 319.434 53.6891 319.434 53.3065 319.434C50.8487 319.404 48.4645 319.287 46.1686 319.095C47.4785 320.994 48.7736 322.995 50.0245 325.115C54.8812 333.312 58.1484 341.495 59.8262 349.56C69.9368 351.341 80.8864 350.664 92.0715 345.601V345.586ZM80.386 311.972C90.0258 308.469 99.1652 302.406 106.318 292.413C99.1652 282.435 90.0258 276.386 80.4008 272.883C74.9113 279.035 67.9942 284.495 59.679 289.146C57.545 290.338 55.4404 291.427 53.3653 292.413H53.3212C55.411 293.399 57.5303 294.488 59.679 295.695C67.9794 300.36 74.9113 305.82 80.4008 311.972H80.386ZM79.3853 269.175C85.9786 261.316 90.8647 251.499 92.0715 239.269C80.8864 234.192 69.9368 233.515 59.8262 235.31C58.1484 243.375 54.8812 251.573 50.0245 259.756C48.7736 261.875 47.4785 263.876 46.1686 265.775C48.4645 265.598 50.8487 265.466 53.3065 265.436C62.8432 265.319 71.5705 266.584 79.3853 269.16V269.175ZM87.9949 201.696C89.6726 193.631 92.9398 185.449 97.7964 177.251C99.0474 175.132 100.343 173.13 101.652 171.232C99.3565 171.408 96.9724 171.541 94.5146 171.57C94.1172 171.57 93.7198 171.57 93.3372 171.57C84.2714 171.57 75.9415 170.305 68.4357 167.832C61.8424 175.691 56.9563 185.507 55.7495 197.737C66.9346 202.815 77.8842 203.492 87.9949 201.696ZM88.1714 147.861C90.3202 146.654 92.4395 145.565 94.5293 144.579C92.4395 143.593 90.3202 142.504 88.1714 141.297C79.871 136.632 72.9391 131.172 67.4496 125.02C57.8099 128.522 48.6705 134.586 41.5179 144.579C48.6705 154.572 57.8099 160.621 67.4496 164.138C72.9391 157.986 79.8563 152.526 88.1714 147.876V147.861ZM105.891 118.323C114.721 119.354 121.83 121.208 125.612 122.341C124.479 118.559 122.639 111.451 121.594 102.62C113.485 96.7628 103.095 90.8906 91.4092 88.1532C94.1466 99.8239 100.019 110.229 105.876 118.338L105.891 118.323ZM124.626 100.869C131.764 106.182 136.988 111.333 139.696 114.203C140.609 110.361 142.566 103.282 146.084 95.1144C141.992 85.9898 135.929 75.7025 127.187 67.4903C123.728 78.9697 123.61 90.9053 124.626 100.854V100.869ZM142.139 117.794L141.551 121.061L139.402 118.529C139.255 118.353 133.942 112.186 125.185 105.313C126.745 116.337 129.438 124.019 129.512 124.24L130.631 127.36L127.51 126.241C127.304 126.168 119.622 123.474 108.584 121.914C115.457 130.686 121.624 135.999 121.8 136.131L124.332 138.28L121.064 138.869C120.844 138.913 112.852 140.429 102.506 144.579C112.837 148.729 120.844 150.245 121.064 150.289L124.332 150.878L121.8 153.027C121.624 153.174 115.457 158.487 108.584 167.243C119.607 165.669 127.29 162.99 127.51 162.917L130.631 161.798L129.512 164.918C129.438 165.124 126.745 172.806 125.185 183.844C133.957 176.971 139.27 170.805 139.402 170.628L141.551 168.097L142.139 171.364C142.184 171.585 143.699 179.576 147.85 189.923C152 179.591 153.516 171.585 153.56 171.364L154.149 168.097L156.297 170.628C156.444 170.805 161.757 176.971 170.514 183.844C168.954 172.821 166.261 165.139 166.187 164.918L165.069 161.798L168.189 162.917C168.395 162.99 176.077 165.683 187.115 167.243C180.242 158.472 174.076 153.159 173.899 153.027L171.368 150.878L174.635 150.289C174.856 150.245 182.847 148.729 193.179 144.579C182.847 140.414 174.841 138.913 174.635 138.869L171.368 138.28L173.899 136.131C174.076 135.984 180.242 130.671 187.115 121.914C176.092 123.474 168.41 126.168 168.189 126.241L165.069 127.36L166.187 124.24C166.261 124.034 168.954 116.351 170.514 105.313C161.743 112.186 156.43 118.353 156.297 118.529L154.149 121.061L153.56 117.794C153.516 117.573 152 109.581 147.85 99.2353C143.699 109.567 142.184 117.573 142.139 117.794ZM155.988 114.203C158.696 111.333 163.936 106.182 171.059 100.869C172.074 90.9201 171.956 78.9844 168.498 67.505C159.756 75.7172 153.692 86.0045 149.601 95.1292C153.118 103.297 155.076 110.376 155.988 114.217V114.203ZM170.087 122.341C173.87 121.208 180.978 119.368 189.808 118.323C195.666 110.214 201.538 99.8239 204.275 88.1385C192.605 90.8759 182.2 96.7481 174.09 102.605C173.06 111.436 171.206 118.544 170.073 122.327L170.087 122.341ZM197.888 111.892C196.637 114.011 195.342 116.013 194.032 117.911C196.328 117.735 198.712 117.602 201.17 117.573C201.567 117.573 201.965 117.573 202.347 117.573C211.413 117.573 219.743 118.839 227.249 121.311C233.842 113.452 238.728 103.636 239.935 91.4204C228.75 86.343 217.8 85.666 207.704 87.4615C206.027 95.5265 202.759 103.724 197.903 111.907L197.888 111.892ZM244.998 91.6559L279.833 126.462C281.143 114.085 289.002 107.389 292.887 104.813C284.101 98.2345 277.611 89.6397 273.579 79.2935C265.16 86.0487 255.55 90.2283 244.998 91.6559ZM311.564 126.506L346.399 91.6559C335.847 90.2283 326.237 86.0634 317.818 79.2935C313.801 89.6397 307.296 98.2345 298.509 104.813C302.38 107.389 310.254 114.085 311.564 126.506ZM351.462 91.4057C352.654 103.621 357.54 113.452 364.148 121.296C371.639 118.824 379.984 117.558 389.05 117.558C389.447 117.558 389.844 117.558 390.227 117.558C392.685 117.588 395.069 117.705 397.365 117.897C396.055 115.998 394.76 113.997 393.509 111.877C388.652 103.68 385.385 95.4971 383.707 87.4321C373.597 85.6513 362.647 86.3283 351.462 91.391V91.4057ZM401.589 118.323C410.419 119.354 417.527 121.208 421.31 122.341C420.176 118.559 418.337 111.451 417.292 102.62C409.183 96.7628 398.792 90.8906 387.107 88.1532C389.844 99.8239 395.716 110.229 401.574 118.338L401.589 118.323ZM420.338 100.869C427.476 106.182 432.701 111.333 435.409 114.203C436.321 110.361 438.279 103.282 441.796 95.1144C437.705 85.9898 431.641 75.7025 422.899 67.4903C419.441 78.9697 419.323 90.9053 420.338 100.854V100.869ZM437.837 117.794L437.248 121.061L435.1 118.529C434.952 118.353 429.64 112.186 420.883 105.313C422.443 116.337 425.136 124.019 425.21 124.24L426.328 127.36L423.208 126.241C423.002 126.168 415.32 123.474 404.282 121.914C411.155 130.686 417.321 135.999 417.498 136.131L420.029 138.28L416.762 138.869C416.541 138.913 408.55 140.429 398.204 144.579C408.535 148.729 416.541 150.245 416.762 150.289L420.029 150.878L417.498 153.027C417.321 153.174 411.155 158.487 404.282 167.243C415.305 165.669 422.987 162.99 423.208 162.917L426.328 161.798L425.21 164.918C425.136 165.124 422.443 172.806 420.883 183.844C429.654 176.971 434.967 170.805 435.1 170.628L437.248 168.097L437.837 171.364C437.881 171.585 439.397 179.576 443.547 189.923C447.712 179.591 449.213 171.585 449.258 171.364L449.846 168.097L451.995 170.628C452.142 170.805 457.455 176.971 466.212 183.844C464.652 172.821 461.959 165.139 461.885 164.918L460.766 161.798L463.886 162.917C464.093 162.99 471.775 165.683 482.813 167.243C475.94 158.472 469.773 153.159 469.597 153.027L467.065 150.878L470.333 150.289C470.553 150.245 478.545 148.729 488.891 144.579C478.56 140.414 470.553 138.913 470.333 138.869L467.065 138.28L469.597 136.131C469.773 135.984 475.94 130.671 482.813 121.914C471.775 123.474 464.107 126.168 463.886 126.241L460.766 127.36L461.885 124.24C461.959 124.034 464.652 116.351 466.212 105.313C457.44 112.186 452.127 118.353 451.995 118.529L449.846 121.061L449.258 117.794C449.213 117.573 447.698 109.581 443.547 99.2353C439.397 109.567 437.881 117.573 437.837 117.794ZM451.686 114.203C454.394 111.333 459.633 106.182 466.756 100.869C467.772 90.9201 467.654 78.9844 464.196 67.505C455.454 75.7172 449.39 86.0045 445.299 95.1292C448.816 103.297 450.773 110.376 451.686 114.217V114.203ZM465.785 122.341C469.567 121.208 476.676 119.368 485.506 118.323C491.363 110.214 497.236 99.8239 499.973 88.1385C488.288 90.8759 477.897 96.7481 469.788 102.605C468.758 111.436 466.904 118.544 465.77 122.327L465.785 122.341ZM493.586 111.892C492.335 114.011 491.04 116.013 489.73 117.911C492.026 117.735 494.41 117.602 496.868 117.573C497.265 117.573 497.662 117.573 498.045 117.573C507.111 117.573 515.441 118.839 522.947 121.311C529.54 113.452 534.426 103.636 535.633 91.4204C524.448 86.343 513.498 85.666 503.402 87.4615C501.724 95.5265 498.457 103.724 493.6 111.907L493.586 111.892ZM540.695 91.6559L575.531 126.462C576.841 114.085 584.7 107.389 588.585 104.813C579.799 98.2345 573.309 89.6397 569.276 79.2935C560.858 86.0487 551.248 90.2283 540.695 91.6559ZM538.488 93.8635C537.06 104.416 532.881 114.026 526.125 122.459C536.472 126.477 545.081 132.967 551.66 141.753C554.25 137.868 560.946 129.994 573.338 128.699L538.488 93.8782V93.8635ZM526.125 166.684C532.895 175.102 537.075 184.727 538.488 195.28L573.323 160.429C560.932 159.119 554.235 151.275 551.645 147.405C545.066 156.191 536.457 162.681 526.111 166.699L526.125 166.684ZM540.695 197.502C551.248 198.929 560.858 203.094 569.276 209.864C573.294 199.518 579.799 190.923 588.585 184.345C584.715 181.755 576.841 175.043 575.531 162.652L540.695 197.502ZM570.763 215.354C567.304 226.833 567.186 238.769 568.202 248.718C575.34 254.031 580.564 259.182 583.272 262.051C584.185 258.21 586.142 251.131 589.66 242.963C585.568 233.839 579.505 223.551 570.763 215.339V215.354ZM565.155 250.469C557.046 244.612 546.656 238.739 534.97 236.002C537.708 247.673 543.58 258.078 549.437 266.187C558.268 267.217 565.376 269.072 569.159 270.205C568.025 266.422 566.171 259.314 565.141 250.484L565.155 250.469ZM547.701 269.219C537.752 268.203 525.816 268.321 514.337 271.78C522.549 280.522 532.836 286.585 541.961 290.676C550.129 287.159 557.208 285.202 561.049 284.289C558.179 281.581 553.028 276.342 547.716 269.219H547.701ZM541.946 294.164C532.822 298.256 522.534 304.319 514.322 313.061C525.802 316.52 537.737 316.638 547.686 315.622C552.999 308.484 558.15 303.26 561.02 300.552C557.179 299.639 550.1 297.682 541.932 294.164H541.946ZM534.985 348.839C546.656 346.101 557.061 340.229 565.17 334.372C566.2 325.541 568.055 318.433 569.188 314.651C565.406 315.784 558.297 317.638 549.467 318.668C543.609 326.778 537.737 337.168 535 348.853L534.985 348.839ZM570.748 369.502C579.49 361.289 585.568 351.002 589.645 341.878C586.127 333.709 584.17 326.63 583.258 322.789C580.55 325.659 575.31 330.81 568.187 336.123C567.172 346.072 567.289 358.008 570.748 369.487V369.502ZM569.276 374.991C560.858 381.746 551.248 385.926 540.695 387.354L575.531 422.16C576.841 409.783 584.7 403.086 588.585 400.511C579.799 393.932 573.309 385.337 569.276 374.991ZM538.488 389.561C537.06 400.113 532.881 409.724 526.125 418.157C536.472 422.174 545.081 428.665 551.66 437.451C554.25 433.566 560.946 425.692 573.338 424.397L538.488 389.576V389.561ZM526.125 462.397C532.895 470.815 537.075 480.44 538.488 490.992L573.323 456.142C560.932 454.832 554.235 446.988 551.645 443.117C545.066 451.903 536.472 458.393 526.111 462.411L526.125 462.397ZM540.695 493.2C551.248 494.627 560.858 498.792 569.276 505.562C573.294 495.216 579.799 486.621 588.585 480.042C584.715 477.452 576.841 470.741 575.531 458.349L540.695 493.2ZM500.679 500.131C492.614 498.454 484.417 495.186 476.234 490.33C474.115 489.079 472.113 487.784 470.215 486.474C470.391 488.77 470.524 491.154 470.553 493.612C470.671 503.134 469.391 511.861 466.815 519.676C474.674 526.284 484.491 531.17 496.721 532.362C501.798 521.177 502.475 510.227 500.679 500.131ZM466.756 483.987C459.618 478.674 454.394 473.523 451.686 470.653C450.773 474.494 448.816 481.573 445.299 489.741C449.39 498.866 455.454 509.153 464.196 517.365C467.654 505.886 467.772 493.95 466.756 484.001V483.987ZM449.258 467.062L449.846 463.795L451.995 466.326C452.142 466.503 457.455 472.669 466.212 479.542C464.652 468.519 461.959 460.837 461.885 460.616L460.766 457.496L463.886 458.614C464.093 458.688 471.775 461.381 482.813 462.941C475.94 454.17 469.773 448.857 469.597 448.724L467.065 446.576L470.333 445.987C470.553 445.943 478.545 444.427 488.876 440.277C478.545 436.126 470.553 434.61 470.333 434.566L467.065 433.978L469.597 431.829C469.773 431.682 475.94 426.369 482.813 417.612C471.79 419.172 464.093 421.865 463.886 421.939L460.766 423.057L461.885 419.937C461.959 419.731 464.652 412.049 466.212 401.011C457.44 407.884 452.127 414.051 451.995 414.227L449.846 416.759L449.258 413.491C449.213 413.271 447.698 405.279 443.547 394.933C439.397 405.264 437.881 413.271 437.837 413.491L437.248 416.759L435.1 414.227C434.952 414.051 429.64 407.884 420.883 401.011C422.443 412.034 425.136 419.717 425.21 419.937L426.328 423.057L423.208 421.939C423.002 421.865 415.32 419.172 404.282 417.612C411.155 426.384 417.321 431.697 417.498 431.829L420.029 433.978L416.762 434.566C416.541 434.61 408.55 436.126 398.204 440.277C408.535 444.442 416.541 445.943 416.762 445.987L420.029 446.576L417.498 448.724C417.321 448.871 411.155 454.184 404.282 462.941C415.305 461.381 422.987 458.688 423.208 458.614L426.328 457.496L425.21 460.616C425.136 460.822 422.443 468.504 420.883 479.542C429.654 472.669 434.967 466.503 435.1 466.326L437.248 463.795L437.837 467.062C437.881 467.283 439.397 475.274 443.547 485.62C447.712 475.289 449.213 467.283 449.258 467.062ZM435.409 470.653C432.701 473.523 427.461 478.674 420.338 483.987C419.323 493.935 419.441 505.871 422.899 517.351C431.641 509.138 437.719 498.851 441.796 489.726C438.279 481.558 436.321 474.479 435.409 470.638V470.653ZM416.556 493.597C416.585 491.139 416.703 488.755 416.894 486.459C414.996 487.769 412.994 489.064 410.875 490.315C402.678 495.172 394.495 498.439 386.43 500.117C384.649 510.213 385.326 521.177 390.389 532.362C402.619 531.17 412.435 526.269 420.294 519.676C417.719 511.861 416.438 503.134 416.556 493.612V493.597ZM346.429 493.185L311.578 458.349C310.268 470.741 302.41 477.452 298.524 480.042C307.296 486.621 313.786 495.201 317.804 505.547C326.237 498.777 335.862 494.598 346.414 493.185H346.429ZM308.65 454.773V453.213H310.21C324.868 453.213 331.77 443.308 333.492 440.394L333.404 440.277L333.463 440.188C331.711 437.274 324.662 427.37 310.18 427.37H308.62V425.81C308.62 411.107 298.642 404.19 295.772 402.512L295.698 402.556L295.61 402.512C292.696 404.219 282.762 411.122 282.762 425.795V427.355H281.202C266.544 427.355 259.627 437.289 257.919 440.203L257.978 440.291L257.919 440.38C259.627 443.294 266.544 453.198 281.202 453.198H282.762V454.758C282.762 469.417 292.696 476.348 295.61 478.056L295.698 477.997L295.787 478.07C298.671 476.334 308.635 469.284 308.635 454.773H308.65ZM279.833 458.335L244.998 493.185C255.55 494.612 265.16 498.777 273.579 505.547C277.596 495.201 284.101 486.606 292.887 480.028C289.017 477.438 281.143 470.726 279.833 458.335ZM204.982 500.131C196.917 498.454 188.719 495.186 180.536 490.33C178.417 489.079 176.416 487.784 174.517 486.474C174.694 488.77 174.826 491.154 174.856 493.612C174.973 503.134 173.693 511.861 171.117 519.676C178.976 526.284 188.793 531.17 201.023 532.362C206.1 521.177 206.777 510.227 204.982 500.131ZM171.059 483.987C163.921 478.674 158.696 473.523 155.988 470.653C155.076 474.494 153.118 481.573 149.601 489.741C153.692 498.866 159.756 509.153 168.498 517.365C171.956 505.886 172.074 493.95 171.059 484.001V483.987ZM153.56 467.062L154.149 463.795L156.297 466.326C156.444 466.503 161.757 472.669 170.514 479.542C168.954 468.519 166.261 460.837 166.187 460.616L165.069 457.496L168.189 458.614C168.395 458.688 176.077 461.381 187.115 462.941C180.242 454.17 174.076 448.857 173.899 448.724L171.368 446.576L174.635 445.987C174.856 445.943 182.847 444.427 193.179 440.277C182.847 436.126 174.856 434.61 174.635 434.566L171.368 433.978L173.899 431.829C174.076 431.682 180.242 426.369 187.115 417.612C176.092 419.172 168.41 421.865 168.189 421.939L165.069 423.057L166.187 419.937C166.261 419.731 168.954 412.049 170.514 401.011C161.743 407.884 156.43 414.051 156.297 414.227L154.149 416.759L153.56 413.491C153.516 413.271 152 405.279 147.85 394.933C143.685 405.264 142.184 413.271 142.139 413.491L141.551 416.759L139.402 414.227C139.255 414.051 133.942 407.884 125.185 401.011C126.745 412.034 129.438 419.717 129.512 419.937L130.631 423.057L127.51 421.939C127.304 421.865 119.622 419.172 108.584 417.612C115.457 426.384 121.624 431.697 121.8 431.829L124.332 433.978L121.064 434.566C120.844 434.61 112.852 436.126 102.506 440.277C112.837 444.442 120.844 445.943 121.064 445.987L124.332 446.576L121.8 448.724C121.624 448.871 115.457 454.184 108.584 462.941C119.607 461.381 127.29 458.688 127.51 458.614L130.631 457.496L129.512 460.616C129.438 460.822 126.745 468.504 125.185 479.542C133.957 472.669 139.27 466.503 139.402 466.326L141.551 463.795L142.139 467.062C142.184 467.283 143.699 475.274 147.85 485.62C152 475.289 153.516 467.283 153.56 467.062ZM139.711 470.653C137.003 473.523 131.764 478.674 124.641 483.987C123.625 493.935 123.743 505.871 127.201 517.351C135.943 509.138 142.022 498.851 146.098 489.726C142.581 481.558 140.624 474.479 139.711 470.638V470.653ZM120.844 493.597C120.873 491.139 120.991 488.755 121.182 486.459C119.284 487.769 117.282 489.064 115.163 490.315C106.965 495.172 98.7825 498.439 90.7175 500.117C88.9367 510.213 89.6137 521.177 94.6765 532.362C106.906 531.17 116.723 526.269 124.582 519.676C122.006 511.861 120.726 503.134 120.844 493.612V493.597ZM87.9949 497.409C89.6726 489.344 92.9398 481.161 97.7964 472.963C99.0474 470.844 100.343 468.843 101.652 466.944C99.3565 467.121 96.9724 467.253 94.5146 467.283C94.1172 467.283 93.7198 467.283 93.3372 467.283C84.2714 467.283 75.9415 466.017 68.4357 463.544C61.8424 471.403 56.9563 481.22 55.7495 493.45C66.9346 498.527 77.8842 499.204 87.9949 497.409ZM88.1714 443.559C90.3202 442.352 92.4395 441.263 94.5293 440.277C92.4395 439.291 90.3202 438.201 88.1714 436.995C79.871 432.329 72.9391 426.869 67.4496 420.717C57.8099 424.22 48.6558 430.284 41.5179 440.277C48.6705 450.27 57.8099 456.318 67.4496 459.836C72.9391 453.684 79.8563 448.224 88.1714 443.559ZM68.4357 417.009C75.9268 414.536 84.2714 413.271 93.3372 413.271C93.7345 413.271 94.1319 413.271 94.5146 413.271C96.9724 413.3 99.3565 413.418 101.652 413.609C100.343 411.711 99.0474 409.709 97.7964 407.59C92.9398 399.392 89.6726 391.21 87.9949 383.144C77.8989 381.364 66.9346 382.041 55.7495 387.103C56.9416 399.319 61.8277 409.15 68.4357 416.994V417.009ZM57.1182 352.268C49.0532 350.59 40.8557 347.323 32.6729 342.466C30.5536 341.215 28.5521 339.92 26.6536 338.61C26.8302 340.906 26.9626 343.29 26.9921 345.748C27.1099 355.27 25.8294 363.997 23.2539 371.812C31.1129 378.42 40.9293 383.306 53.1592 384.498C58.2367 373.313 58.9137 362.364 57.1182 352.268ZM30.3624 300.552C33.2322 303.26 38.3832 308.499 43.6961 315.622C53.645 316.638 65.5806 316.52 77.0599 313.061C68.8478 304.319 58.5605 298.256 49.4358 294.164C41.2678 297.682 34.1888 299.639 30.3476 300.552H30.3624ZM30.3624 284.289C34.2036 285.202 41.2825 287.159 49.4506 290.676C58.5752 286.585 68.8625 280.522 77.0747 271.78C65.5953 268.321 53.645 268.203 43.6961 269.219C38.3832 276.357 33.2322 281.581 30.3624 284.289ZM22.2238 270.205C26.006 269.072 33.1144 267.232 41.9448 266.187C47.8022 258.078 53.6744 247.688 56.4117 236.002C44.741 238.739 34.336 244.612 26.2268 250.469C25.1967 259.299 23.3422 266.408 22.209 270.19L22.2238 270.205ZM1.73743 242.978C5.25482 251.146 7.21222 258.225 8.12469 262.066C10.8326 259.196 16.072 254.031 23.1951 248.732C24.2106 238.784 24.0928 226.848 20.6343 215.369C11.8923 223.581 5.81409 233.868 1.73743 242.993V242.978ZM2.82648 184.345C11.5979 190.923 18.0882 199.503 22.106 209.85C30.5389 203.08 40.164 198.9 50.7162 197.487L15.8659 162.652C14.5561 175.043 6.69714 181.755 2.81177 184.345H2.82648ZM18.0883 160.444L52.9091 195.25C54.3366 184.713 58.5164 175.102 65.2715 166.684C54.9254 162.666 46.3305 156.191 39.752 147.419C37.1617 151.29 30.4654 159.134 18.0883 160.444ZM39.752 141.753C46.3305 132.967 54.9254 126.491 65.2715 122.459C58.5016 114.041 54.3219 104.416 52.9091 93.8635L18.0735 128.714C30.4359 130.024 37.147 137.853 39.752 141.738V141.753ZM2.79706 104.813C6.66766 107.389 14.5414 114.085 15.8512 126.506L50.6868 91.6559C40.1346 90.2283 30.5242 86.0634 22.106 79.2935C18.0882 89.6397 11.5832 98.2345 2.79706 104.813ZM8.12469 27.0916C7.21222 30.9328 5.25482 38.0118 1.73743 46.1798C5.8288 55.3045 11.8923 65.5918 20.6343 73.804C24.0928 62.3246 24.2106 50.3889 23.1951 40.4401C16.0573 35.1272 10.8326 29.9762 8.12469 27.1063V27.0916ZM41.9448 22.9561C33.1144 21.9259 26.006 20.0715 22.2238 18.9383C23.357 22.7206 25.1966 29.829 26.2415 38.6593C34.3507 44.5168 44.741 50.3889 56.4265 53.1263C53.6891 41.4556 47.817 31.0505 41.9595 22.9414L41.9448 22.9561ZM79.3853 19.9832C71.8942 22.4557 63.5496 23.7214 54.4838 23.7214C54.0864 23.7214 53.6891 23.7214 53.3065 23.7214C50.8487 23.6919 48.4645 23.5742 46.1686 23.3829C47.4785 25.2814 48.7736 27.2829 50.0245 29.4022C54.8812 37.5997 58.1484 45.7824 59.8262 53.8475C69.9368 55.6282 80.8864 54.9512 92.0715 49.8885C90.8794 37.6733 85.9933 27.8422 79.3853 19.9979V19.9832ZM94.6765 52.4935C89.599 63.6785 88.922 74.6281 90.7175 84.7241C98.7825 86.4019 106.98 89.6691 115.163 94.5258C117.282 95.7767 119.284 97.0718 121.182 98.3817C121.005 96.0858 120.873 93.7016 120.844 91.2438C120.726 81.7218 122.006 72.9945 124.582 65.1797C116.723 58.5717 106.906 53.6856 94.6765 52.4935ZM131.97 14.7733L97.1342 49.6236C107.686 51.0512 117.297 55.2162 125.715 61.9861C129.733 51.6399 136.238 43.045 145.024 36.4665C141.153 33.8762 133.28 27.1652 131.97 14.7733ZM147.85 38.2472C137.857 45.3998 131.808 54.5392 128.29 64.1789C134.442 69.6684 139.902 76.5855 144.568 84.9007C145.775 87.0494 146.864 89.1687 147.85 91.2585C148.836 89.1687 149.925 87.0494 151.132 84.9007C155.797 76.6002 161.257 69.6684 167.394 64.1789C163.891 54.5392 157.828 45.3998 147.835 38.2472H147.85ZM163.715 14.7733C162.405 27.1652 154.546 33.8762 150.661 36.4665C159.447 43.045 165.937 51.6399 169.97 61.9861C178.402 55.2162 188.028 51.0365 198.58 49.6236L163.715 14.7733ZM171.103 65.1797C173.678 72.9945 174.959 81.7218 174.841 91.2438C174.811 93.7016 174.694 96.0858 174.502 98.3817C176.401 97.0718 178.403 95.7767 180.522 94.5258C188.719 89.6691 196.902 86.4019 204.967 84.7241C206.748 74.6281 206.071 63.6785 201.008 52.4935C188.778 53.6856 178.962 58.5864 171.103 65.1797ZM242.378 23.7067C232.856 23.8244 224.129 22.544 216.314 19.9685C209.706 27.8275 204.82 37.6586 203.628 49.8738C214.813 54.9512 225.762 55.6282 235.858 53.8327C237.536 45.7677 240.803 37.5703 245.66 29.3875C246.911 27.2682 248.206 25.2667 249.516 23.3682C247.22 23.5448 244.836 23.6772 242.378 23.7067ZM273.476 18.953C269.693 20.0862 262.585 21.9406 253.754 22.9708C247.897 31.08 242.025 41.4703 239.288 53.1557C250.958 50.4184 261.363 44.5462 269.472 38.6888C270.503 29.8584 272.357 22.75 273.49 18.9677L273.476 18.953ZM287.575 27.0916C284.867 29.9615 279.627 35.1125 272.504 40.4254C271.489 50.3742 271.606 62.3098 275.065 73.7892C283.807 65.577 289.87 55.2897 293.962 46.1651C290.444 37.9971 288.487 30.9181 287.575 27.0769V27.0916ZM295.713 50.0357C294.727 52.1255 293.638 54.2448 292.431 56.3935C287.766 64.694 282.306 71.6258 276.169 77.1153C279.671 86.7551 285.735 95.8944 295.728 103.047C305.706 95.8797 311.755 86.7404 315.258 77.1153C309.106 71.6258 303.646 64.7087 298.98 56.3935C297.788 54.2595 296.699 52.155 295.713 50.0799V50.0357ZM303.822 27.0916C302.91 30.9328 300.953 38.0118 297.435 46.1798C301.526 55.3045 307.59 65.5918 316.332 73.804C319.791 62.3246 319.908 50.3889 318.893 40.4401C311.755 35.1272 306.53 29.9762 303.822 27.1063V27.0916ZM337.642 22.9561C328.812 21.9259 321.704 20.0715 317.921 18.9383C319.055 22.7206 320.894 29.829 321.939 38.6593C330.048 44.5168 340.439 50.3889 352.124 53.1263C349.387 41.4556 343.515 31.0505 337.657 22.9414L337.642 22.9561ZM375.098 19.9832C367.607 22.4557 359.262 23.7214 350.196 23.7214C349.799 23.7214 349.401 23.7214 349.019 23.7214C346.561 23.6919 344.177 23.5742 341.881 23.3829C343.191 25.2814 344.486 27.2829 345.737 29.4022C350.594 37.5997 353.861 45.7824 355.539 53.8475C365.649 55.6282 376.599 54.9512 387.784 49.8885C386.592 37.6733 381.706 27.8422 375.098 19.9979V19.9832ZM390.389 52.4935C385.311 63.6785 384.634 74.6281 386.43 84.7241C394.495 86.4019 402.692 89.6691 410.875 94.5258C412.994 95.7767 414.996 97.0718 416.894 98.3817C416.718 96.0858 416.585 93.7016 416.556 91.2438C416.438 81.7218 417.719 72.9945 420.294 65.1797C412.435 58.5717 402.619 53.6856 390.389 52.4935ZM427.682 14.7733L392.847 49.6236C403.399 51.0512 413.009 55.2162 421.427 61.9861C425.445 51.6399 431.95 43.045 440.736 36.4665C436.866 33.8762 428.992 27.1652 427.682 14.7733ZM443.547 38.2472C433.554 45.3998 427.506 54.5392 423.988 64.1789C430.14 69.6684 435.6 76.5855 440.265 84.9007C441.472 87.0494 442.561 89.1687 443.547 91.2585C444.533 89.1687 445.622 87.0494 446.829 84.9007C451.495 76.6002 456.955 69.6684 463.092 64.1789C459.589 54.5392 453.526 45.3998 443.533 38.2472H443.547ZM459.427 14.7733C458.117 27.1652 450.258 33.8762 446.373 36.4665C455.159 43.045 461.649 51.6399 465.682 61.9861C474.115 55.2162 483.74 51.0365 494.292 49.6236L459.427 14.7733ZM466.8 65.1797C469.376 72.9945 470.656 81.7218 470.539 91.2438C470.509 93.7016 470.391 96.0858 470.2 98.3817C472.099 97.0718 474.1 95.7767 476.219 94.5258C484.417 89.6691 492.6 86.4019 500.665 84.7241C502.445 74.6281 501.769 63.6785 496.706 52.4935C484.476 53.6856 474.659 58.5864 466.8 65.1797ZM538.091 23.7067C528.569 23.8244 519.841 22.544 512.026 19.9685C505.418 27.8275 500.532 37.6586 499.34 49.8738C510.525 54.9512 521.475 55.6282 531.571 53.8327C533.249 45.7677 536.516 37.5703 541.372 29.3875C542.623 27.2682 543.919 25.2667 545.228 23.3682C542.932 23.5448 540.548 23.6772 538.091 23.7067ZM569.173 18.953C565.391 20.0862 558.283 21.9406 549.452 22.9708C543.595 31.08 537.723 41.4703 534.985 53.1557C546.656 50.4184 557.061 44.5462 565.17 38.6888C566.2 29.8584 568.055 22.75 569.188 18.9677L569.173 18.953ZM583.272 27.0916C580.564 29.9615 575.325 35.1125 568.202 40.4254C567.186 50.3742 567.304 62.3098 570.763 73.7892C579.505 65.577 585.568 55.2897 589.66 46.1651C586.142 37.9971 584.185 30.9181 583.272 27.0769V27.0916ZM588.129 56.3935C583.464 64.694 578.004 71.6258 571.866 77.1153C575.369 86.7404 581.418 95.8797 591.381 103.018C601.345 95.8797 607.394 86.7404 610.896 77.1153C604.745 71.6258 599.285 64.7087 594.619 56.3935C593.427 54.2743 592.368 52.1844 591.381 50.124C590.395 52.1844 589.321 54.2743 588.144 56.3935H588.129ZM599.461 27.0916C598.549 30.9328 596.591 38.0118 593.074 46.1798C597.165 55.3045 603.229 65.5918 611.971 73.804C615.429 62.3246 615.547 50.3889 614.532 40.4401C607.394 35.1272 602.169 29.9762 599.461 27.1063V27.0916ZM633.281 22.9561C624.451 21.9259 617.343 20.0715 613.56 18.9383C614.693 22.7206 616.533 29.829 617.578 38.6593C625.687 44.5168 636.078 50.3889 647.763 53.1263C645.026 41.4556 639.153 31.0505 633.296 22.9414L633.281 22.9561ZM644.481 88.8008C649.558 77.6157 650.235 66.6661 648.44 56.5701C640.375 54.8924 632.177 51.6252 623.995 46.7685C621.875 45.5175 619.874 44.2224 617.975 42.9126C618.152 45.2085 618.284 47.5927 618.314 50.0504C618.432 59.5724 617.151 68.2997 614.576 76.1146C622.435 82.7226 632.251 87.6087 644.481 88.8008ZM642.038 91.6559C631.486 90.2283 621.875 86.0634 613.457 79.2935C609.439 89.6397 602.934 98.2345 594.148 104.813C598.019 107.389 605.893 114.085 607.202 126.506L642.038 91.6559ZM629.131 144.697L629.043 144.579L629.102 144.491C627.35 141.577 620.301 131.672 605.819 131.672H604.259V130.112C604.259 115.409 594.281 108.492 591.411 106.815V106.873L591.367 106.844H591.337V106.829H591.308C588.394 108.522 578.46 115.424 578.46 130.082V131.643H576.9C562.241 131.643 555.324 141.577 553.617 144.491L553.676 144.579L553.617 144.667C555.324 147.581 562.241 157.486 576.9 157.486H578.46V159.046C578.46 173.704 588.394 180.636 591.308 182.343H591.337V182.299H591.367H591.411V182.358H591.44C594.325 180.636 604.288 173.601 604.288 159.075V157.515H605.848C620.507 157.515 627.409 147.611 629.131 144.697ZM607.217 162.652C605.907 175.043 598.048 181.755 594.163 184.345C602.934 190.923 609.425 199.503 613.443 209.85C621.875 203.08 631.5 198.9 642.053 197.487L607.202 162.652H607.217ZM644.481 200.357C632.251 201.549 622.435 206.45 614.576 213.043C617.151 220.858 618.432 229.585 618.314 239.107C618.284 241.565 618.167 243.949 617.975 246.245C619.874 244.935 621.875 243.64 623.995 242.389C632.192 237.533 640.375 234.265 648.44 232.588C650.221 222.492 649.544 211.542 644.481 200.357ZM647.748 236.002C636.078 238.739 625.672 244.612 617.563 250.469C616.533 259.299 614.679 266.408 613.546 270.19C617.328 269.057 624.436 267.217 633.267 266.172C639.124 258.063 644.996 247.673 647.734 235.987L647.748 236.002ZM617.372 300.861L614.841 298.712L618.108 298.123C618.329 298.079 626.32 296.563 636.652 292.413H636.593C626.276 288.277 618.314 286.762 618.093 286.717L614.826 286.129L617.357 283.98C617.534 283.833 623.7 278.52 630.573 269.763C619.55 271.323 611.868 274.017 611.647 274.09L608.527 275.209L609.645 272.089C609.719 271.883 612.412 264.2 613.972 253.162C605.201 260.035 599.888 266.202 599.756 266.378L597.607 268.91L597.018 265.642C596.974 265.422 595.473 257.489 591.352 247.202C587.231 257.489 585.715 265.422 585.686 265.642L585.097 268.91L582.949 266.378C582.801 266.202 577.488 260.035 568.732 253.162C570.292 264.185 572.985 271.868 573.059 272.089L574.177 275.209L571.057 274.09C570.851 274.017 563.169 271.323 552.131 269.763C559.004 278.535 565.17 283.848 565.347 283.98L567.878 286.129L564.611 286.717C564.39 286.762 556.413 288.263 546.082 292.413H546.053C556.384 296.563 564.375 298.079 564.596 298.123L567.863 298.712L565.332 300.861C565.155 301.008 558.989 306.321 552.116 315.077C563.139 313.517 570.822 310.824 571.042 310.751L574.162 309.632L573.044 312.752C572.97 312.958 570.277 320.641 568.717 331.678C577.488 324.806 582.801 318.639 582.934 318.462L585.082 315.931L585.671 319.198C585.715 319.419 587.216 327.352 591.337 337.639C595.458 327.352 596.974 319.419 597.003 319.198L597.592 315.931L599.741 318.462C599.888 318.639 605.201 324.806 613.958 331.664C612.398 320.641 609.704 312.958 609.631 312.737L608.512 309.617L611.632 310.736C611.838 310.81 619.521 313.503 630.559 315.063C623.686 306.291 617.519 300.978 617.343 300.846L617.372 300.861ZM633.281 318.668C624.451 317.638 617.343 315.784 613.56 314.651C614.693 318.433 616.533 325.541 617.578 334.372C625.687 340.229 636.078 346.101 647.763 348.839C645.026 337.168 639.153 326.763 633.296 318.654L633.281 318.668ZM644.481 384.498C649.558 373.313 650.235 362.364 648.44 352.268C640.375 350.59 632.177 347.323 623.995 342.466C621.875 341.215 619.874 339.92 617.975 338.61C618.152 340.906 618.284 343.29 618.314 345.748C618.432 355.27 617.151 363.997 614.576 371.812C622.435 378.42 632.251 383.306 644.481 384.498ZM642.038 387.354C631.486 385.926 621.875 381.761 613.457 374.991C609.439 385.337 602.934 393.932 594.148 400.511C598.019 403.086 605.893 409.783 607.202 422.204L642.038 387.354ZM629.131 440.394L629.043 440.277L629.102 440.188C627.35 437.274 620.301 427.37 605.819 427.37H604.259V425.81C604.259 411.107 594.281 404.19 591.411 402.512V402.571L591.367 402.542H591.337V402.527H591.308C588.394 404.22 578.46 411.122 578.46 425.78V427.34H576.9C562.241 427.34 555.324 437.274 553.617 440.188L553.676 440.277L553.617 440.365C555.324 443.279 562.241 453.184 576.9 453.184H578.46V454.744C578.46 469.402 588.394 476.334 591.308 478.041H591.337V477.997H591.367H591.411V478.056H591.44C594.325 476.334 604.288 469.299 604.288 454.773V453.213H605.848C620.507 453.213 627.409 443.308 629.131 440.394ZM607.217 458.364C605.907 470.756 598.048 477.467 594.163 480.057C602.934 486.636 609.425 495.216 613.443 505.562C621.875 498.792 631.5 494.612 642.053 493.2L607.202 458.364H607.217ZM644.481 496.055C632.251 497.247 622.435 502.148 614.576 508.741C617.151 516.556 618.432 525.283 618.314 534.805C618.284 537.263 618.167 539.647 617.975 541.943C619.874 540.633 621.875 539.338 623.995 538.087C632.192 533.23 640.375 529.963 648.44 528.285C650.221 518.189 649.544 507.24 644.481 496.055ZM613.56 565.902C617.343 564.769 624.451 562.93 633.281 561.885C639.139 553.776 645.011 543.385 647.748 531.7C636.078 534.437 625.672 540.309 617.563 546.167C616.533 554.997 614.679 562.105 613.546 565.888L613.56 565.902ZM599.461 557.764C602.169 554.894 607.408 549.743 614.532 544.43C615.547 534.481 615.429 522.546 611.971 511.066C603.229 519.278 597.151 529.566 593.074 538.69C596.591 546.858 598.549 553.937 599.461 557.779V557.764ZM594.605 528.462C599.27 520.161 604.73 513.23 610.882 507.74C607.379 498.115 601.33 488.976 591.367 481.838C581.403 488.976 575.354 498.115 571.852 507.74C578.004 513.23 583.464 520.147 588.129 528.462C589.321 530.581 590.381 532.671 591.367 534.732C592.353 532.671 593.427 530.581 594.605 528.462ZM583.272 557.764C584.185 553.923 586.142 546.844 589.66 538.676C585.568 529.551 579.505 519.264 570.763 511.052C567.304 522.531 567.186 534.467 568.202 544.415C575.34 549.728 580.564 554.879 583.272 557.749V557.764ZM569.173 565.902C568.04 562.12 566.186 555.012 565.155 546.181C557.046 540.324 546.656 534.452 534.97 531.714C537.708 543.385 543.58 553.79 549.437 561.899C558.268 562.93 565.376 564.784 569.159 565.917L569.173 565.902ZM541.946 586.389C550.114 582.871 557.193 580.914 561.035 580.002C558.165 577.294 553.014 572.054 547.701 564.931C537.752 563.916 525.816 564.033 514.337 567.492C522.549 576.234 532.836 582.297 541.961 586.389H541.946ZM512.012 564.872C519.826 562.297 528.554 561.016 538.091 561.149C540.548 561.178 542.932 561.296 545.228 561.487C543.919 559.589 542.623 557.587 541.372 555.468C536.516 547.271 533.249 539.088 531.571 531.023C521.475 529.242 510.525 529.919 499.34 534.982C500.532 547.197 505.418 557.028 512.026 564.887L512.012 564.872ZM483.313 585.314C489.892 576.528 498.472 570.023 508.818 566.005C502.063 557.587 497.898 547.977 496.47 537.439L461.635 572.29C473.997 573.6 480.708 581.429 483.313 585.314ZM459.427 570.067L494.263 535.217C483.711 533.79 474.1 529.625 465.682 522.855C461.664 533.201 455.159 541.796 446.373 548.374C450.244 550.95 458.117 557.646 459.427 570.067ZM443.547 546.608C453.54 539.456 459.589 530.316 463.106 520.677C456.955 515.187 451.495 508.27 446.844 499.955C445.637 497.806 444.548 495.687 443.562 493.597C442.576 495.687 441.487 497.806 440.28 499.955C435.615 508.255 430.155 515.187 424.003 520.677C427.506 530.316 433.569 539.456 443.562 546.608H443.547ZM440.751 548.389C431.95 541.81 425.445 533.216 421.427 522.855C413.009 529.61 403.399 533.79 392.847 535.217L427.697 570.053C429.007 557.676 436.88 550.979 440.751 548.404V548.389ZM403.811 585.329C406.401 581.444 413.097 573.57 425.504 572.26L390.639 537.41C389.211 547.948 385.047 557.558 378.291 565.976C388.652 570.009 397.247 576.514 403.826 585.314L403.811 585.329ZM375.083 564.872C381.676 557.013 386.562 547.197 387.769 534.967C376.584 529.89 365.635 529.213 355.524 531.008C353.846 539.073 350.579 547.271 345.722 555.453C344.471 557.573 343.176 559.574 341.866 561.473C344.162 561.296 346.546 561.164 349.004 561.134C358.541 561.016 367.268 562.282 375.083 564.858V564.872ZM326.06 580.002C329.901 580.914 336.98 582.871 345.148 586.389C354.273 582.297 364.56 576.234 372.772 567.492C361.293 564.033 349.343 563.916 339.394 564.931C334.081 572.069 328.93 577.294 326.06 580.002ZM317.921 565.902C321.704 564.769 328.812 562.93 337.642 561.885C343.5 553.776 349.372 543.385 352.109 531.7C340.439 534.437 330.034 540.309 321.924 546.167C320.894 554.997 319.04 562.105 317.907 565.888L317.921 565.902ZM303.822 557.764C306.53 554.894 311.77 549.743 318.893 544.43C319.908 534.481 319.791 522.546 316.332 511.066C307.59 519.278 301.512 529.566 297.435 538.69C300.953 546.858 302.91 553.937 303.822 557.779V557.764ZM298.966 528.462C303.631 520.161 309.091 513.23 315.243 507.74C311.74 498.1 305.677 488.961 295.713 481.823C285.72 488.961 279.671 498.1 276.154 507.74C282.306 513.23 287.766 520.147 292.431 528.462C293.638 530.611 294.727 532.73 295.713 534.82V534.776C296.699 532.701 297.788 530.596 298.98 528.462H298.966ZM287.575 557.764C288.487 553.923 290.444 546.844 293.962 538.676C289.87 529.551 283.807 519.264 275.065 511.052C271.606 522.531 271.489 534.467 272.504 544.415C279.642 549.728 284.867 554.879 287.575 557.749V557.764ZM273.476 565.902C272.342 562.12 270.488 555.012 269.458 546.181C261.349 540.324 250.958 534.452 239.273 531.714C242.01 543.385 247.882 553.79 253.74 561.899C262.57 562.93 269.678 564.784 273.461 565.917L273.476 565.902ZM246.249 586.389C254.417 582.871 261.496 580.914 265.337 580.002C262.467 577.294 257.316 572.054 252.003 564.931C242.054 563.916 230.119 564.033 218.639 567.492C226.852 576.234 237.139 582.297 246.263 586.389H246.249ZM216.299 564.872C224.114 562.297 232.841 561.016 242.378 561.149C244.836 561.178 247.22 561.296 249.516 561.487C248.206 559.589 246.911 557.587 245.66 555.468C240.803 547.271 237.536 539.088 235.858 531.023C225.762 529.242 214.813 529.919 203.628 534.982C204.82 547.197 209.706 557.028 216.314 564.887L216.299 564.872ZM187.601 585.314C194.179 576.528 202.759 570.023 213.106 566.005C206.35 557.587 202.185 547.977 200.758 537.439L165.922 572.29C178.285 573.6 184.996 581.429 187.601 585.314ZM163.715 570.067L198.55 535.217C187.998 533.79 178.388 529.625 169.97 522.855C165.952 533.201 159.447 541.796 150.661 548.374C154.531 550.95 162.405 557.646 163.715 570.067ZM147.85 546.608C157.843 539.456 163.891 530.316 167.409 520.677C161.257 515.187 155.797 508.27 151.146 499.955C149.939 497.806 148.85 495.687 147.864 493.597C146.878 495.687 145.789 497.806 144.582 499.955C139.917 508.255 134.457 515.187 128.305 520.677C131.808 530.316 137.871 539.456 147.864 546.608H147.85ZM145.039 548.389C136.238 541.81 129.733 533.216 125.715 522.855C117.297 529.61 107.686 533.79 97.1342 535.217L131.984 570.053C133.294 557.676 141.168 550.979 145.039 548.404V548.389ZM108.099 585.329C110.689 581.444 117.385 573.57 129.792 572.26L94.9266 537.41C93.4991 547.948 89.3341 557.558 82.5789 565.976C92.9398 570.009 101.535 576.514 108.113 585.314L108.099 585.329ZM79.3853 564.872C85.9786 557.013 90.8647 547.197 92.0715 534.967C80.8864 529.89 69.9368 529.213 59.8262 531.008C58.1484 539.073 54.8812 547.271 50.0245 555.453C48.7736 557.573 47.4785 559.574 46.1686 561.473C48.4645 561.296 50.8487 561.164 53.3065 561.134C62.8432 561.016 71.5705 562.282 79.3853 564.858V564.872ZM30.3624 580.002C34.2036 580.914 41.2825 582.871 49.4506 586.389C58.5752 582.297 68.8625 576.234 77.0747 567.492C65.5953 564.033 53.645 563.916 43.6961 564.931C38.3832 572.069 33.2322 577.294 30.3624 580.002ZM22.2238 565.902C26.006 564.769 33.1144 562.93 41.9448 561.885C47.8022 553.776 53.6744 543.385 56.4117 531.7C44.741 534.437 34.336 540.309 26.2268 546.167C25.1967 554.997 23.3422 562.105 22.209 565.888L22.2238 565.902ZM1.73743 538.676C5.25482 546.844 7.21222 553.923 8.12469 557.764C10.8326 554.894 16.072 549.743 23.1951 544.43C24.2106 534.481 24.0928 522.546 20.6343 511.066C11.8923 519.278 5.81409 529.566 1.73743 538.69V538.676ZM2.82648 480.057C11.5979 486.636 18.0882 495.216 22.106 505.562C30.5389 498.792 40.164 494.612 50.7162 493.2L15.8659 458.364C14.5561 470.756 6.69714 477.467 2.81177 480.057H2.82648ZM18.0883 456.156L52.9091 490.963C54.3366 480.425 58.5164 470.815 65.2715 462.411C54.9254 458.393 46.3305 451.918 39.752 443.146C37.1617 447.017 30.4654 454.861 18.0883 456.171V456.156ZM39.752 437.451C46.3305 428.665 54.9254 422.189 65.2715 418.157C58.5016 409.738 54.3219 400.113 52.9091 389.561L18.0735 424.411C30.4359 425.721 37.147 433.551 39.752 437.436V437.451ZM2.79706 400.525C6.66766 403.101 14.5414 409.797 15.8512 422.219L50.6868 387.368C40.1346 385.941 30.5242 381.776 22.106 375.006C18.0882 385.352 11.5832 393.947 2.79706 400.525ZM20.6343 369.502C24.0928 358.022 24.2106 346.087 23.1951 336.138C16.0573 330.825 10.8326 325.674 8.12469 322.804C7.21222 326.645 5.25482 333.724 1.73743 341.892C5.8288 351.017 11.8923 361.304 20.6343 369.516V369.502Z" fill="url(#paint0_linear_22089_49360)"/>
  <defs>
    <linearGradient id="paint0_linear_22089_49360" x1="33.4677" y1="614.896" x2="679.508" y2="-68.7467" gradientUnits="userSpaceOnUse">
      <stop stop-color="#D9F2F1" stop-opacity="0"/>
      <stop offset="1" stop-color="#D9F2F1"/>
    </linearGradient>
  </defs>
</svg>