<svg xmlns="http://www.w3.org/2000/svg" width="134" height="43" viewBox="0 0 134 43" fill="none">
  <mask id="mask0_22228_9370" style="mask-type:luminance" maskUnits="userSpaceOnUse" x="113" y="7" width="3" height="3">
    <path d="M113.449 8.47801C113.449 9.12321 113.972 9.64743 114.619 9.64743C115.266 9.64743 115.788 9.12496 115.788 8.47801C115.788 7.83106 115.266 7.30859 114.619 7.30859C113.973 7.30859 113.449 7.83106 113.449 8.47801Z" fill="white"/>
  </mask>
  <g mask="url(#mask0_22228_9370)">
    <path d="M112.295 8.66164L114.436 6.15625L116.943 8.29697L114.8 10.8006L112.295 8.66164Z" fill="url(#paint0_linear_22228_9370)"/>
  </g>
  <mask id="mask1_22228_9370" style="mask-type:luminance" maskUnits="userSpaceOnUse" x="129" y="16" width="3" height="3">
    <path d="M129.11 17.6108C129.11 18.256 129.633 18.7802 130.28 18.7802C130.927 18.7802 131.449 18.2578 131.449 17.6108C131.449 16.9639 130.927 16.4414 130.28 16.4414C129.635 16.4414 129.11 16.9656 129.11 17.6108Z" fill="white"/>
  </mask>
  <g mask="url(#mask1_22228_9370)">
    <path d="M127.957 17.7927L130.098 15.2891L132.601 17.428L130.462 19.9334L127.957 17.7927Z" fill="url(#paint1_linear_22228_9370)"/>
  </g>
  <mask id="mask2_22228_9370" style="mask-type:luminance" maskUnits="userSpaceOnUse" x="125" y="6" width="4" height="4">
    <path d="M125.924 8.00145C125.924 8.64664 126.446 9.17086 127.093 9.17086C127.74 9.17086 128.263 8.6484 128.263 8.00145C128.263 7.3545 127.74 6.83203 127.093 6.83203C126.446 6.83203 125.924 7.3545 125.924 8.00145Z" fill="white"/>
  </mask>
  <g mask="url(#mask2_22228_9370)">
    <path d="M124.768 8.18508L126.907 5.67969L129.414 7.81865L127.273 10.3258L124.768 8.18508Z" fill="url(#paint2_linear_22228_9370)"/>
  </g>
  <mask id="mask3_22228_9370" style="mask-type:luminance" maskUnits="userSpaceOnUse" x="107" y="32" width="3" height="4">
    <path d="M107.216 33.9194C107.216 34.5646 107.738 35.0888 108.385 35.0888C109.032 35.0888 109.555 34.5664 109.555 33.9194C109.555 33.2725 109.032 32.75 108.385 32.75C107.738 32.75 107.216 33.2742 107.216 33.9194Z" fill="white"/>
  </mask>
  <g mask="url(#mask3_22228_9370)">
    <path d="M106.062 34.103L108.201 31.5977L110.707 33.7366L108.566 36.242L106.062 34.103Z" fill="url(#paint3_linear_22228_9370)"/>
  </g>
  <mask id="mask4_22228_9370" style="mask-type:luminance" maskUnits="userSpaceOnUse" x="100" y="7" width="4" height="4">
    <path d="M100.86 9.06785C100.86 9.71305 101.383 10.2373 102.03 10.2373C102.677 10.2373 103.199 9.7148 103.199 9.06785C103.199 8.42091 102.677 7.89844 102.03 7.89844C101.383 7.89844 100.86 8.42091 100.86 9.06785Z" fill="white"/>
  </mask>
  <g mask="url(#mask4_22228_9370)">
    <path d="M99.707 9.24758L101.848 6.74219L104.351 8.8829L102.212 11.3883L99.707 9.24758Z" fill="url(#paint4_linear_22228_9370)"/>
  </g>
  <mask id="mask5_22228_9370" style="mask-type:luminance" maskUnits="userSpaceOnUse" x="132" y="4" width="2" height="25">
    <path d="M133.901 4.34375H132.943V28.1897H133.901V4.34375Z" fill="white"/>
  </mask>
  <g mask="url(#mask5_22228_9370)">
    <path d="M121.169 18.1303L133.347 3.87109L145.678 14.4011L133.498 28.6603L121.169 18.1303Z" fill="url(#paint5_linear_22228_9370)"/>
  </g>
  <mask id="mask6_22228_9370" style="mask-type:luminance" maskUnits="userSpaceOnUse" x="129" y="29" width="2" height="5">
    <path d="M130.687 29.707H129.729V33.1785H130.687V29.707Z" fill="white"/>
  </mask>
  <g mask="url(#mask6_22228_9370)">
    <path d="M128.017 31.7135L130.135 29.2344L132.401 31.1717L130.284 33.6491L128.017 31.7135Z" fill="url(#paint6_linear_22228_9370)"/>
  </g>
  <mask id="mask7_22228_9370" style="mask-type:luminance" maskUnits="userSpaceOnUse" x="129" y="2" width="2" height="16">
    <path d="M130.759 2.92969H129.802V17.6114H130.759V2.92969Z" fill="white"/>
  </mask>
  <g mask="url(#mask7_22228_9370)">
    <path d="M122.55 11.4179L130.204 2.45703L138.01 9.12464L130.355 18.0855L122.55 11.4179Z" fill="url(#paint7_linear_22228_9370)"/>
  </g>
  <mask id="mask8_22228_9370" style="mask-type:luminance" maskUnits="userSpaceOnUse" x="126" y="1" width="2" height="7">
    <path d="M127.57 1.67578H126.612V7.99975H127.57V1.67578Z" fill="white"/>
  </mask>
  <g mask="url(#mask8_22228_9370)">
    <path d="M123.49 5.33027L127.016 1.20312L130.693 4.34319L127.167 8.47034L123.49 5.33027Z" fill="url(#paint8_linear_22228_9370)"/>
  </g>
  <mask id="mask9_22228_9370" style="mask-type:luminance" maskUnits="userSpaceOnUse" x="123" y="12" width="2" height="4">
    <path d="M124.45 12.4492H123.493V15.2474H124.45V12.4492Z" fill="white"/>
  </mask>
  <g mask="url(#mask9_22228_9370)">
    <path d="M122.111 14.0721L123.896 11.9805L125.832 13.6338L124.047 15.7254L122.111 14.0721Z" fill="url(#paint9_linear_22228_9370)"/>
  </g>
  <mask id="mask10_22228_9370" style="mask-type:luminance" maskUnits="userSpaceOnUse" x="120" y="34" width="2" height="7">
    <path d="M121.573 34.4336H120.616V40.6261H121.573V34.4336Z" fill="white"/>
  </mask>
  <g mask="url(#mask10_22228_9370)">
    <path d="M117.559 38.0144L121.02 33.9609L124.631 37.0467L121.17 41.0984L117.559 38.0144Z" fill="url(#paint10_linear_22228_9370)"/>
  </g>
  <mask id="mask11_22228_9370" style="mask-type:luminance" maskUnits="userSpaceOnUse" x="120" y="0" width="2" height="15">
    <path d="M121.333 0.429688H120.376V14.4978H121.333V0.429688Z" fill="white"/>
  </mask>
  <g mask="url(#mask11_22228_9370)">
    <path d="M113.43 8.56197L120.779 -0.0429688L128.281 6.3634L120.93 14.9701L113.43 8.56197Z" fill="url(#paint11_linear_22228_9370)"/>
  </g>
  <mask id="mask12_22228_9370" style="mask-type:luminance" maskUnits="userSpaceOnUse" x="117" y="0" width="2" height="4">
    <path d="M118.216 0.148438H117.259V3.57779H118.216V0.148438Z" fill="white"/>
  </mask>
  <g mask="url(#mask12_22228_9370)">
    <path d="M115.565 2.13208L117.664 -0.324219L119.91 1.59559L117.813 4.05014L115.565 2.13208Z" fill="url(#paint12_linear_22228_9370)"/>
  </g>
  <mask id="mask13_22228_9370" style="mask-type:luminance" maskUnits="userSpaceOnUse" x="114" y="38" width="2" height="5">
    <path d="M115.099 38.3594H114.142V42.5216H115.099V38.3594Z" fill="white"/>
  </mask>
  <g mask="url(#mask13_22228_9370)">
    <path d="M112.087 40.7656L114.547 37.8867L117.154 40.1151L114.694 42.9939L112.087 40.7656Z" fill="url(#paint13_linear_22228_9370)"/>
  </g>
  <mask id="mask14_22228_9370" style="mask-type:luminance" maskUnits="userSpaceOnUse" x="114" y="8" width="2" height="5">
    <path d="M115.099 8.00781H114.142V12.4541H115.099V8.00781Z" fill="white"/>
  </mask>
  <g mask="url(#mask14_22228_9370)">
    <path d="M111.944 10.5749L114.546 7.53125L117.295 9.8806L114.693 12.9225L111.944 10.5749Z" fill="url(#paint14_linear_22228_9370)"/>
  </g>
  <mask id="mask15_22228_9370" style="mask-type:luminance" maskUnits="userSpaceOnUse" x="111" y="35" width="8" height="7">
    <path d="M111.024 35.4414V40.6223H111.982V36.3987H117.259V41.9828H118.216V35.4414H111.024Z" fill="white"/>
  </mask>
  <g mask="url(#mask15_22228_9370)">
    <path d="M107.793 39.2227L114.057 31.8906L121.447 38.2023L115.183 45.5344L107.793 39.2227Z" fill="url(#paint15_linear_22228_9370)"/>
  </g>
  <mask id="mask16_22228_9370" style="mask-type:luminance" maskUnits="userSpaceOnUse" x="107" y="33" width="2" height="6">
    <path d="M108.864 33.6172H107.907V38.9015H108.864V33.6172Z" fill="white"/>
  </mask>
  <g mask="url(#mask16_22228_9370)">
    <path d="M105.296 36.6721L108.31 33.1445L111.473 35.8463L108.459 39.3738L105.296 36.6721Z" fill="url(#paint16_linear_22228_9370)"/>
  </g>
  <mask id="mask17_22228_9370" style="mask-type:luminance" maskUnits="userSpaceOnUse" x="111" y="0" width="21" height="37">
    <path d="M111.024 0.429688V10.3426L114.405 13.0128L120.213 14.4153L123.066 18.2164H124.163V19.5892L126.26 22.2436H129.036L130.166 23.555L129.157 27.7313L126.613 28.3063V36.3853H127.57V29.0708L129.945 28.5343L131.213 23.3026L129.472 21.2863H126.723L125.121 19.2578V17.2591H123.543L120.772 13.565L114.836 12.1309L111.982 9.87794V0.429688H111.024Z" fill="white"/>
  </mask>
  <g mask="url(#mask17_22228_9370)">
    <path d="M93.2676 21.216L119.54 -9.54297L148.97 15.5951L122.696 46.3541L93.2676 21.216Z" fill="url(#paint17_linear_22228_9370)"/>
  </g>
  <mask id="mask18_22228_9370" style="mask-type:luminance" maskUnits="userSpaceOnUse" x="104" y="0" width="24" height="31">
    <path d="M107.907 0.792969V12.0173L104.127 14.6927L109.04 22.6016L109.108 25.8697L112.255 29.9583L113.461 28.8414L118.628 30.2283L122.543 27.3056L127.594 26.1134L127.983 24.5916L127.007 23.906H125.113L119.163 16.1444L114.208 15.1801L111.536 13.1025L108.419 15.3064L108.971 16.0901L111.51 14.293L113.801 16.076L118.625 17.0158L124.64 24.8616H126.704L126.893 24.9948L126.81 25.3157L122.129 26.4202L118.426 29.1833L113.198 27.7807L112.374 28.5434L110.058 25.5366L109.992 22.3211L105.414 14.9522L108.864 12.5134V0.792969H107.907Z" fill="white"/>
  </mask>
  <g mask="url(#mask18_22228_9370)">
    <path d="M89.5889 17.8102L114.19 -10.9922L142.521 13.2079L117.92 42.0103L89.5889 17.8102Z" fill="url(#paint18_linear_22228_9370)"/>
  </g>
  <mask id="mask19_22228_9370" style="mask-type:luminance" maskUnits="userSpaceOnUse" x="100" y="1" width="25" height="38">
    <path d="M104.788 1.67578V10.4157L102.887 11.7394H100.931V14.9759L106.208 23.4406L106.28 26.8647L111.901 34.1687L114.241 32L119.284 33.3552L123.148 30.6096L123.733 31.0515V38.785H124.691V30.5728L123.162 29.4244L119.098 32.312L113.98 30.9375L112.02 32.7539L107.23 26.5316L107.16 23.1583L101.888 14.7007V12.6967H103.187L105.745 10.9172V1.67578H104.788Z" fill="white"/>
  </mask>
  <g mask="url(#mask19_22228_9370)">
    <path d="M82.6035 23.1322L110.954 -10.0586L143.017 17.3307L114.667 50.5196L82.6035 23.1322Z" fill="url(#paint19_linear_22228_9370)"/>
  </g>
  <mask id="mask20_22228_9370" style="mask-type:luminance" maskUnits="userSpaceOnUse" x="101" y="19" width="5" height="18">
    <path d="M101.55 19.5742V24.6078L104.788 28.209V36.5176H105.745V27.8425L102.507 24.2396V19.5742H101.55Z" fill="white"/>
  </mask>
  <g mask="url(#mask20_22228_9370)">
    <path d="M93.1836 29.3699L103.321 17.5039L114.114 26.7207L103.977 38.5885L93.1836 29.3699Z" fill="url(#paint20_linear_22228_9370)"/>
  </g>
  <mask id="mask21_22228_9370" style="mask-type:luminance" maskUnits="userSpaceOnUse" x="101" y="2" width="2" height="8">
    <path d="M102.507 2.92969H101.55V9.08184H102.507V2.92969Z" fill="white"/>
  </mask>
  <g mask="url(#mask21_22228_9370)">
    <path d="M98.5117 6.486L101.955 2.45703L105.548 5.52522L102.104 9.55594L98.5117 6.486Z" fill="url(#paint21_linear_22228_9370)"/>
  </g>
  <mask id="mask22_22228_9370" style="mask-type:luminance" maskUnits="userSpaceOnUse" x="98" y="4" width="5" height="29">
    <path d="M98.459 4.74609V25.594L101.55 29.0637V32.6981H102.507V28.699L99.4145 25.2293V4.74609H98.459Z" fill="white"/>
  </mask>
  <g mask="url(#mask22_22228_9370)">
    <path d="M84.6533 20.9101L100.166 2.75L116.312 16.5393L100.799 34.7012L84.6533 20.9101Z" fill="url(#paint22_linear_22228_9370)"/>
  </g>
  <mask id="mask23_22228_9370" style="mask-type:luminance" maskUnits="userSpaceOnUse" x="123" y="1" width="5" height="21">
    <path d="M123.493 9.36755L126.614 12.4375L126.612 21.5526H127.569L127.571 12.0377L124.45 8.96781L124.452 1.02734H123.495L123.493 9.36755Z" fill="white"/>
  </mask>
  <g mask="url(#mask23_22228_9370)">
    <path d="M113.356 12.8961L125.214 -0.984375L137.707 9.68765L125.85 23.5664L113.356 12.8961Z" fill="url(#paint23_linear_22228_9370)"/>
  </g>
  <mask id="mask24_22228_9370" style="mask-type:luminance" maskUnits="userSpaceOnUse" x="114" y="0" width="5" height="14">
    <path d="M114.142 0V4.90559L117.259 7.97553V13.4053H118.216V7.57579L115.097 4.5041V0H114.142Z" fill="white"/>
  </mask>
  <g mask="url(#mask24_22228_9370)">
    <path d="M107.52 7.75212L115.86 -2.01172L124.838 5.65699L116.498 15.4208L107.52 7.75212Z" fill="url(#paint24_linear_22228_9370)"/>
  </g>
  <path d="M116.2 25.2561C117.032 24.6705 118.079 23.9657 119.643 23.8342C118.235 23.4345 117.129 24.0639 116.131 24.7406C115.938 23.3082 115.984 21.555 116.019 21.1465C116.375 21.3499 116.806 21.725 117.087 22.763L117.122 22.898L117.146 22.7612C117.355 21.6041 116.566 20.8519 116.538 20.8239C116.571 20.8204 116.78 20.8274 117.08 20.9641C117.357 21.0921 117.772 21.3691 118.181 21.9652L118.268 22.0915L118.237 21.9407C117.932 20.4574 116.719 20.1541 116.648 20.1401C116.668 20.1261 117.057 19.8491 118.209 20.2278L118.316 20.2628L118.244 20.1769C117.536 19.3494 116.468 19.5703 116.352 19.5966V19.5931C116.398 19.4967 116.57 19.2705 116.924 19.0233L117.032 18.9479L116.903 18.9672C116.321 19.0496 116.003 19.3231 115.93 19.4195C115.923 19.2915 115.898 19.0584 115.819 18.8813L115.791 18.8164L115.763 18.8813C115.686 19.0584 115.661 19.2915 115.653 19.4195C115.581 19.3231 115.262 19.0478 114.68 18.9672L114.55 18.9479L114.659 19.0233C115.009 19.2652 115.181 19.4914 115.23 19.5948C115.121 19.5703 114.041 19.3494 113.338 20.1752L113.266 20.2611L113.372 20.226C114.527 19.8456 114.915 20.1243 114.934 20.1384C114.862 20.1559 113.65 20.4592 113.345 21.9389L113.314 22.0897L113.4 21.9635C113.808 21.3674 114.224 21.0921 114.501 20.9624C114.79 20.8291 114.995 20.8221 115.039 20.8221H115.042C115.011 20.8519 114.225 21.6041 114.434 22.7595L114.459 22.8962L114.494 22.7612C114.774 21.7215 115.206 21.3463 115.561 21.1447C115.595 21.555 115.642 23.31 115.449 24.7389C114.453 24.0639 113.347 23.4345 111.938 23.8324C113.501 23.9657 114.546 24.6687 115.381 25.2543C114.902 25.5734 114.438 25.8382 113.964 25.9241C113.957 25.9241 113.952 25.9381 113.959 25.9434C114.583 26.2765 115.128 25.996 115.791 25.5436C116.452 25.996 116.999 26.2765 117.623 25.9434C117.63 25.9381 117.629 25.9258 117.618 25.9241C117.143 25.8382 116.68 25.5734 116.2 25.2543" fill="#263B7E"/>
  <path d="M3.41718 19.2188H2.66504V19.8604H3.41718V19.2188Z" fill="#34414B"/>
  <path d="M2.19843 19.2188H1.44629V19.8604H2.19843V19.2188Z" fill="#34414B"/>
  <path d="M8.62226 14.1289H7.87012V14.7706H8.62226V14.1289Z" fill="#34414B"/>
  <path d="M6.11182 18.4747C5.78221 18.4747 5.54027 18.3765 5.36669 18.1767C5.19488 17.9751 5.10897 17.7015 5.10897 17.3614V15.4504H4.84423C4.21656 15.4504 3.8852 15.7572 3.8852 16.3358V18.473H1.43065C0.936235 18.473 0.571559 18.345 0.343637 18.0925C0.115714 17.8365 0 17.5104 0 17.123V15.5766H0.725845V16.988C0.725845 17.563 1.05896 17.8681 1.68487 17.8681H3.15585V16.2008C3.15585 15.8133 3.27156 15.4854 3.49948 15.2277C3.72565 14.9717 4.09208 14.8438 4.5865 14.8438H5.83481V17.2247C5.83481 17.4543 5.8804 17.6139 5.96981 17.7156C6.06098 17.8155 6.19598 17.8663 6.3678 17.8663H7.88787V15.5749H8.60845V18.473H6.11358L6.11182 18.4747Z" fill="#34414B"/>
  <path d="M10.3753 13.625H9.64941V18.4745H10.3753V13.625Z" fill="#34414B"/>
  <path d="M21.1418 19.2188H20.3896V19.8604H21.1418V19.2188Z" fill="#34414B"/>
  <path d="M19.924 19.2188H19.1719V19.8604H19.924V19.2188Z" fill="#34414B"/>
  <path d="M16.924 19.2188H16.1719V19.8604H16.924V19.2188Z" fill="#34414B"/>
  <path d="M10.7765 19.2597C10.9536 19.2317 11.0991 19.1949 11.2078 19.1475C11.3341 19.0932 11.4323 19.002 11.4954 18.8793C11.5567 18.7565 11.5883 18.5952 11.5883 18.3831V15.5814H12.3141V17.5696L12.3264 17.5871C12.4684 17.7765 12.6928 17.8747 12.9927 17.8747H16.3571C16.5377 17.8747 16.6938 17.8028 16.8217 17.6608C16.948 17.5223 17.0111 17.3364 17.0111 17.1085V15.52H17.7369V17.2417C17.7369 17.3382 17.7264 17.4416 17.7071 17.5468L17.7001 17.5784L17.7212 17.6012C17.8193 17.7081 17.9298 17.7782 18.0543 17.8168C18.1753 17.8536 18.3523 17.8712 18.5978 17.8712H19.3412C19.5217 17.8712 19.6778 17.7993 19.8058 17.6573C19.9303 17.5187 19.9951 17.3329 19.9951 17.105V15.5165H20.721V17.2382C20.721 17.3347 20.7122 17.4381 20.6912 17.5433L20.6842 17.5749L20.7052 17.5976C20.8016 17.7046 20.9138 17.7747 21.0383 17.8133C21.1593 17.8501 21.3364 17.8676 21.5818 17.8676H22.2551V15.5779H22.9809V17.8712H23.421C23.6016 17.8712 23.7576 17.7993 23.8856 17.6573C24.0118 17.5187 24.0749 17.3329 24.0749 17.105V15.5779H24.8008V17.247C24.8008 17.4504 24.8797 17.6082 25.0322 17.7151C25.1795 17.8186 25.3425 17.8694 25.5231 17.8694C25.7037 17.8694 25.8545 17.8045 25.9719 17.6748C26.0877 17.5486 26.1473 17.3557 26.1473 17.105V15.3202H26.8731V17.2382C26.8731 17.3101 26.8608 17.4118 26.8381 17.538L26.831 17.5696L26.8521 17.5924C26.952 17.7028 27.066 17.7765 27.1869 17.8133C27.3062 17.8501 27.4832 17.8694 27.7322 17.8694H29.6134V13.6914H30.334V18.476H27.7322C27.4832 18.4708 27.2799 18.4375 27.1326 18.3708C26.9853 18.306 26.8433 18.1885 26.7083 18.0184L26.6575 17.9553L26.6084 18.0202C26.5014 18.1604 26.3629 18.2744 26.1964 18.355C26.0298 18.4357 25.8422 18.4778 25.6406 18.4778C25.3723 18.4778 25.1602 18.4445 25.0042 18.3796C24.8499 18.3147 24.7166 18.2183 24.6097 18.0921L24.5623 18.0342L24.515 18.0921C24.2994 18.3515 24.0241 18.4778 23.6734 18.4778H21.5766C21.3311 18.4725 21.1312 18.4392 20.9857 18.3761C20.8419 18.3147 20.7017 18.199 20.5719 18.0377L20.5193 17.9746L20.472 18.0412C20.3738 18.178 20.2458 18.2867 20.0968 18.3621C19.946 18.4374 19.776 18.476 19.5919 18.476H18.5101L18.4926 18.4708C18.2857 18.4585 18.1209 18.4252 18.0017 18.3726C17.8579 18.3112 17.7194 18.1955 17.5879 18.0342L17.5353 17.9711L17.488 18.0377C17.3898 18.1745 17.2618 18.2832 17.111 18.3586C16.9603 18.4339 16.7902 18.4725 16.6061 18.4725H12.9856H12.9628C12.7823 18.4673 12.5929 18.4076 12.4036 18.2954L12.3071 18.2376V18.348C12.3071 18.8635 12.1897 19.2404 11.9565 19.4771C11.7426 19.6928 11.2622 19.9225 10.7695 19.9417V19.258H10.7765V19.2597Z" fill="#34414B"/>
  <path d="M32.2346 13.6914H31.5088V18.476H32.2346V13.6914Z" fill="#34414B"/>
  <path d="M35.7521 14.4141H35V15.0558H35.7521V14.4141Z" fill="#34414B"/>
  <path d="M35.289 19.5604C34.7946 19.5604 34.4282 19.4324 34.202 19.1799C33.9741 18.9239 33.8584 18.5978 33.8584 18.2104V17.0848H34.5842V18.0754C34.5842 18.6627 34.9068 18.9608 35.545 18.9608H36.3217V15.577H37.0476V17.8685H38.7009V15.6278C39.197 15.5542 39.5845 15.5156 39.851 15.5156C40.1683 15.5156 40.4506 15.5805 40.6891 15.7085C40.9275 15.8365 41.1151 16.0153 41.2466 16.2415C41.3781 16.4694 41.4465 16.7254 41.4465 17.0059C41.4465 17.3706 41.3307 17.8632 41.0993 18.4734H37.0476V19.5586H35.2873L35.289 19.5604ZM39.8808 16.1223C39.7528 16.1223 39.6178 16.138 39.4776 16.1661L39.4267 16.1766V17.8702H40.5488L40.5628 17.8247C40.6452 17.5406 40.6873 17.2689 40.6873 17.0199C40.6873 16.4326 40.4103 16.1223 39.8826 16.1223" fill="#34414B"/>
  <path d="M45.9947 18.4751C45.6475 18.4751 45.3898 18.3612 45.2092 18.128L45.1707 18.0789L45.1216 18.1157C44.7972 18.3542 44.4325 18.4751 44.0381 18.4751H42.2988L42.3164 17.8703H43.2123V15.2246H43.9329V17.8632C43.9329 17.8632 44.1012 17.8668 44.1485 17.8668C44.4501 17.8668 44.6394 17.8334 44.969 17.6423L45.0023 17.6231L44.9988 17.5827C44.9918 17.4881 44.9866 17.4144 44.9866 17.3636V13.6484H45.7124V17.2286C45.7124 17.4582 45.758 17.6178 45.8492 17.7195C45.9403 17.8212 46.0753 17.8703 46.2471 17.8703H47.0414V13.6484H47.762V18.4734H45.9929L45.9947 18.4751Z" fill="#34414B"/>
  <path d="M54.4133 19.2188H53.6611V19.8604H54.4133V19.2188Z" fill="#34414B"/>
  <path d="M55.634 19.2188H54.8818V19.8604H55.634V19.2188Z" fill="#34414B"/>
  <path d="M57.5959 14.0508H56.8438V14.6925H57.5959V14.0508Z" fill="#34414B"/>
  <path d="M58.2006 18.4752C58.0761 18.4752 57.9359 18.4436 57.7868 18.3822C57.6378 18.3209 57.5011 18.2279 57.3818 18.1035L57.3345 18.0526L57.2889 18.107C57.0803 18.3542 56.8103 18.4752 56.4579 18.4752H56.0809C55.8355 18.4699 55.6356 18.4366 55.4901 18.3735C55.3463 18.3103 55.2061 18.1964 55.0763 18.0351L55.0255 17.972L54.9781 18.0386C54.88 18.1753 54.752 18.284 54.6012 18.3594C54.4504 18.4348 54.2804 18.4734 54.0963 18.4734H52.5709C52.2466 18.4734 51.9959 18.3752 51.8258 18.1789C51.8205 18.1718 51.817 18.1666 51.8118 18.1596C51.8048 18.1508 51.7995 18.1403 51.7925 18.1333L51.7644 18.0982L51.7206 18.1122C51.4646 18.1964 51.2683 18.2332 51.0561 18.2332C50.9913 18.2332 50.9264 18.2297 50.8598 18.2244C50.5722 18.2016 50.3408 18.1368 50.1322 18.0211C49.9165 17.9001 49.7447 17.7283 49.6202 17.5091C49.4957 17.2882 49.4326 17.0287 49.4326 16.7342C49.4326 16.4396 49.4992 16.1977 49.6307 15.9698C49.7622 15.7436 49.9516 15.563 50.1883 15.4368C50.4267 15.3088 50.709 15.2439 51.0263 15.2439C51.284 15.2439 51.7732 15.279 52.2974 15.3561L52.2904 17.2268C52.2904 17.4565 52.336 17.6161 52.4254 17.7178C52.5166 17.8177 52.6516 17.8685 52.8234 17.8685H53.8368C54.0174 17.8685 54.1734 17.7966 54.3014 17.6546C54.4259 17.5161 54.4907 17.3303 54.4907 17.1041V15.5157H55.2166V17.2374C55.2166 17.3355 55.2078 17.4372 55.1868 17.5424L55.1798 17.574L55.2008 17.5968C55.299 17.702 55.4094 17.7739 55.5339 17.8124C55.6549 17.8492 56.1984 17.8668 56.1984 17.8668C56.379 17.8668 56.535 17.7949 56.663 17.6529C56.7892 17.5144 56.8524 17.3285 56.8524 17.1024V15.5753H57.5782V17.2374C57.5782 17.3496 57.5659 17.46 57.5431 17.5652L57.5361 17.595L57.5554 17.6178C57.6904 17.7826 57.9043 17.8668 58.1954 17.8668H59.917V13.957H60.6429V16.2678L60.7411 16.2012C61.4213 15.7471 62.0841 15.5157 62.7117 15.5157C63.0448 15.5157 63.3359 15.5805 63.5743 15.7085C63.8128 15.8348 63.9951 16.0136 64.1178 16.238C64.2423 16.4642 64.3054 16.7219 64.3054 17.0059C64.3054 17.3706 64.1897 17.8633 63.9583 18.4734H58.1954L58.2006 18.4752ZM62.5644 16.1346C62.2296 16.1346 61.9035 16.1977 61.5967 16.3222C61.2933 16.4466 60.9848 16.6167 60.6762 16.8289L60.6481 16.8481V17.872H63.4165L63.4306 17.8265C63.513 17.5424 63.555 17.2707 63.555 17.0217C63.5498 16.7552 63.4569 16.5396 63.278 16.3765C63.0992 16.2152 62.859 16.1346 62.5644 16.1346ZM50.9965 15.8488C50.4688 15.8488 50.19 16.1591 50.19 16.7465C50.19 17.0059 50.2619 17.2128 50.3987 17.3653C50.5389 17.5179 50.7405 17.595 50.9965 17.595C51.0105 17.595 51.3174 17.588 51.5207 17.5372L51.5681 17.5231L51.5733 17.4723L51.5698 17.4285C51.5698 17.4074 51.5646 17.3829 51.5646 17.3601V15.8996L51.5137 15.8891C51.3682 15.8611 51.1192 15.8453 50.9965 15.8453" fill="#34414B"/>
  <path d="M65.9799 19.2583C66.2096 19.225 66.3989 19.1812 66.5392 19.1251C66.6987 19.062 66.8215 18.9655 66.9074 18.8393C66.9582 18.7622 66.9933 18.6675 67.0143 18.55L67.0266 18.4764H66.4322C66.164 18.4764 65.9185 18.4168 65.7047 18.2958C65.4908 18.1766 65.3207 18.003 65.1997 17.7839C65.077 17.563 65.0156 17.3017 65.0156 17.0089C65.0156 16.7161 65.0822 16.4724 65.2155 16.2445C65.347 16.0183 65.5363 15.8378 65.773 15.7115C66.0115 15.5835 66.2937 15.5187 66.6111 15.5187C66.8776 15.5187 67.265 15.5572 67.7612 15.6309V17.8715H69.6758V13.6094H70.3963V18.4746H67.756L67.7507 18.5342C67.7174 18.9726 67.5736 19.2952 67.3264 19.4898C67.0319 19.7212 66.5339 19.8913 65.9869 19.9491L65.9799 19.2583ZM66.5813 16.1218C66.0518 16.1218 65.7748 16.4321 65.7748 17.0194C65.7748 17.2789 65.8467 17.4858 65.9834 17.6383C66.1219 17.7909 66.3253 17.868 66.5813 17.868H67.0336V16.1744L66.9828 16.1639C66.8355 16.1358 66.7005 16.12 66.5813 16.12" fill="#34414B"/>
  <path d="M72.2844 13.6094H71.5586V18.4746H72.2844V13.6094Z" fill="#34414B"/>
  <path d="M76.8117 14.0508H76.0596V14.6925H76.8117V14.0508Z" fill="#34414B"/>
  <path d="M75.593 14.0508H74.8408V14.6925H75.593V14.0508Z" fill="#34414B"/>
  <path d="M51.007 14.0508H50.2549V14.6925H51.007V14.0508Z" fill="#34414B"/>
  <path d="M52.2258 14.0508H51.4736V14.6925H52.2258V14.0508Z" fill="#34414B"/>
  <path d="M83.2316 19.2188H82.4795V19.8604H83.2316V19.2188Z" fill="#34414B"/>
  <path d="M82.0129 19.2188H81.2607V19.8604H82.0129V19.2188Z" fill="#34414B"/>
  <path d="M89.1333 18.4729C88.993 18.4729 88.837 18.4343 88.6687 18.3572C88.5021 18.2818 88.3566 18.1678 88.2374 18.0223L88.1883 17.9627L88.1392 18.0223C87.8938 18.3274 87.5887 18.4746 87.2065 18.4746H83.679C83.4335 18.4694 83.2336 18.4361 83.0881 18.373C82.9443 18.3116 82.8058 18.1959 82.6743 18.0346L82.6217 17.9715L82.5744 18.0381C82.4762 18.1748 82.3482 18.2835 82.1975 18.3589C82.0467 18.4343 81.8766 18.4729 81.6925 18.4729H80.8878C80.6423 18.4676 80.4425 18.4343 80.2969 18.3712C80.1532 18.3081 80.0147 18.1941 79.8832 18.0328L79.8306 17.9679L79.7832 18.0346C79.685 18.1713 79.5571 18.28 79.408 18.3554C79.2573 18.4308 79.0872 18.4694 78.9031 18.4694H77.1551C76.8308 18.4694 76.58 18.3712 76.41 18.1748C76.4047 18.1678 76.4012 18.1626 76.396 18.1555C76.3889 18.1468 76.3854 18.1363 76.3767 18.1292L76.3486 18.0942L76.3065 18.1082C76.0506 18.1924 75.8542 18.2292 75.6421 18.2292C75.5772 18.2292 75.5123 18.2257 75.4457 18.2204C75.1582 18.1976 74.9267 18.1328 74.7181 18.017C74.5024 17.8961 74.3306 17.7242 74.2061 17.5051C74.0817 17.2842 74.0186 17.0247 74.0186 16.7302C74.0186 16.4356 74.0852 16.1937 74.2184 15.9657C74.3499 15.7396 74.5375 15.559 74.776 15.4328C75.0144 15.3048 75.2967 15.2399 75.614 15.2399C75.8717 15.2399 76.3609 15.275 76.8851 15.3521L76.8781 17.2228C76.8781 17.4525 76.9237 17.6138 77.0149 17.7137C77.106 17.8137 77.2393 17.8645 77.4128 17.8645H78.6471C78.8277 17.8645 78.9838 17.7926 79.1117 17.6506C79.2362 17.5121 79.3011 17.3263 79.3011 17.1001V15.5116H80.0269V17.2333C80.0269 17.3315 80.0182 17.4332 79.9971 17.5384L79.9901 17.57L80.0112 17.5928C80.1093 17.6979 80.2198 17.7698 80.3443 17.8084C80.4652 17.8452 80.6423 17.8628 80.8878 17.8628H81.4365C81.6171 17.8628 81.7732 17.7909 81.9012 17.6489C82.0256 17.5104 82.0905 17.3245 82.0905 17.0983V15.5099H82.8164V17.2316C82.8164 17.328 82.8076 17.4315 82.7865 17.5367L82.7795 17.5682L82.8006 17.591C82.8988 17.6962 83.0092 17.7681 83.1337 17.8066C83.2547 17.8435 83.4317 17.861 83.6772 17.861H84.908L84.7835 17.7505C84.5959 17.584 84.5047 17.3596 84.5047 17.065C84.5047 16.8757 84.5591 16.6898 84.666 16.5128C84.7747 16.3357 84.9255 16.1919 85.1184 16.085C85.3112 15.978 85.5339 15.9219 85.7811 15.9219C86.0564 15.9219 86.2913 15.9815 86.4806 16.0955C86.67 16.2112 86.812 16.3602 86.9067 16.5408C87.0014 16.7214 87.0487 16.909 87.0487 17.0966C87.0487 17.3613 86.9558 17.5752 86.7647 17.7505L86.6454 17.861H86.9488C87.0732 17.861 87.2012 17.8259 87.3292 17.7558C87.459 17.6839 87.5694 17.5735 87.6553 17.4244C87.7412 17.2754 87.7868 17.0878 87.7868 16.8652C87.7868 16.6074 87.7255 16.3672 87.6045 16.1516C87.4817 15.9359 87.3012 15.7606 87.0627 15.6344C86.826 15.5081 86.5367 15.445 86.2054 15.445H85.5304V14.8402H86.2177C86.6893 14.8402 87.1013 14.9296 87.4484 15.1049C87.7921 15.2802 88.0568 15.5169 88.2409 15.8167C88.4232 16.113 88.5144 16.4514 88.5144 16.8143C88.5144 17.03 88.4811 17.2526 88.418 17.4735L88.411 17.5016L88.4268 17.5244C88.5021 17.6436 88.5933 17.7313 88.702 17.7839C88.809 17.8365 88.9527 17.8645 89.1333 17.8645H90.3711V13.6094H91.0917V18.4746H89.1316L89.1333 18.4729ZM85.7864 16.5338C85.6286 16.5338 85.4953 16.5846 85.3919 16.6846C85.2884 16.7863 85.2358 16.937 85.2358 17.1334C85.2358 17.4998 85.4287 17.7453 85.8109 17.8645L85.8547 17.868C86.0406 17.868 86.1879 17.7996 86.2948 17.6646C86.3965 17.5331 86.4473 17.3631 86.4473 17.1597C86.4473 17.0633 86.4193 16.9668 86.3667 16.8704C86.3123 16.774 86.2352 16.6933 86.137 16.6302C86.0371 16.5671 85.9179 16.5338 85.7846 16.5338M75.5807 15.8465C75.053 15.8465 74.7742 16.1568 74.7742 16.7442C74.7742 17.0037 74.8461 17.2105 74.9828 17.3631C75.1213 17.5156 75.3247 17.5928 75.5807 17.5928C75.5947 17.5928 75.9015 17.5857 76.1049 17.5349L76.1523 17.5209L76.1575 17.47L76.1523 17.4262C76.1523 17.4052 76.147 17.3824 76.147 17.3578V15.8974L76.0961 15.8868C75.9541 15.8588 75.7052 15.843 75.5789 15.843" fill="#34414B"/>
  <path d="M92.9778 13.6094H92.252V18.4746H92.9778V13.6094Z" fill="#34414B"/>
  <path d="M80.0843 14.1258L80.0019 14.408C79.8914 14.3782 79.8073 14.3625 79.7477 14.3625C79.7021 14.3625 79.6635 14.3747 79.6284 14.3975C79.5934 14.4203 79.5758 14.4589 79.5758 14.5097C79.5758 14.5764 79.6021 14.6254 79.653 14.6588H80.1036V14.9445H79.0762V14.6588H79.3584C79.3216 14.5851 79.3023 14.5167 79.3023 14.4554C79.3023 14.3379 79.3374 14.2397 79.4093 14.1626C79.4812 14.0854 79.5811 14.0469 79.7091 14.0469C79.8055 14.0469 79.93 14.0749 80.0843 14.1258Z" fill="#34414B"/>
  <path d="M44.0872 13.6883L44.0048 13.9705C43.8944 13.9407 43.8102 13.925 43.7506 13.925C43.705 13.925 43.6664 13.9372 43.6314 13.96C43.5963 13.9828 43.5788 14.0214 43.5788 14.0722C43.5788 14.1389 43.6051 14.1879 43.6559 14.2213H44.1065V14.507H43.0791V14.2213H43.3614C43.3246 14.1476 43.3053 14.081 43.3053 14.0179C43.3053 13.9004 43.3403 13.8022 43.4122 13.7251C43.4841 13.6479 43.584 13.6094 43.712 13.6094C43.8085 13.6094 43.9329 13.6374 44.0872 13.6883Z" fill="#34414B"/>
  <path d="M2.37519 25.477C2.65396 25.8767 2.92922 26.2888 3.19922 26.7113H3.2185C3.1887 26.2712 3.17467 25.8206 3.17467 25.3613V22.9453H3.73045V27.4827H3.17818L1.39688 24.9528C1.09006 24.5127 0.814798 24.1007 0.57285 23.7185H0.553564C0.583369 24.1323 0.599148 24.6162 0.599148 25.1667V27.4827H0.046875V22.9453H0.595642L2.37519 25.4753V25.477Z" fill="#34414B"/>
  <path d="M6.69929 27.1265H6.68527C6.64144 27.1808 6.58708 27.2352 6.52221 27.2878C6.45734 27.3404 6.38195 27.3877 6.29429 27.4298C6.20663 27.4719 6.11546 27.5052 6.01202 27.5297C5.91033 27.5543 5.80163 27.5666 5.68591 27.5666C5.52988 27.5666 5.38786 27.5438 5.25812 27.4964C5.12838 27.4491 5.01617 27.3825 4.92325 27.2931C4.83033 27.2036 4.75669 27.0932 4.70585 26.9652C4.65325 26.8372 4.62695 26.6899 4.62695 26.5269C4.62695 26.3638 4.65676 26.2218 4.71286 26.0973C4.77072 25.9711 4.84962 25.8642 4.95481 25.7747C5.05825 25.6871 5.18449 25.6187 5.32825 25.5714C5.47377 25.524 5.63507 25.4995 5.8104 25.4995C5.97695 25.503 6.13124 25.517 6.27501 25.5451C6.41702 25.5731 6.54325 25.6064 6.65546 25.6468H6.66949V25.4223C6.66949 25.3347 6.66247 25.2575 6.65196 25.1892C6.64144 25.1208 6.6204 25.0612 6.5941 25.0103C6.53449 24.9016 6.44157 24.8105 6.31183 24.7403C6.18384 24.6684 6.00851 24.6334 5.78936 24.6334C5.6263 24.6334 5.47377 24.6492 5.33001 24.679C5.18624 24.7088 5.04423 24.7508 4.90221 24.8052V24.3651C4.95656 24.3388 5.01968 24.3125 5.09332 24.2897C5.16695 24.2669 5.2441 24.2442 5.32475 24.2284C5.4054 24.2126 5.4913 24.1986 5.58247 24.1898C5.67189 24.181 5.76306 24.1758 5.85247 24.1758C6.17858 24.1758 6.44507 24.2336 6.6502 24.3494C6.85708 24.4651 7.00611 24.6176 7.09728 24.8069C7.13059 24.8788 7.15689 24.9577 7.16916 25.0471C7.18319 25.1331 7.1902 25.2295 7.1902 25.3329V27.4842H6.75014L6.69228 27.1265H6.69929ZM6.67299 26.0675C6.57481 26.0395 6.46085 26.0149 6.3276 25.9886C6.19436 25.9641 6.04884 25.9501 5.88929 25.9483C5.66663 25.9483 5.4913 25.9957 5.36682 26.0903C5.24059 26.185 5.17747 26.3323 5.17747 26.5286C5.17747 26.6268 5.19325 26.7162 5.22481 26.7899C5.25637 26.8635 5.29845 26.9266 5.35455 26.974C5.41066 27.0213 5.47553 27.0599 5.55092 27.0827C5.6263 27.1055 5.70695 27.1177 5.79286 27.1177C5.90507 27.1177 6.00851 27.1002 6.10669 27.0686C6.20488 27.0353 6.28903 26.9968 6.36442 26.9512C6.43981 26.9056 6.50293 26.8618 6.55553 26.8144C6.60812 26.7688 6.6467 26.7338 6.67124 26.7092V26.0675H6.67299Z" fill="#34414B"/>
  <path d="M9.91431 27.4885C9.86872 27.5078 9.80035 27.5236 9.70742 27.5394C9.6145 27.5551 9.50405 27.5639 9.37431 27.5674C9.20424 27.5674 9.05697 27.5464 8.93424 27.5043C8.80976 27.4622 8.70632 27.4026 8.62392 27.3255C8.54151 27.2466 8.48015 27.1519 8.43983 27.0432C8.3995 26.9327 8.37846 26.81 8.37846 26.6733V24.7131H7.75781V24.2608H8.37846V23.3789H8.90444V24.2608H9.86697V24.7131H8.90444V26.5926C8.90444 26.6662 8.91496 26.7364 8.93775 26.7995C8.96054 26.8626 8.99385 26.917 9.03944 26.9625C9.08502 27.0081 9.14463 27.045 9.21652 27.0712C9.2884 27.0975 9.37606 27.1098 9.47775 27.1098C9.54788 27.1098 9.62152 27.1028 9.70041 27.0923C9.77931 27.0818 9.85119 27.066 9.91606 27.0485V27.4885H9.91431Z" fill="#34414B"/>
  <path d="M10.6475 22.9258H11.1734V23.5114H10.6475V22.9258ZM10.6615 24.2635H11.1875V27.486H10.6615V24.2635Z" fill="#34414B"/>
  <path d="M15.1112 25.8764C15.1112 26.1307 15.0761 26.3603 15.0025 26.5672C14.9306 26.7758 14.8271 26.9529 14.6957 27.102C14.5642 27.251 14.4029 27.3649 14.217 27.4473C14.0294 27.528 13.819 27.5701 13.5859 27.5701C13.3527 27.5701 13.1335 27.5297 12.9424 27.4473C12.7531 27.3649 12.5935 27.251 12.4603 27.102C12.3288 26.9529 12.2271 26.7758 12.157 26.5672C12.0868 26.3603 12.0518 26.1289 12.0518 25.8764C12.0518 25.624 12.0868 25.389 12.1605 25.1821C12.2323 24.9735 12.3358 24.7964 12.4673 24.6457C12.5988 24.4966 12.7601 24.3809 12.9477 24.2985C13.1353 24.2161 13.3474 24.1758 13.5806 24.1758C13.8138 24.1758 14.0329 24.2161 14.2223 24.2985C14.4116 24.3792 14.5729 24.4949 14.7027 24.6457C14.8342 24.7947 14.9341 24.9735 15.0042 25.1821C15.0761 25.389 15.1129 25.6205 15.1129 25.8764M14.5607 25.8764C14.5607 25.6766 14.5361 25.5012 14.4888 25.347C14.4397 25.1927 14.3731 25.0612 14.2854 24.9525C14.1995 24.8455 14.096 24.7631 13.9751 24.7088C13.8541 24.6544 13.7226 24.6246 13.5806 24.6246C13.4386 24.6246 13.3071 24.6527 13.1879 24.7088C13.0686 24.7649 12.9652 24.8455 12.8775 24.9525C12.7916 25.0594 12.7233 25.1909 12.6742 25.347C12.6268 25.5012 12.6023 25.6783 12.6023 25.8764C12.6023 26.0745 12.6268 26.2499 12.6742 26.4042C12.7215 26.5584 12.7916 26.6899 12.8793 26.7951C12.967 26.9021 13.0704 26.9827 13.1914 27.0371C13.3106 27.0932 13.4421 27.1212 13.5841 27.1212C13.7261 27.1212 13.8576 27.0932 13.9751 27.0371C14.0943 26.981 14.196 26.9003 14.2836 26.7951C14.3696 26.6882 14.4379 26.5584 14.487 26.4042C14.5361 26.2499 14.5607 26.0745 14.5607 25.8764Z" fill="#34414B"/>
  <path d="M16.45 24.707H16.4606C16.5202 24.6334 16.585 24.5632 16.6552 24.4984C16.7271 24.4353 16.806 24.3774 16.8954 24.3301C16.983 24.281 17.0812 24.2442 17.1864 24.2161C17.2916 24.1881 17.4056 24.1758 17.5318 24.1758C17.6791 24.1758 17.8158 24.1951 17.9456 24.2354C18.0736 24.2757 18.1875 24.3423 18.2804 24.4318C18.3734 24.5212 18.4505 24.6404 18.5066 24.7859C18.5627 24.9314 18.5908 25.1103 18.5908 25.3242V27.4807H18.0648V25.4083C18.0648 25.1295 18.0104 24.9297 17.9035 24.8087C17.7965 24.686 17.6388 24.6264 17.4336 24.6264C17.253 24.6264 17.0777 24.6772 16.9076 24.7771C16.7393 24.8771 16.5921 25.0173 16.4693 25.1927V27.4807H15.9434V24.2582H16.3501L16.4483 24.7053L16.45 24.707Z" fill="#34414B"/>
  <path d="M21.4893 27.1265H21.4753C21.4315 27.1808 21.3771 27.2352 21.3123 27.2878C21.2474 27.3404 21.172 27.3877 21.0843 27.4298C20.9984 27.4719 20.9055 27.5052 20.8021 27.5297C20.7004 27.5543 20.5917 27.5666 20.476 27.5666C20.3199 27.5666 20.1779 27.5438 20.0482 27.4964C19.9184 27.4508 19.8062 27.3825 19.7133 27.2931C19.6186 27.2036 19.5467 27.0932 19.4959 26.9652C19.4433 26.8372 19.417 26.6899 19.417 26.5269C19.417 26.3638 19.4468 26.2218 19.5029 26.0973C19.5608 25.9711 19.6414 25.8642 19.7449 25.7747C19.8483 25.6871 19.9745 25.6187 20.1183 25.5714C20.2638 25.524 20.4251 25.4995 20.6022 25.4995C20.7687 25.503 20.923 25.517 21.0668 25.5451C21.2106 25.5731 21.335 25.6064 21.4473 25.6468H21.4613V25.4223C21.4613 25.3347 21.4543 25.2575 21.4437 25.1892C21.4332 25.1208 21.4122 25.0612 21.3859 25.0103C21.3263 24.9016 21.2334 24.8105 21.1036 24.7403C20.9739 24.6702 20.8003 24.6334 20.5811 24.6334C20.4181 24.6334 20.2656 24.6492 20.1218 24.679C19.978 24.7105 19.836 24.7508 19.694 24.8052V24.3651C19.7484 24.3388 19.8115 24.3125 19.8851 24.2897C19.957 24.2669 20.0359 24.2442 20.1165 24.2284C20.1972 24.2126 20.2831 24.1986 20.3743 24.1898C20.4637 24.181 20.5549 24.1758 20.6443 24.1758C20.9704 24.1758 21.2369 24.2336 21.4437 24.3494C21.6506 24.4651 21.7997 24.6176 21.8908 24.8069C21.9241 24.8788 21.9487 24.9577 21.9627 25.0471C21.9767 25.1331 21.9837 25.2295 21.9837 25.3329V27.4842H21.5437L21.4841 27.1265H21.4893ZM21.463 26.0675C21.3649 26.0395 21.2509 26.0149 21.1176 25.9886C20.9844 25.9641 20.8389 25.9501 20.6793 25.9483C20.4567 25.9483 20.2813 25.9957 20.1569 26.0903C20.0306 26.185 19.9675 26.3323 19.9675 26.5286C19.9675 26.6268 19.9833 26.7162 20.0131 26.7899C20.0429 26.8635 20.0867 26.9266 20.1428 26.974C20.1989 27.0213 20.2638 27.0599 20.3392 27.0827C20.4146 27.1055 20.4952 27.1177 20.5811 27.1177C20.6934 27.1177 20.7968 27.1002 20.895 27.0686C20.9932 27.0371 21.0773 26.9968 21.1527 26.9512C21.2281 26.9056 21.293 26.8618 21.3456 26.8144C21.3982 26.7688 21.4367 26.7338 21.4613 26.7092V26.0675H21.463Z" fill="#34414B"/>
  <path d="M23.565 22.5703H23.0391V27.4812H23.565V22.5703Z" fill="#34414B"/>
  <path d="M27.9972 23.3524C27.7429 23.3524 27.5063 23.3928 27.2836 23.4734C27.0627 23.5541 26.8716 23.6733 26.7085 23.8328C26.5455 23.9924 26.4175 24.1905 26.3228 24.4272C26.2281 24.6639 26.1826 24.9391 26.1826 25.253C26.1826 25.5668 26.2264 25.835 26.3141 26.0647C26.4 26.2944 26.5244 26.4837 26.6857 26.6345C26.847 26.7853 27.0399 26.8958 27.2643 26.9676C27.4905 27.0395 27.7412 27.0763 28.0165 27.0763C28.0918 27.0763 28.1725 27.0711 28.2584 27.0641C28.3443 27.0571 28.4285 27.0448 28.5144 27.0308C28.6003 27.0167 28.6844 26.9992 28.7651 26.9799C28.8475 26.9606 28.9194 26.9396 28.9825 26.9168V27.4059C28.8492 27.4585 28.6932 27.4989 28.5179 27.5269C28.3408 27.555 28.1602 27.569 27.9744 27.569C27.5974 27.569 27.2626 27.5164 26.9715 27.4112C26.6787 27.306 26.435 27.1552 26.2369 26.9589C26.0388 26.7625 25.8898 26.5206 25.7863 26.2383C25.6846 25.9543 25.6338 25.6317 25.6338 25.274C25.6338 24.9163 25.6881 24.5972 25.7951 24.2992C25.902 24.0046 26.0581 23.7487 26.2597 23.5365C26.4613 23.3244 26.7068 23.1596 26.9961 23.0404C27.2853 22.9211 27.6079 22.8633 27.9691 22.8633C28.0638 22.8633 28.1585 22.8685 28.2514 22.8756C28.3443 22.8826 28.4337 22.8948 28.5179 22.9089C28.6038 22.9229 28.6809 22.9422 28.7528 22.9615C28.8247 22.9807 28.8878 23.0035 28.9404 23.0263V23.5155C28.8037 23.4699 28.6529 23.4313 28.4898 23.4015C28.3268 23.3682 28.162 23.3559 27.9989 23.3559" fill="#34414B"/>
  <path d="M29.167 24.2617H29.693L30.6941 26.7882H30.7151L31.7425 24.2617H32.2667L30.2733 29.0621H29.7508L30.4381 27.4193L29.167 24.2617Z" fill="#34414B"/>
  <path d="M35.7937 25.8152C35.7937 26.1167 35.7534 26.3762 35.671 26.5936C35.5886 26.8128 35.4817 26.9934 35.3502 27.1371C35.2169 27.2809 35.0644 27.3878 34.8926 27.458C34.7208 27.5281 34.5437 27.5632 34.3613 27.5632C34.2246 27.5632 34.1019 27.5456 33.9967 27.5106C33.8915 27.4755 33.8021 27.4334 33.7284 27.3861C33.6565 27.337 33.5969 27.2879 33.5513 27.2371C33.5075 27.188 33.4759 27.1476 33.4584 27.1178H33.4479L33.3374 27.4773H32.9395V22.5664H33.4654V24.5563H33.4759C33.5899 24.4336 33.7267 24.3407 33.8792 24.2723C34.0317 24.2039 34.2088 24.1706 34.4052 24.1706C34.4946 24.1706 34.5945 24.1811 34.6997 24.2022C34.8049 24.2215 34.9084 24.2583 35.0118 24.3074C35.1152 24.3565 35.2152 24.4213 35.3081 24.5037C35.401 24.5861 35.4852 24.6861 35.5588 24.8071C35.6307 24.928 35.6885 25.0718 35.7324 25.2366C35.7727 25.4084 35.7937 25.5995 35.7937 25.8169M35.245 25.8555C35.245 25.5995 35.2152 25.3926 35.1556 25.2331C35.0959 25.0735 35.0188 24.9491 34.9259 24.8597C34.8312 24.7702 34.7313 24.7089 34.6261 24.6738C34.5191 24.6405 34.4139 24.623 34.307 24.623C34.1439 24.623 33.9897 24.6563 33.8476 24.7247C33.7039 24.793 33.5776 24.8807 33.4654 24.9894V26.6743C33.497 26.7181 33.5373 26.7637 33.5899 26.8145C33.6425 26.8654 33.7004 26.9127 33.7722 26.9565C33.8424 27.0004 33.9213 27.0389 34.0072 27.067C34.0931 27.0986 34.1895 27.1126 34.293 27.1126C34.449 27.1126 34.5875 27.081 34.705 27.0214C34.8242 26.96 34.9224 26.8741 35.003 26.7619C35.0837 26.6515 35.1433 26.5165 35.1836 26.3622C35.2239 26.2079 35.2432 26.0378 35.2432 25.852" fill="#34414B"/>
  <path d="M38.1553 27.1125C38.3306 27.1125 38.4884 27.0984 38.6322 27.0686C38.776 27.0406 38.918 27.0003 39.06 26.9477V27.386C38.946 27.4438 38.8023 27.4859 38.6339 27.521C38.4639 27.5543 38.2833 27.5701 38.0887 27.5701C37.859 27.5701 37.6416 27.5403 37.44 27.4824C37.2384 27.4245 37.063 27.3299 36.914 27.1984C36.765 27.0669 36.6493 26.8951 36.5669 26.6829C36.4845 26.4708 36.4424 26.2183 36.4424 25.9185C36.4424 25.6187 36.4827 25.3697 36.5651 25.1523C36.6458 24.9367 36.7545 24.7561 36.8895 24.6106C37.0262 24.4651 37.1805 24.3564 37.3558 24.2845C37.5311 24.2126 37.7152 24.1758 37.9081 24.1758C38.0887 24.1758 38.257 24.2056 38.413 24.2652C38.5691 24.3248 38.7058 24.4195 38.8215 24.5475C38.9355 24.6755 39.0267 24.842 39.0933 25.0454C39.1599 25.2488 39.1932 25.4942 39.1932 25.7783V25.8484C39.1932 25.8677 39.1932 25.9115 39.1897 25.9799H36.9649C36.9649 26.185 36.9964 26.3603 37.0578 26.5041C37.1191 26.6479 37.205 26.7636 37.3137 26.853C37.4207 26.9424 37.5469 27.0073 37.6924 27.0476C37.8345 27.0897 37.9905 27.109 38.1571 27.109M37.8765 24.6281C37.7538 24.6281 37.6434 24.6509 37.5382 24.7C37.4347 24.7473 37.3436 24.8105 37.2664 24.8929C37.1875 24.9735 37.1261 25.0699 37.0771 25.1786C37.028 25.2873 36.9999 25.4048 36.9876 25.5293H38.6357C38.6357 25.4031 38.6182 25.2856 38.5866 25.1751C38.5533 25.0647 38.5042 24.97 38.4411 24.8894C38.378 24.8087 38.2973 24.7438 38.2044 24.6982C38.1097 24.6527 38.001 24.6281 37.8765 24.6281Z" fill="#34414B"/>
  <path d="M41.8476 24.6881H41.8072C41.6827 24.6881 41.5618 24.6986 41.4408 24.7214C41.3198 24.7442 41.2094 24.7793 41.1042 24.8249C40.999 24.8705 40.9043 24.9283 40.8202 24.9967C40.736 25.0651 40.6641 25.1457 40.608 25.2386V27.4846H40.082V24.2621H40.4888L40.5905 24.774H40.5992C40.6518 24.6899 40.715 24.611 40.7903 24.5409C40.8657 24.469 40.9516 24.4041 41.0463 24.3515C41.141 24.2972 41.2462 24.2533 41.3584 24.2253C41.4706 24.1937 41.5898 24.1797 41.7143 24.1797C41.7371 24.1797 41.7599 24.1797 41.7844 24.1797C41.8072 24.1797 41.83 24.1832 41.8476 24.1849V24.6899V24.6881Z" fill="#34414B"/>
  <path d="M42.7845 25.1177C42.7845 25.2053 42.8038 25.279 42.8406 25.3333C42.8791 25.3912 42.9282 25.435 42.9914 25.4701C43.0545 25.5051 43.1281 25.5332 43.2105 25.556C43.2929 25.5788 43.3788 25.5998 43.4665 25.6174C43.5892 25.6436 43.7032 25.6752 43.8119 25.7068C43.9206 25.7383 44.0205 25.7892 44.1117 25.8558C44.2029 25.9207 44.2765 26.0101 44.3343 26.1223C44.3904 26.2327 44.4203 26.3783 44.4203 26.5588C44.4203 26.7219 44.3887 26.8657 44.3256 26.9919C44.2625 27.1164 44.173 27.2216 44.0573 27.3075C43.9416 27.3934 43.8031 27.4565 43.6436 27.5003C43.4823 27.5459 43.3069 27.567 43.1141 27.567C42.9966 27.567 42.8897 27.56 42.7932 27.5477C42.6968 27.5354 42.6127 27.5196 42.539 27.5003C42.4654 27.4811 42.4023 27.4618 42.3497 27.4407C42.2971 27.4197 42.2532 27.4022 42.2217 27.3829V26.9428C42.3549 26.9972 42.4864 27.041 42.6179 27.0708C42.7494 27.1006 42.8932 27.1181 43.051 27.1181C43.1754 27.1181 43.2877 27.1059 43.3858 27.0848C43.484 27.062 43.5717 27.0287 43.6436 26.9849C43.7154 26.9411 43.7698 26.8867 43.8101 26.8201C43.8487 26.7535 43.8697 26.6763 43.8697 26.5887C43.8697 26.501 43.8522 26.4238 43.8154 26.3642C43.7803 26.3046 43.7312 26.2573 43.6734 26.2187C43.6138 26.1801 43.5436 26.1486 43.4647 26.124C43.3858 26.0995 43.3034 26.0767 43.2175 26.0557C43.1053 26.0311 42.9896 26.0013 42.8721 25.968C42.7564 25.9347 42.6495 25.8874 42.553 25.826C42.4566 25.7664 42.3795 25.6822 42.3216 25.577C42.262 25.4718 42.234 25.3368 42.234 25.172C42.234 25.0072 42.2655 24.8547 42.3251 24.732C42.3847 24.6075 42.4689 24.504 42.5723 24.4234C42.6758 24.3427 42.7985 24.2814 42.9353 24.2411C43.072 24.2007 43.2193 24.1797 43.3736 24.1797C43.5506 24.1797 43.719 24.1972 43.8697 24.2305C44.0223 24.2638 44.1608 24.3077 44.2853 24.3585V24.8056C44.152 24.753 44.0188 24.7109 43.8838 24.6794C43.7488 24.6478 43.6085 24.6303 43.4647 24.6268C43.3438 24.6268 43.2386 24.639 43.1544 24.6636C43.0685 24.6881 42.9984 24.7232 42.9423 24.767C42.8862 24.8109 42.8458 24.8635 42.8213 24.9231C42.7932 24.9809 42.781 25.0458 42.781 25.1177" fill="#34414B"/>
  <path d="M46.7451 27.1125C46.9205 27.1125 47.0783 27.0984 47.222 27.0686C47.3658 27.0406 47.5078 27.0003 47.6516 26.9477V27.386C47.5359 27.4438 47.3939 27.4859 47.2238 27.521C47.0537 27.5543 46.8731 27.5701 46.6785 27.5701C46.4489 27.5701 46.2314 27.5403 46.0298 27.4824C45.8282 27.4245 45.6529 27.3299 45.5039 27.1984C45.3548 27.0669 45.2391 26.8951 45.1567 26.6829C45.0743 26.4708 45.0322 26.2183 45.0322 25.9185C45.0322 25.6187 45.0726 25.3697 45.155 25.1523C45.2356 24.9367 45.3443 24.7561 45.4793 24.6106C45.6143 24.4651 45.7703 24.3564 45.9457 24.2845C46.1227 24.2126 46.3051 24.1758 46.4962 24.1758C46.6873 24.1758 46.8451 24.2056 47.0011 24.2652C47.1572 24.3248 47.2939 24.4195 47.4096 24.5475C47.5236 24.6755 47.6148 24.842 47.6814 25.0454C47.748 25.2488 47.7796 25.4942 47.7796 25.7783V25.8484C47.7796 25.8677 47.7796 25.9115 47.7761 25.9799H45.5512C45.5512 26.185 45.5827 26.3603 45.6441 26.5041C45.7055 26.6479 45.7914 26.7636 45.8983 26.853C46.0053 26.9424 46.1315 27.0073 46.277 27.0476C46.4243 27.0897 46.5786 27.109 46.7469 27.109M46.4681 24.6281C46.3454 24.6281 46.235 24.6509 46.1298 24.7C46.0263 24.7473 45.9351 24.8105 45.858 24.8929C45.7809 24.9735 45.7177 25.0699 45.6687 25.1786C45.6196 25.2873 45.5915 25.4048 45.5792 25.5293H47.2273C47.2273 25.4031 47.2098 25.2856 47.1782 25.1751C47.1449 25.0647 47.0958 24.97 47.0327 24.8894C46.9696 24.8087 46.8907 24.7438 46.796 24.6982C46.7013 24.6527 46.5926 24.6281 46.4681 24.6281Z" fill="#34414B"/>
  <path d="M50.0553 24.1775C50.2113 24.1775 50.3604 24.1951 50.5024 24.2266C50.6444 24.2582 50.7671 24.3055 50.8688 24.3634V24.8017C50.7268 24.7473 50.5953 24.7053 50.4743 24.679C50.3551 24.6509 50.2324 24.6386 50.1079 24.6386C49.9764 24.6386 49.8467 24.6597 49.7187 24.7035C49.5907 24.7473 49.475 24.8175 49.3715 24.9156C49.2698 25.0138 49.1874 25.1453 49.1261 25.3049C49.0647 25.4662 49.0331 25.666 49.0331 25.9062C49.0331 26.0816 49.0559 26.2411 49.1033 26.3884C49.1489 26.5357 49.219 26.6619 49.3102 26.7688C49.4013 26.8775 49.517 26.9599 49.6555 27.0213C49.7941 27.0827 49.9518 27.1107 50.1342 27.1107C50.2657 27.1107 50.3972 27.0967 50.5304 27.0686C50.6637 27.0406 50.7934 27.0003 50.9196 26.9477V27.386C50.8811 27.4088 50.832 27.4316 50.7689 27.4544C50.7075 27.4771 50.6374 27.4964 50.5637 27.514C50.4901 27.5315 50.4094 27.5455 50.3253 27.5543C50.2411 27.5648 50.1587 27.5701 50.0746 27.5701C49.8589 27.5701 49.652 27.5368 49.4592 27.4719C49.2663 27.407 49.098 27.3071 48.9525 27.1703C48.807 27.0336 48.693 26.8635 48.6089 26.6549C48.5247 26.4462 48.4844 26.2008 48.4844 25.915C48.4844 25.7029 48.5054 25.5118 48.551 25.3417C48.5966 25.1716 48.6562 25.0226 48.7333 24.8929C48.8105 24.7649 48.8999 24.6544 49.0016 24.5632C49.105 24.4738 49.2155 24.4002 49.3312 24.3406C49.4469 24.2827 49.5679 24.2424 49.6924 24.2161C49.8168 24.1898 49.9378 24.1758 50.0553 24.1758" fill="#34414B"/>
  <path d="M52.995 27.5683C52.8285 27.5683 52.6759 27.5491 52.5427 27.514C52.4094 27.4789 52.292 27.4281 52.192 27.3615C52.0921 27.2966 52.0062 27.2177 51.9361 27.1265C51.8659 27.0354 51.8116 26.9354 51.7713 26.8267C51.7379 26.7443 51.7169 26.6549 51.7029 26.5585C51.6889 26.4603 51.6836 26.3551 51.6836 26.2394V24.2617H52.2096V26.2359C52.2096 26.4147 52.2324 26.5637 52.2815 26.6847C52.3358 26.8215 52.4217 26.9267 52.5444 27.0056C52.6672 27.0844 52.8197 27.123 53.009 27.123C53.2089 27.123 53.3685 27.0792 53.4877 26.9933C53.6087 26.9074 53.6946 26.7917 53.7472 26.6461C53.7857 26.5357 53.805 26.3989 53.805 26.2359V24.2617H54.331V26.2429C54.331 26.3516 54.324 26.4533 54.3117 26.5462C54.2994 26.6409 54.2784 26.7268 54.2521 26.8057C54.2118 26.9161 54.1539 27.0196 54.0838 27.1125C54.0119 27.2072 53.9242 27.2878 53.8208 27.3544C53.7174 27.4211 53.5964 27.4754 53.4596 27.5122C53.3229 27.5491 53.1686 27.5683 52.9968 27.5683" fill="#34414B"/>
  <path d="M57.079 24.6881H57.0387C56.9142 24.6881 56.7932 24.6986 56.6722 24.7214C56.5513 24.7442 56.4408 24.7793 56.3356 24.8249C56.2304 24.8705 56.1357 24.9283 56.0516 24.9967C55.9674 25.0651 55.8956 25.1457 55.8395 25.2386V27.4846H55.3135V24.2621H55.7202L55.8219 24.774H55.8324C55.885 24.6899 55.9482 24.611 56.0235 24.5409C56.0989 24.469 56.1848 24.4041 56.2795 24.3515C56.3759 24.2972 56.4794 24.2533 56.5916 24.2253C56.7038 24.1937 56.823 24.1797 56.9475 24.1797C56.9703 24.1797 56.9931 24.1797 57.0176 24.1797C57.0404 24.1797 57.0632 24.1832 57.0807 24.1849V24.6899H57.0772L57.079 24.6881Z" fill="#34414B"/>
  <path d="M57.6592 22.9258H58.1852V23.5114H57.6592V22.9258ZM57.6732 24.2635H58.1992V27.486H57.6732V24.2635Z" fill="#34414B"/>
  <path d="M60.9493 27.4885C60.9037 27.5078 60.8353 27.5236 60.7424 27.5394C60.6495 27.5551 60.539 27.5639 60.4093 27.5674C60.2392 27.5674 60.0919 27.5464 59.9692 27.5043C59.8447 27.4622 59.7413 27.4026 59.6589 27.3255C59.5765 27.2466 59.5151 27.1519 59.473 27.0432C59.4327 26.9327 59.4117 26.81 59.4117 26.6733V24.7131H58.791V24.2608H59.4117V23.3789H59.9376V24.2608H60.9002V24.7131H59.9376V26.5926C59.9376 26.6662 59.9482 26.7364 59.9709 26.7995C59.992 26.8626 60.0271 26.917 60.0726 26.9625C60.1182 27.0081 60.1778 27.045 60.2497 27.0712C60.3216 27.0975 60.4093 27.1098 60.511 27.1098C60.5811 27.1098 60.6547 27.1028 60.7336 27.0923C60.8108 27.0818 60.8844 27.066 60.9493 27.0485V27.4885Z" fill="#34414B"/>
  <path d="M61.2529 24.2617H61.7789L62.78 26.7882H62.8011L63.8285 24.2617H64.3544L62.3575 29.0621H61.8368L62.524 27.4193L61.2529 24.2617Z" fill="#34414B"/>
  <path d="M65.6865 27.4827L67.5362 22.9453H68.0148L69.8628 27.4827H69.2631L68.7214 26.1152H66.8244L66.2826 27.4827H65.6865ZM67.7694 23.6501C67.566 24.2147 67.3731 24.7284 67.1891 25.1895L67.019 25.6155H68.5215L68.3497 25.1895C68.1639 24.7196 67.9745 24.2059 67.7799 23.6501H67.7676H67.7694Z" fill="#34414B"/>
  <path d="M71.7675 27.5683C71.6009 27.5683 71.4484 27.5491 71.3151 27.514C71.1819 27.4789 71.0644 27.4281 70.9645 27.3615C70.8646 27.2966 70.7787 27.2177 70.7085 27.1265C70.6384 27.0354 70.584 26.9354 70.5437 26.8267C70.5122 26.7443 70.4894 26.6549 70.4753 26.5585C70.4613 26.4603 70.4561 26.3551 70.4561 26.2394V24.2617H70.982V26.2359C70.982 26.4147 71.0048 26.5637 71.0539 26.6847C71.1083 26.8215 71.1942 26.9267 71.3169 27.0056C71.4379 27.0844 71.5922 27.123 71.7815 27.123C71.9814 27.123 72.1409 27.0792 72.2601 26.9933C72.3811 26.9074 72.467 26.7917 72.5196 26.6461C72.5582 26.5357 72.5775 26.3989 72.5775 26.2359V24.2617H73.1035V26.2429C73.1035 26.3516 73.0964 26.4533 73.0842 26.5462C73.0719 26.6409 73.0509 26.7268 73.0246 26.8057C72.9842 26.9161 72.9264 27.0196 72.8563 27.1125C72.7844 27.2072 72.6967 27.2878 72.5933 27.3544C72.4898 27.4211 72.3688 27.4754 72.2321 27.5122C72.0953 27.5491 71.9411 27.5683 71.7692 27.5683" fill="#34414B"/>
  <path d="M75.7817 27.4885C75.7361 27.5078 75.6677 27.5236 75.5748 27.5394C75.4819 27.5551 75.3714 27.5639 75.2417 27.5674C75.0716 27.5674 74.9244 27.5464 74.8016 27.5043C74.6772 27.4622 74.5737 27.4026 74.4913 27.3255C74.4089 27.2466 74.3475 27.1519 74.3072 27.0432C74.2669 26.9345 74.2476 26.81 74.2476 26.6733V24.7131H73.627V24.2608H74.2476V23.3789H74.7736V24.2608H75.7361V24.7131H74.7736V26.5926C74.7736 26.6662 74.7841 26.7364 74.8069 26.7995C74.8279 26.8626 74.863 26.917 74.9086 26.9625C74.9542 27.0081 75.0138 27.045 75.0857 27.0712C75.1575 27.0975 75.2452 27.1098 75.3469 27.1098C75.417 27.1098 75.4907 27.1028 75.5696 27.0923C75.6467 27.0818 75.7203 27.066 75.7852 27.0485V27.4885H75.7817Z" fill="#34414B"/>
  <path d="M77.0533 24.7027H77.0638C77.1234 24.629 77.1883 24.5589 77.2602 24.494C77.3321 24.4292 77.4127 24.3731 77.5021 24.3275C77.5916 24.2819 77.6845 24.2433 77.7862 24.217C77.8879 24.189 77.9983 24.1767 78.1158 24.1767C78.2333 24.1767 78.3595 24.1942 78.4822 24.2258C78.6049 24.2591 78.7171 24.3169 78.8206 24.4011C78.924 24.4853 79.0099 24.601 79.0748 24.75C79.1397 24.899 79.173 25.0919 79.173 25.3268V27.4833H78.647V25.411C78.647 25.1515 78.5979 24.9551 78.4997 24.8254C78.4016 24.6939 78.2403 24.629 78.0176 24.629C77.8318 24.629 77.6564 24.6781 77.4881 24.7798C77.3216 24.8797 77.176 25.02 77.0533 25.1953V27.4851H76.5273V22.5742H77.0533V24.7009V24.7027Z" fill="#34414B"/>
  <path d="M83.0635 25.8764C83.0635 26.1307 83.0285 26.3603 82.9548 26.5672C82.8829 26.7758 82.7795 26.9529 82.648 27.102C82.5165 27.251 82.3552 27.3649 82.1694 27.4473C81.9818 27.528 81.7714 27.5701 81.5382 27.5701C81.305 27.5701 81.0841 27.5297 80.8948 27.4473C80.7054 27.3649 80.5459 27.251 80.4144 27.102C80.2829 26.9529 80.1812 26.7758 80.1111 26.5672C80.0409 26.3603 80.0059 26.1289 80.0059 25.8764C80.0059 25.624 80.0409 25.389 80.1146 25.1821C80.1864 24.9735 80.2899 24.7964 80.4214 24.6457C80.5529 24.4966 80.7142 24.3809 80.9018 24.2985C81.0894 24.2161 81.3015 24.1758 81.5347 24.1758C81.7679 24.1758 81.987 24.2161 82.1764 24.2985C82.3657 24.3792 82.527 24.4949 82.6568 24.6457C82.7883 24.7947 82.8882 24.9735 82.9583 25.1821C83.0302 25.389 83.0653 25.6205 83.0653 25.8764M82.513 25.8764C82.513 25.6766 82.4885 25.5012 82.4411 25.347C82.3938 25.1927 82.3254 25.0612 82.2377 24.9525C82.1518 24.8455 82.0484 24.7631 81.9274 24.7088C81.8064 24.6544 81.675 24.6246 81.5347 24.6246C81.3944 24.6246 81.2612 24.6527 81.1402 24.7088C81.0192 24.7649 80.9158 24.8455 80.8299 24.9525C80.744 25.0594 80.6756 25.1909 80.6265 25.347C80.5792 25.5012 80.5546 25.6783 80.5546 25.8764C80.5546 26.0745 80.5792 26.2499 80.6265 26.4042C80.6738 26.5584 80.744 26.6899 80.8316 26.7951C80.9193 26.9021 81.0227 26.9827 81.1437 27.0371C81.2647 27.0914 81.3962 27.1212 81.5382 27.1212C81.6802 27.1212 81.8117 27.0932 81.9292 27.0371C82.0484 26.981 82.1501 26.9003 82.2377 26.7951C82.3254 26.6899 82.392 26.5584 82.4411 26.4042C82.4902 26.2499 82.513 26.0745 82.513 25.8764Z" fill="#34414B"/>
  <path d="M85.662 24.6881H85.6217C85.4972 24.6881 85.3762 24.6986 85.2553 24.7214C85.1343 24.7442 85.0238 24.7793 84.9186 24.8249C84.8134 24.8705 84.7188 24.9283 84.6346 24.9967C84.5487 25.0651 84.4786 25.1457 84.4225 25.2386V27.4846H83.8965V24.2621H84.3032L84.4049 24.774H84.4154C84.468 24.6899 84.5312 24.611 84.6065 24.5409C84.6819 24.469 84.7678 24.4041 84.8625 24.3515C84.9589 24.2972 85.0624 24.2533 85.1746 24.2253C85.2868 24.1937 85.406 24.1797 85.5305 24.1797C85.5533 24.1797 85.5761 24.1797 85.6006 24.1797C85.6252 24.1797 85.6462 24.1832 85.6638 24.1849V24.6899L85.662 24.6881Z" fill="#34414B"/>
  <path d="M86.2422 22.9258H86.7682V23.5114H86.2422V22.9258ZM86.2562 24.2635H86.7822V27.486H86.2562V24.2635Z" fill="#34414B"/>
  <path d="M89.5315 27.4885C89.4859 27.5078 89.4175 27.5236 89.3246 27.5394C89.2317 27.5551 89.1212 27.5639 88.9915 27.5674C88.8214 27.5674 88.6742 27.5464 88.5514 27.5043C88.4287 27.4622 88.3235 27.4026 88.2411 27.3255C88.1587 27.2466 88.0973 27.1519 88.057 27.0432C88.0149 26.9327 87.9957 26.81 87.9957 26.6733V24.7131H87.375V24.2608H87.9957V23.3789H88.5216V24.2608H89.4842V24.7131H88.5216V26.5926C88.5216 26.6662 88.5321 26.7364 88.5549 26.7995C88.5777 26.8626 88.611 26.917 88.6566 26.9625C88.7022 27.0081 88.7618 27.045 88.8337 27.0712C88.9056 27.0975 88.9932 27.1098 89.0949 27.1098C89.1651 27.1098 89.2387 27.1028 89.3176 27.0923C89.3947 27.0818 89.4684 27.066 89.5332 27.0485V27.4885H89.5315Z" fill="#34414B"/>
  <path d="M89.8359 24.2617H90.3619L91.3613 26.7882H91.3823L92.4097 24.2617H92.9357L90.9405 29.0621H90.418L91.107 27.4193L89.8359 24.2617Z" fill="#34414B"/>
  <defs>
    <linearGradient id="paint0_linear_22228_9370" x1="102.886" y1="33.2279" x2="128.917" y2="2.7499" gradientUnits="userSpaceOnUse">
      <stop stop-color="#10B6AC"/>
      <stop offset="0.34" stop-color="#1D859B"/>
      <stop offset="0.8" stop-color="#235187"/>
      <stop offset="1" stop-color="#273A7E"/>
    </linearGradient>
    <linearGradient id="paint1_linear_22228_9370" x1="116.459" y1="44.8257" x2="142.49" y2="14.3478" gradientUnits="userSpaceOnUse">
      <stop stop-color="#10B6AC"/>
      <stop offset="0.34" stop-color="#1D859B"/>
      <stop offset="0.8" stop-color="#235187"/>
      <stop offset="1" stop-color="#273A7E"/>
    </linearGradient>
    <linearGradient id="paint2_linear_22228_9370" x1="109.706" y1="39.0555" x2="135.737" y2="8.57751" gradientUnits="userSpaceOnUse">
      <stop stop-color="#10B6AC"/>
      <stop offset="0.34" stop-color="#1D859B"/>
      <stop offset="0.8" stop-color="#235187"/>
      <stop offset="1" stop-color="#273A7E"/>
    </linearGradient>
    <linearGradient id="paint3_linear_22228_9370" x1="111.803" y1="40.8466" x2="137.834" y2="10.3686" gradientUnits="userSpaceOnUse">
      <stop stop-color="#10B6AC"/>
      <stop offset="0.34" stop-color="#1D859B"/>
      <stop offset="0.8" stop-color="#235187"/>
      <stop offset="1" stop-color="#273A7E"/>
    </linearGradient>
    <linearGradient id="paint4_linear_22228_9370" x1="95.8375" y1="27.2106" x2="121.868" y2="-3.26738" gradientUnits="userSpaceOnUse">
      <stop stop-color="#10B6AC"/>
      <stop offset="0.34" stop-color="#1D859B"/>
      <stop offset="0.8" stop-color="#235187"/>
      <stop offset="1" stop-color="#273A7E"/>
    </linearGradient>
    <linearGradient id="paint5_linear_22228_9370" x1="117.514" y1="45.7271" x2="143.544" y2="15.2492" gradientUnits="userSpaceOnUse">
      <stop stop-color="#10B6AC"/>
      <stop offset="0.34" stop-color="#1D859B"/>
      <stop offset="0.8" stop-color="#235187"/>
      <stop offset="1" stop-color="#273A7E"/>
    </linearGradient>
    <linearGradient id="paint6_linear_22228_9370" x1="123.148" y1="50.5338" x2="149.178" y2="20.0558" gradientUnits="userSpaceOnUse">
      <stop stop-color="#10B6AC"/>
      <stop offset="0.34" stop-color="#1D859B"/>
      <stop offset="0.8" stop-color="#235187"/>
      <stop offset="1" stop-color="#273A7E"/>
    </linearGradient>
    <linearGradient id="paint7_linear_22228_9370" x1="112.737" y1="41.6384" x2="138.768" y2="11.1605" gradientUnits="userSpaceOnUse">
      <stop stop-color="#10B6AC"/>
      <stop offset="0.34" stop-color="#1D859B"/>
      <stop offset="0.8" stop-color="#235187"/>
      <stop offset="1" stop-color="#273A7E"/>
    </linearGradient>
    <linearGradient id="paint8_linear_22228_9370" x1="108.136" y1="37.7046" x2="134.167" y2="7.22671" gradientUnits="userSpaceOnUse">
      <stop stop-color="#10B6AC"/>
      <stop offset="0.34" stop-color="#1D859B"/>
      <stop offset="0.8" stop-color="#235187"/>
      <stop offset="1" stop-color="#273A7E"/>
    </linearGradient>
    <linearGradient id="paint9_linear_22228_9370" x1="110.937" y1="40.1003" x2="136.967" y2="9.62232" gradientUnits="userSpaceOnUse">
      <stop stop-color="#10B6AC"/>
      <stop offset="0.34" stop-color="#1D859B"/>
      <stop offset="0.8" stop-color="#235187"/>
      <stop offset="1" stop-color="#273A7E"/>
    </linearGradient>
    <linearGradient id="paint10_linear_22228_9370" x1="120.841" y1="48.5668" x2="146.871" y2="18.0889" gradientUnits="userSpaceOnUse">
      <stop stop-color="#10B6AC"/>
      <stop offset="0.34" stop-color="#1D859B"/>
      <stop offset="0.8" stop-color="#235187"/>
      <stop offset="1" stop-color="#273A7E"/>
    </linearGradient>
    <linearGradient id="paint11_linear_22228_9370" x1="105.797" y1="35.7156" x2="131.828" y2="5.23764" gradientUnits="userSpaceOnUse">
      <stop stop-color="#10B6AC"/>
      <stop offset="0.34" stop-color="#1D859B"/>
      <stop offset="0.8" stop-color="#235187"/>
      <stop offset="1" stop-color="#273A7E"/>
    </linearGradient>
    <linearGradient id="paint12_linear_22228_9370" x1="101.383" y1="31.9455" x2="127.414" y2="1.46756" gradientUnits="userSpaceOnUse">
      <stop stop-color="#10B6AC"/>
      <stop offset="0.34" stop-color="#1D859B"/>
      <stop offset="0.8" stop-color="#235187"/>
      <stop offset="1" stop-color="#273A7E"/>
    </linearGradient>
    <linearGradient id="paint13_linear_22228_9370" x1="118.513" y1="46.5758" x2="144.543" y2="16.0978" gradientUnits="userSpaceOnUse">
      <stop stop-color="#10B6AC"/>
      <stop offset="0.34" stop-color="#1D859B"/>
      <stop offset="0.8" stop-color="#235187"/>
      <stop offset="1" stop-color="#273A7E"/>
    </linearGradient>
    <linearGradient id="paint14_linear_22228_9370" x1="103.733" y1="33.9517" x2="129.764" y2="3.47371" gradientUnits="userSpaceOnUse">
      <stop stop-color="#10B6AC"/>
      <stop offset="0.34" stop-color="#1D859B"/>
      <stop offset="0.8" stop-color="#235187"/>
      <stop offset="1" stop-color="#273A7E"/>
    </linearGradient>
    <linearGradient id="paint15_linear_22228_9370" x1="117.667" y1="45.8595" x2="143.698" y2="15.3815" gradientUnits="userSpaceOnUse">
      <stop stop-color="#10B6AC"/>
      <stop offset="0.34" stop-color="#1D859B"/>
      <stop offset="0.8" stop-color="#235187"/>
      <stop offset="1" stop-color="#273A7E"/>
    </linearGradient>
    <linearGradient id="paint16_linear_22228_9370" x1="112.856" y1="41.7475" x2="138.887" y2="11.2696" gradientUnits="userSpaceOnUse">
      <stop stop-color="#10B6AC"/>
      <stop offset="0.34" stop-color="#1D859B"/>
      <stop offset="0.8" stop-color="#235187"/>
      <stop offset="1" stop-color="#273A7E"/>
    </linearGradient>
    <linearGradient id="paint17_linear_22228_9370" x1="111.491" y1="40.5737" x2="137.522" y2="10.0958" gradientUnits="userSpaceOnUse">
      <stop stop-color="#10B6AC"/>
      <stop offset="0.34" stop-color="#1D859B"/>
      <stop offset="0.8" stop-color="#235187"/>
      <stop offset="1" stop-color="#273A7E"/>
    </linearGradient>
    <linearGradient id="paint18_linear_22228_9370" x1="107.082" y1="36.8097" x2="133.112" y2="6.33178" gradientUnits="userSpaceOnUse">
      <stop stop-color="#10B6AC"/>
      <stop offset="0.34" stop-color="#1D859B"/>
      <stop offset="0.8" stop-color="#235187"/>
      <stop offset="1" stop-color="#273A7E"/>
    </linearGradient>
    <linearGradient id="paint19_linear_22228_9370" x1="107.58" y1="37.2353" x2="133.61" y2="6.75735" gradientUnits="userSpaceOnUse">
      <stop stop-color="#10B6AC"/>
      <stop offset="0.34" stop-color="#1D859B"/>
      <stop offset="0.8" stop-color="#235187"/>
      <stop offset="1" stop-color="#273A7E"/>
    </linearGradient>
    <linearGradient id="paint20_linear_22228_9370" x1="106.171" y1="36.0361" x2="132.201" y2="5.55811" gradientUnits="userSpaceOnUse">
      <stop stop-color="#10B6AC"/>
      <stop offset="0.34" stop-color="#1D859B"/>
      <stop offset="0.8" stop-color="#235187"/>
      <stop offset="1" stop-color="#273A7E"/>
    </linearGradient>
    <linearGradient id="paint21_linear_22228_9370" x1="94.3004" y1="25.8986" x2="120.331" y2="-4.57934" gradientUnits="userSpaceOnUse">
      <stop stop-color="#10B6AC"/>
      <stop offset="0.34" stop-color="#1D859B"/>
      <stop offset="0.8" stop-color="#235187"/>
      <stop offset="1" stop-color="#273A7E"/>
    </linearGradient>
    <linearGradient id="paint22_linear_22228_9370" x1="99.7466" y1="30.5521" x2="125.777" y2="0.0741505" gradientUnits="userSpaceOnUse">
      <stop stop-color="#10B6AC"/>
      <stop offset="0.34" stop-color="#1D859B"/>
      <stop offset="0.8" stop-color="#235187"/>
      <stop offset="1" stop-color="#273A7E"/>
    </linearGradient>
    <linearGradient id="paint23_linear_22228_9370" x1="110.454" y1="39.6877" x2="136.484" y2="9.20974" gradientUnits="userSpaceOnUse">
      <stop stop-color="#10B6AC"/>
      <stop offset="0.34" stop-color="#1D859B"/>
      <stop offset="0.8" stop-color="#235187"/>
      <stop offset="1" stop-color="#273A7E"/>
    </linearGradient>
    <linearGradient id="paint24_linear_22228_9370" x1="102.91" y1="33.2458" x2="128.94" y2="2.76786" gradientUnits="userSpaceOnUse">
      <stop stop-color="#10B6AC"/>
      <stop offset="0.34" stop-color="#1D859B"/>
      <stop offset="0.8" stop-color="#235187"/>
      <stop offset="1" stop-color="#273A7E"/>
    </linearGradient>
  </defs>
</svg>