<svg xmlns="http://www.w3.org/2000/svg" width="173" height="52" viewBox="0 0 173 52" fill="none">
  <path d="M142.598 17.1971C143.823 17.1971 144.816 16.2042 144.816 14.9794C144.816 13.7546 143.823 12.7617 142.598 12.7617C141.373 12.7617 140.38 13.7546 140.38 14.9794C140.38 16.2042 141.373 17.1971 142.598 17.1971Z" fill="url(#paint0_linear_22228_8876)"/>
  <path d="M142.461 16.0782C141.907 16.0782 141.449 15.6202 141.449 15.0416C141.449 14.7042 141.617 14.3908 141.883 14.198L152.585 6.70124V1.03653C152.585 0.482108 153.043 0 153.622 0C154.2 0 154.658 0.458003 154.658 1.03653V7.23155C154.658 7.56903 154.49 7.88239 154.224 8.07523L143.088 15.8612C142.895 16.0058 142.678 16.0782 142.461 16.0782Z" fill="url(#paint1_linear_22228_8876)"/>
  <path d="M145.837 27.2445C145.283 27.2445 144.825 26.7865 144.801 26.208V19.9406C144.801 19.6032 144.97 19.2898 145.235 19.097L158.493 9.81647V3.71787C158.517 3.13934 158.999 2.70545 159.577 2.75366C160.108 2.77776 160.517 3.21166 160.541 3.71787V10.3468C160.541 10.6843 160.373 10.9976 160.108 11.1905L146.85 20.471V26.208C146.85 26.7865 146.392 27.2445 145.837 27.2445Z" fill="url(#paint2_linear_22228_8876)"/>
  <path d="M143.883 7.86474C143.328 7.86474 142.846 7.40674 142.846 6.85232C142.846 6.51485 143.015 6.20148 143.28 6.00864L147.065 3.35707C147.523 3.0196 148.173 3.14013 148.487 3.59813C148.824 4.05612 148.704 4.70696 148.246 5.02033C148.246 5.02033 148.222 5.02033 148.222 5.04444L144.437 7.69601C144.293 7.79243 144.076 7.86474 143.883 7.86474Z" fill="url(#paint3_linear_22228_8876)"/>
  <path d="M159.528 4.4666C160.753 4.4666 161.745 3.47372 161.745 2.24893C161.745 1.02414 160.753 0.03125 159.528 0.03125C158.303 0.03125 157.31 1.02414 157.31 2.24893C157.31 3.47372 158.303 4.4666 159.528 4.4666Z" fill="url(#paint4_linear_22228_8876)"/>
  <path d="M157.677 35.6024C157.123 35.6024 156.641 35.1445 156.641 34.5659V26.105C156.641 25.7675 156.809 25.4542 157.075 25.2613L168.211 17.4754C168.669 17.162 169.32 17.2825 169.633 17.7405C169.947 18.1985 169.826 18.8252 169.392 19.1386L158.714 26.6353V34.5659C158.714 35.1445 158.28 35.6024 157.677 35.6024Z" fill="url(#paint5_linear_22228_8876)"/>
  <path d="M151.773 32.9228C151.218 32.9228 150.76 32.4648 150.736 31.8863V22.9915C150.736 22.654 150.905 22.3406 151.17 22.1478L164.428 12.8673V7.13027C164.428 6.57585 164.886 6.09375 165.465 6.09375C166.043 6.09375 166.501 6.55175 166.501 7.13027V13.3976C166.501 13.7351 166.332 14.0485 166.067 14.2413L152.809 23.5218V31.8622C152.785 32.4648 152.327 32.9228 151.773 32.9228Z" fill="url(#paint6_linear_22228_8876)"/>
  <path d="M163.631 30.256C163.077 30.256 162.619 29.798 162.619 29.2195C162.619 28.882 162.787 28.5687 163.053 28.3758L166.837 25.7243C167.295 25.3868 167.946 25.5073 168.259 25.9653C168.597 26.4233 168.476 27.0741 168.018 27.3875C168.018 27.3875 167.994 27.3875 167.994 27.4116L164.21 30.0632C164.041 30.1837 163.848 30.256 163.631 30.256Z" fill="url(#paint7_linear_22228_8876)"/>
  <path d="M151.772 35.6268C152.997 35.6268 153.99 34.6339 153.99 33.4091C153.99 32.1843 152.997 31.1914 151.772 31.1914C150.548 31.1914 149.555 32.1843 149.555 33.4091C149.555 34.6339 150.548 35.6268 151.772 35.6268Z" fill="url(#paint8_linear_22228_8876)"/>
  <path d="M168.718 20.6346C169.942 20.6346 170.935 19.6417 170.935 18.4169C170.935 17.1921 169.942 16.1992 168.718 16.1992C167.493 16.1992 166.5 17.1921 166.5 18.4169C166.5 19.6417 167.493 20.6346 168.718 20.6346Z" fill="url(#paint9_linear_22228_8876)"/>
  <path d="M163.204 50.3929C162.987 50.3929 162.77 50.3206 162.601 50.2001L138.858 33.5434C138.376 33.2059 138.279 32.5551 138.617 32.0971C138.954 31.615 139.605 31.5186 140.063 31.856L163.831 48.4886C164.313 48.8261 164.409 49.4769 164.096 49.9349C163.879 50.2242 163.566 50.3929 163.204 50.3929Z" fill="url(#paint10_linear_22228_8876)"/>
  <path d="M163.206 51.4289C164.444 51.4289 165.447 50.4252 165.447 49.1871C165.447 47.949 164.444 46.9453 163.206 46.9453C161.968 46.9453 160.964 47.949 160.964 49.1871C160.964 50.4252 161.968 51.4289 163.206 51.4289Z" fill="url(#paint11_linear_22228_8876)"/>
  <path d="M148.081 50.3862C148.298 50.3862 148.515 50.3139 148.684 50.1934L172.451 33.5367C172.934 33.2233 173.078 32.5725 172.741 32.0904C172.427 31.6083 171.776 31.4636 171.294 31.8011C171.27 31.8011 171.27 31.8252 171.246 31.8252L147.478 48.4819C146.996 48.8194 146.9 49.4702 147.213 49.9282C147.406 50.2175 147.744 50.3862 148.081 50.3862Z" fill="url(#paint12_linear_22228_8876)"/>
  <path d="M148.082 51.425C149.32 51.425 150.323 50.4213 150.323 49.1832C150.323 47.9451 149.32 46.9414 148.082 46.9414C146.844 46.9414 145.84 47.9451 145.84 49.1832C145.84 50.4213 146.844 51.425 148.082 51.425Z" fill="url(#paint13_linear_22228_8876)"/>
  <path d="M39.6528 19.3591C39.9903 19.2868 40.3278 19.1904 40.6411 19.0216C40.9786 18.877 41.292 18.66 41.6053 18.4431C41.9187 18.202 42.1839 17.8887 42.4249 17.5753C42.666 17.2137 42.8588 16.828 42.9793 16.3941C43.2445 15.4058 43.2445 14.3693 42.9793 13.4051C42.8588 12.9953 42.666 12.5855 42.4249 12.224C42.208 11.8865 41.9187 11.5972 41.6294 11.3562C41.3402 11.1151 41.0027 10.9223 40.6652 10.7776C40.3519 10.633 40.0144 10.5125 39.6769 10.4402C39.3636 10.3679 39.0502 10.3438 38.7127 10.3438H35.1934V19.4796H38.7127C39.0261 19.4796 39.3394 19.4314 39.6528 19.3591ZM36.3986 18.2985V11.5008H38.3511C38.8332 11.5008 39.2912 11.5731 39.7492 11.6936C40.159 11.8142 40.5447 12.0311 40.8581 12.2963C41.1714 12.5855 41.4366 12.9471 41.6053 13.3569C41.9669 14.3452 41.9669 15.454 41.6053 16.4424C41.4366 16.8521 41.1955 17.1896 40.8581 17.4789C40.5447 17.7681 40.159 17.961 39.7492 18.0815C39.2912 18.2261 38.8332 18.2744 38.3511 18.2744L36.3986 18.2985Z" fill="#6F6F6E"/>
  <path d="M45.4373 11.9542C45.6542 11.9542 45.847 11.8819 46.0158 11.7373C46.1604 11.5926 46.2568 11.3757 46.2327 11.1588C46.2327 10.9418 46.1604 10.749 45.9917 10.6043C45.847 10.4356 45.6301 10.3633 45.4373 10.3633C45.2203 10.3633 45.0034 10.4356 44.8587 10.6043C44.7141 10.749 44.6177 10.9659 44.6177 11.1829C44.6177 11.3998 44.69 11.6168 44.8346 11.7614C45.0034 11.8819 45.2203 11.9542 45.4373 11.9542Z" fill="#6F6F6E"/>
  <path d="M46.015 13.3789H44.8579V19.4775H46.015V13.3789Z" fill="#6F6F6E"/>
  <path d="M53.8964 13.3829H52.7393V14.2025C52.5465 13.9132 52.2572 13.6722 51.9438 13.5275C51.5581 13.3347 51.1484 13.2383 50.7145 13.2383C50.2565 13.2383 49.8226 13.3106 49.3887 13.4552C49.003 13.5999 48.6655 13.8168 48.3763 14.082C48.087 14.3712 47.8701 14.7087 47.7254 15.0944C47.5567 15.5283 47.4844 15.9622 47.4844 16.4202C47.4844 16.8541 47.5567 17.2638 47.7254 17.6495C47.8701 18.0111 48.087 18.3486 48.3763 18.6378C48.6655 18.9271 49.0271 19.144 49.3887 19.2887C49.7985 19.4574 50.2565 19.5297 50.6904 19.5297C51.1002 19.5297 51.5341 19.4574 51.9197 19.2887C52.2331 19.144 52.5224 18.9271 52.7393 18.6378V19.144C52.7393 19.4333 52.7152 19.7467 52.6429 20.0359C52.5947 20.3011 52.4741 20.5421 52.3054 20.7591C52.1367 20.976 51.9197 21.1448 51.6546 21.2653C50.9314 21.5305 50.1359 21.5064 49.4369 21.193C49.0753 21.0001 48.7378 20.7591 48.4486 20.4457L48.3763 20.3734L47.5567 21.3135L47.6049 21.3617C47.9906 21.7474 48.4727 22.0367 48.9789 22.2295C49.4851 22.3982 50.0395 22.4947 50.5698 22.4947C51.4858 22.567 52.3777 22.2536 53.0527 21.6269C53.6553 20.9278 53.9687 20.0118 53.8964 19.0958V13.3829ZM52.5947 17.1915C52.4259 17.6977 52.0644 18.1075 51.5823 18.3245C51.3171 18.445 51.0278 18.4932 50.7145 18.4932C50.4493 18.4932 50.1842 18.445 49.9431 18.3486C49.7021 18.2522 49.4851 18.0834 49.3164 17.8906C48.9307 17.5049 48.7137 16.9746 48.7378 16.4443C48.7378 16.155 48.7861 15.8657 48.8825 15.6006C48.9789 15.3595 49.1235 15.1426 49.2923 14.9497C49.461 14.7569 49.6779 14.6123 49.919 14.4917C50.1842 14.3712 50.4493 14.323 50.7386 14.323C51.0278 14.323 51.293 14.3712 51.5582 14.4676C51.7992 14.5641 52.0161 14.7087 52.209 14.9015C52.3777 15.0944 52.5224 15.3113 52.6188 15.5524C52.7152 15.8175 52.7634 16.1068 52.7634 16.3961C52.7634 16.6612 52.7152 16.9264 52.5947 17.1915Z" fill="#6F6F6E"/>
  <path d="M56.309 11.9542C56.7429 11.9542 57.1045 11.5926 57.1045 11.1588C57.1045 10.9418 57.0322 10.749 56.8634 10.6043C56.7188 10.4356 56.5019 10.3633 56.2849 10.3633C56.068 10.3633 55.851 10.4597 55.7064 10.6043C55.5618 10.749 55.4653 10.9659 55.4653 11.1829C55.4653 11.3998 55.5376 11.6168 55.6823 11.7614C55.8992 11.8819 56.0921 11.9542 56.309 11.9542Z" fill="#6F6F6E"/>
  <path d="M56.8856 13.3789H55.7285V19.4775H56.8856V13.3789Z" fill="#6F6F6E"/>
  <path d="M61.6092 19.5536C61.8021 19.5295 61.9949 19.4572 62.1878 19.3849L62.236 19.3608L62.1878 18.276L62.0672 18.3483C61.9467 18.4207 61.8021 18.4689 61.6575 18.493C61.5128 18.5171 61.3682 18.5412 61.2236 18.5412C61.0548 18.5412 60.9102 18.5171 60.7656 18.4448C60.6691 18.3966 60.5727 18.3001 60.5245 18.1796C60.4763 18.0591 60.4281 17.9145 60.4281 17.7698V14.3951H62.1637V13.3827H60.4281V11.6953H59.2711V13.3827H58.0176V14.3951H59.3193V17.5529C59.3193 17.8421 59.3434 18.1073 59.3675 18.3966C59.3916 18.6376 59.488 18.8545 59.6085 19.0474C59.7532 19.2402 59.9219 19.3849 60.1388 19.4813C60.4281 19.5777 60.7174 19.6259 61.0066 19.6259C61.2236 19.6259 61.4164 19.6018 61.6092 19.5536Z" fill="#6F6F6E"/>
  <path d="M66.9842 15.621C66.6227 15.621 66.2129 15.6451 65.779 15.6692C65.3692 15.6933 64.9353 15.7898 64.5496 15.9344C64.1639 16.0549 63.8265 16.296 63.5613 16.5852C63.272 16.9227 63.1274 17.3566 63.1515 17.7905C63.1515 18.0798 63.1997 18.3449 63.3444 18.586C63.4649 18.8029 63.6336 19.0199 63.8506 19.1645C64.0675 19.3332 64.3086 19.4538 64.5737 19.5261C64.863 19.5984 65.1522 19.6466 65.4415 19.6466C65.8754 19.6707 66.2852 19.5502 66.6468 19.3332C66.9119 19.1886 67.1289 18.9717 67.3217 18.7547C67.3217 18.827 67.3217 18.8993 67.3217 18.9717C67.3217 19.1404 67.3458 19.285 67.3699 19.4296V19.502H68.4788L68.4547 19.4055C68.4306 19.2609 68.4065 19.0922 68.4065 18.8993C68.3823 18.7306 68.3823 18.5619 68.3823 18.3931V15.838C68.4306 15.1389 68.2136 14.4399 67.7797 13.9096C67.2494 13.4275 66.5262 13.1864 65.8272 13.2587C65.3933 13.2587 64.9353 13.331 64.5255 13.4757C64.1157 13.6203 63.73 13.8614 63.4167 14.1747L63.3685 14.2229L64.0916 14.9943L64.1639 14.9461C64.405 14.7291 64.6942 14.5845 64.9835 14.4881C65.2728 14.3917 65.5861 14.3194 65.8995 14.3194C66.2611 14.2953 66.6468 14.4158 66.936 14.6568C67.1771 14.8979 67.2976 15.2112 67.2735 15.5487V15.6451L66.9842 15.621ZM67.2735 16.9227C67.2735 17.1397 67.2253 17.3566 67.153 17.5736C67.0807 17.7664 66.9601 17.9592 66.8155 18.1039C66.6709 18.2485 66.5021 18.3931 66.3093 18.4654C66.0924 18.5619 65.8272 18.6101 65.5861 18.6101C65.2728 18.6101 64.9835 18.5378 64.6943 18.3931C64.4532 18.2244 64.3327 17.9592 64.3568 17.67C64.3327 17.3325 64.5496 16.995 64.863 16.8745C65.321 16.6817 65.8272 16.5852 66.3334 16.6093H67.2253L67.2735 16.9227Z" fill="#6F6F6E"/>
  <path d="M71.3958 9.74609H70.2388V19.4846H71.3958V9.74609Z" fill="#6F6F6E"/>
  <path d="M5.03798 28.9288H7.08692V31.5322C6.74945 31.7009 6.41197 31.8214 6.0504 31.8937C5.18261 32.1107 4.29072 32.0625 3.47114 31.7491C3.03725 31.5804 2.65157 31.3152 2.3382 30.9777C2.02483 30.6403 1.75968 30.2546 1.59094 29.8207C1.3981 29.3627 1.32578 28.8565 1.32578 28.3744C1.32578 27.8682 1.3981 27.3861 1.59094 26.904C1.92841 26.0362 2.60336 25.3612 3.44704 24.9997C3.88093 24.8068 4.36303 24.7104 4.84514 24.7345C5.30314 24.7345 5.73703 24.8309 6.14682 24.9997C6.55661 25.1684 6.91819 25.4094 7.23155 25.7469L7.30387 25.8192L8.21986 24.855L8.17165 24.8068C7.76187 24.3729 7.25566 24.0596 6.67713 23.8667C6.12271 23.6739 5.52009 23.6016 4.94156 23.6016C4.29072 23.6016 3.63988 23.7221 3.01315 23.939C2.43462 24.156 1.90431 24.4935 1.44631 24.9273C0.988312 25.3612 0.626732 25.8674 0.385681 26.446C0.120524 27.0727 0 27.7235 0 28.3985C0 29.0734 0.120526 29.7243 0.361578 30.351C0.602629 30.9295 0.940101 31.4357 1.37399 31.8696C1.80789 32.3035 2.3382 32.6169 2.91672 32.8579C3.54346 33.099 4.1943 33.2195 4.86925 33.1954C5.44777 33.1954 6.0504 33.1231 6.62892 32.9785C7.20745 32.8338 7.73776 32.6169 8.26808 32.3276L8.31629 32.3035V27.7476H5.03798V28.9288Z" fill="#6F6F6E"/>
  <path d="M15.5686 27.6046C15.2794 27.3153 14.9178 27.0984 14.5321 26.9538C13.6884 26.6404 12.7724 26.6404 11.9287 26.9538C11.1574 27.243 10.5548 27.8457 10.2414 28.617C9.90391 29.4607 9.90391 30.4008 10.2414 31.2204C10.386 31.6061 10.6271 31.9435 10.9163 32.2328C11.2056 32.5221 11.5672 32.739 11.9529 32.8837C12.7965 33.197 13.7125 33.197 14.5562 32.8837C15.3276 32.5944 15.9302 31.9918 16.2436 31.2204C16.581 30.3767 16.581 29.4366 16.2436 28.617C16.0748 28.2313 15.8579 27.8939 15.5686 27.6046ZM15.1106 30.7383C15.0142 30.9793 14.8937 31.1963 14.7008 31.3891C14.5321 31.582 14.2911 31.7507 14.05 31.8471C13.7848 31.9677 13.4956 32.0159 13.2063 32.0159C12.9171 32.0159 12.6278 31.9677 12.3867 31.8471C12.1457 31.7507 11.9287 31.582 11.76 31.3891C11.5913 31.1963 11.4466 30.9793 11.3502 30.7383C11.2538 30.4731 11.2056 30.1839 11.2056 29.8946C11.2056 29.6053 11.2538 29.3161 11.3502 29.0509C11.4466 28.8099 11.5913 28.5929 11.76 28.4001C11.9287 28.2072 12.1457 28.0626 12.3867 27.9421C12.6519 27.8216 12.9412 27.7734 13.2063 27.7734C13.4956 27.7734 13.7848 27.8216 14.05 27.9421C14.2911 28.0385 14.508 28.2072 14.7008 28.4001C14.8696 28.5929 15.0142 28.8099 15.1106 29.0509C15.2071 29.3161 15.2553 29.6053 15.2553 29.8946C15.2553 30.208 15.2071 30.4972 15.1106 30.7383Z" fill="#6F6F6E"/>
  <path d="M19.5722 32.9541H20.7774L23.188 26.8555H21.9345L20.223 31.3631L18.4392 26.9037L18.4151 26.8555H17.0894L19.5481 32.8818L19.5722 32.9541Z" fill="#6F6F6E"/>
  <path d="M29.6449 31.8453L29.6931 31.773L28.8254 31.0981L28.7771 31.1704C28.5602 31.4355 28.295 31.6525 28.0058 31.8212C27.6683 31.9659 27.3067 32.0382 26.9451 32.0382C26.7041 32.0382 26.463 31.99 26.2461 31.8935C26.0292 31.7971 25.8363 31.6766 25.6676 31.5079C25.4988 31.3391 25.3783 31.1463 25.2819 30.9293C25.1855 30.7365 25.1373 30.5437 25.1132 30.3267H29.886V29.9169C29.886 29.4589 29.8137 29.0009 29.669 28.567C29.5485 28.2055 29.3557 27.8439 29.0905 27.5546C28.8254 27.2895 28.512 27.0725 28.1745 26.9279C27.8129 26.7833 27.4031 26.7109 27.0175 26.7109C26.5836 26.7109 26.1738 26.7833 25.764 26.952C25.0167 27.2654 24.4141 27.868 24.1248 28.6152C23.9561 29.025 23.8838 29.483 23.8838 29.9169C23.8838 30.3508 23.9561 30.7606 24.1007 31.1463C24.3659 31.9177 24.9444 32.5203 25.6917 32.8577C26.1015 33.0265 26.5354 33.1229 26.9693 33.1229C27.4755 33.1229 28.0058 33.0265 28.4638 32.8337C28.9218 32.6167 29.3316 32.2792 29.6449 31.8453ZM25.6676 28.2296C26.0292 27.9162 26.4872 27.7716 26.9451 27.7957C27.4031 27.7716 27.837 27.9162 28.1745 28.2296C28.4638 28.5188 28.6084 28.9045 28.6325 29.2902H25.1132C25.1614 28.8804 25.3542 28.4947 25.6676 28.2296Z" fill="#6F6F6E"/>
  <path d="M34.5642 27.9403L34.6606 27.9644L34.7329 26.8074L34.6606 26.7833C34.516 26.735 34.3713 26.7109 34.2267 26.7109C33.9856 26.7109 33.7446 26.735 33.5277 26.8074C33.3107 26.8797 33.1179 26.952 32.9491 27.0725C32.7804 27.1689 32.6358 27.2895 32.4911 27.4341C32.4429 27.5064 32.3706 27.5546 32.3224 27.6269V26.8556H31.1895V26.952C31.1895 27.1448 31.1894 27.3618 31.2136 27.6028C31.2377 27.8439 31.2377 28.0849 31.2377 28.3501V32.9542H32.3947V29.9892C32.3706 29.4348 32.4911 28.9045 32.7804 28.4224C33.0697 28.0367 33.5518 27.8198 34.0339 27.868C34.2508 27.868 34.4195 27.8921 34.5642 27.9403Z" fill="#6F6F6E"/>
  <path d="M40.0335 28.1742C40.2504 28.5117 40.3709 28.8974 40.3468 29.3072V32.947H41.5039V29.2107C41.5039 28.8733 41.4557 28.5358 41.3592 28.1983C41.2869 27.909 41.1182 27.6439 40.9253 27.4028C40.7325 27.1859 40.4673 26.9931 40.1781 26.8725C39.8406 26.752 39.479 26.6797 39.1416 26.6797C38.9005 26.6797 38.6595 26.7038 38.4425 26.7761C38.2256 26.8484 38.0327 26.9207 37.864 27.0413C37.6952 27.1377 37.5506 27.2582 37.406 27.4028C37.3578 27.4752 37.2855 27.5234 37.2373 27.5957V26.8243H36.1284V26.9207C36.1284 27.1136 36.1284 27.3305 36.1525 27.5716C36.1766 27.8126 36.1766 28.0537 36.1766 28.3188V32.947H37.3337V29.9821C37.3337 29.6687 37.3578 29.3795 37.4301 29.0661C37.5024 28.8251 37.5988 28.584 37.7676 28.367C37.9122 28.1742 38.0809 28.0296 38.2979 27.9332C38.5389 27.8126 38.8282 27.7644 39.0934 27.7644C39.4549 27.7644 39.8165 27.9091 40.0335 28.1742Z" fill="#6F6F6E"/>
  <path d="M51.7753 27.4029C51.5824 27.1618 51.3414 26.9931 51.0521 26.8726C50.6906 26.752 50.329 26.6797 49.9433 26.7038C49.5335 26.7038 49.1237 26.8003 48.7863 27.0413C48.497 27.2341 48.28 27.4993 48.0872 27.7645C48.039 27.6921 48.0149 27.6198 47.9667 27.5475C47.8702 27.4029 47.7497 27.2583 47.6051 27.1618C47.4364 27.0413 47.2435 26.9208 47.0507 26.8485C46.5445 26.6797 46.0142 26.6797 45.5079 26.8244C45.291 26.8967 45.0982 26.969 44.9294 27.0895C44.7607 27.1859 44.6161 27.3065 44.4714 27.4511C44.4232 27.5234 44.3509 27.5716 44.3027 27.6439V26.8726H43.1938V26.969C43.1938 27.1618 43.1938 27.3788 43.218 27.6198C43.2421 27.8609 43.2421 28.1019 43.2421 28.3671V32.9471H44.3991V29.9821C44.3991 29.6688 44.4232 29.3795 44.4955 29.0661C44.5678 28.8251 44.6643 28.584 44.833 28.3671C44.9776 28.1743 45.1464 28.0296 45.3633 27.9332C45.6044 27.8127 45.8936 27.7645 46.1588 27.7645C46.4721 27.7404 46.7855 27.885 46.9543 28.126C47.1471 28.5358 47.2435 29.0179 47.1953 29.4759V32.9471H48.3282V29.4518C48.3282 29.2108 48.3765 28.9938 48.4488 28.7769C48.5211 28.584 48.6175 28.4153 48.7621 28.2466C48.8827 28.1019 49.0514 28.0055 49.2201 27.9091C49.3889 27.8368 49.5817 27.7886 49.7746 27.7886C50.0156 27.7886 50.2326 27.8127 50.4495 27.9091C50.6182 27.9814 50.7629 28.1019 50.8593 28.2466C50.9557 28.3912 51.028 28.5599 51.0762 28.7287C51.1245 28.9215 51.1244 29.1144 51.1244 29.3072V32.923H52.2815V29.259C52.2815 28.8974 52.2574 28.5599 52.161 28.1984C52.1128 27.9091 51.9681 27.6439 51.7753 27.4029Z" fill="#6F6F6E"/>
  <path d="M58.8639 27.5546C58.5988 27.2895 58.2854 27.0725 57.948 26.9279C57.5864 26.7833 57.1766 26.7109 56.7909 26.7109C56.357 26.7109 55.9472 26.7833 55.5374 26.952C54.7902 27.2654 54.1875 27.868 53.8983 28.6152C53.7295 29.025 53.6572 29.483 53.6572 29.9169C53.6572 30.3508 53.7295 30.7606 53.8742 31.1463C54.0188 31.532 54.2116 31.8694 54.4768 32.1587C54.742 32.448 55.0794 32.689 55.4651 32.8337C55.8749 33.0024 56.3088 33.0988 56.7427 33.0988C57.2489 33.0988 57.7792 33.0024 58.2372 32.8096C58.7193 32.5926 59.1291 32.2551 59.4425 31.8212L59.4907 31.7489L58.6229 31.074L58.5747 31.1463C58.3577 31.4114 58.0926 31.6284 57.8033 31.7971C57.4658 31.9418 57.1043 32.0141 56.7427 32.0141C56.5016 32.0141 56.2606 31.9659 56.0436 31.8694C55.8267 31.773 55.6339 31.6525 55.4651 31.4838C55.2964 31.315 55.1759 31.1222 55.0794 30.9052C54.983 30.7124 54.9348 30.5196 54.9107 30.3026H59.6835V29.8928C59.6835 29.4348 59.6112 28.9768 59.4907 28.5429C59.3461 28.1814 59.1291 27.8439 58.8639 27.5546ZM54.9107 29.2902C55.0312 28.3742 55.8267 27.7234 56.7427 27.7957C57.2007 27.7716 57.6346 27.9162 57.9721 28.2296C58.2613 28.5188 58.406 28.9045 58.4301 29.2902H54.9107Z" fill="#6F6F6E"/>
  <path d="M66.3818 32.947V29.2107C66.3818 28.8733 66.3336 28.5358 66.2372 28.1983C66.1649 27.909 65.9961 27.6439 65.8033 27.4028C65.6104 27.1859 65.3453 26.9931 65.0801 26.8725C64.7426 26.752 64.3811 26.6797 64.0436 26.6797C63.8025 26.6797 63.5615 26.7038 63.3446 26.7761C63.1276 26.8484 62.9348 26.9207 62.766 27.0413C62.5973 27.1377 62.4527 27.2582 62.308 27.4028C62.2598 27.4752 62.1875 27.5234 62.1393 27.5957V27.4028C62.1393 27.2341 62.1152 27.0654 62.1152 26.9207V26.8243H61.0063V26.9207C61.0063 27.1136 61.0063 27.3305 61.0305 27.5716C61.0546 27.8126 61.0546 28.0778 61.0546 28.3188V32.947H62.2116V29.9821C62.2116 29.6687 62.2357 29.3795 62.308 29.0661C62.3803 28.8251 62.4768 28.584 62.6455 28.367C62.7901 28.1742 62.9589 28.0296 63.1758 27.9332C63.4169 27.8126 63.7061 27.7644 63.9713 27.7644C64.3329 27.7403 64.6944 27.8849 64.9355 28.1501C65.1524 28.4876 65.273 28.8733 65.2489 29.283V32.947H66.3818Z" fill="#6F6F6E"/>
  <path d="M71.2297 31.8217C71.1092 31.894 70.9646 31.9422 70.8199 31.9663C70.6753 31.9904 70.5307 32.0145 70.386 32.0145C70.2173 32.0145 70.0727 31.9904 69.928 31.9181C69.8316 31.8458 69.7352 31.7734 69.687 31.6529C69.6388 31.5324 69.5906 31.3878 69.5906 31.2431C69.5906 31.0744 69.5665 30.9057 69.5665 30.7128V27.8443H71.302V26.8319H69.5906V25.1445H68.4335V26.8319H67.1318V27.8443H68.4335V31.0262C68.4335 31.3155 68.4576 31.6047 68.4817 31.8699C68.5058 32.1109 68.6023 32.3279 68.7228 32.5207C68.8674 32.7136 69.0361 32.8582 69.2531 32.9305C69.5424 33.051 69.8316 33.0992 70.1209 33.0751C70.3137 33.0751 70.5307 33.051 70.7235 33.0269C70.9164 33.0028 71.1092 32.9305 71.302 32.8582L71.3502 32.8341L71.302 31.7493L71.2297 31.8217Z" fill="#6F6F6E"/>
  <path d="M22.6325 37.8008H21.5236L17.498 46.9366H18.8961L19.8121 44.7431H24.1993L25.1153 46.9366H26.5134L22.6566 37.8731L22.6325 37.8008ZM20.2942 43.586L22.0298 39.464L23.6931 43.586H20.2942Z" fill="#6F6F6E"/>
  <path d="M32.4449 45.4407V40.8366H31.2879V43.8015C31.2879 44.1149 31.2638 44.4042 31.1915 44.6934C31.1191 44.9345 31.0227 45.1755 30.854 45.3925C30.7093 45.5853 30.5406 45.73 30.3237 45.8264C30.0826 45.9469 29.8175 45.9951 29.5282 45.971C29.1666 45.9951 28.805 45.8505 28.564 45.5853C28.347 45.2479 28.2265 44.8622 28.2506 44.4524V40.8125H27.1177V44.5488C27.1177 44.8863 27.1659 45.2238 27.2382 45.5612C27.3105 45.8505 27.4551 46.1156 27.648 46.3567C27.8408 46.5736 28.106 46.7665 28.3711 46.8629C28.7086 46.9834 29.0702 47.0557 29.4077 47.0557C29.6487 47.0557 29.8898 47.0316 30.1067 46.9593C30.3237 46.9111 30.5165 46.8147 30.6852 46.6942C30.854 46.5977 30.9986 46.4531 31.1432 46.3085C31.1914 46.2362 31.2638 46.1639 31.312 46.0915V46.8629H32.4208V46.7665C32.4208 46.5495 32.4208 46.3326 32.3967 46.1156C32.4208 45.9469 32.4449 45.6817 32.4449 45.4407Z" fill="#6F6F6E"/>
  <path d="M37.53 45.7982C37.4095 45.8705 37.2648 45.9188 37.1202 45.9429C36.9756 45.967 36.831 45.9911 36.6863 45.9911C36.5176 45.9911 36.373 45.967 36.2283 45.8947C36.1319 45.8464 36.0355 45.75 35.9873 45.6295C35.9391 45.509 35.8909 45.3643 35.8909 45.2197V41.8209H37.6264V40.8085H35.8909V39.1211H34.7338V40.8085H33.4321V41.8209H34.7338V45.0028C34.7338 45.292 34.7579 45.5572 34.782 45.8464C34.8061 46.0875 34.9025 46.3044 35.0231 46.4973C35.1677 46.6901 35.3364 46.8348 35.5534 46.9071C35.8426 47.0035 36.1319 47.0758 36.4212 47.0517C36.614 47.0517 36.831 47.0276 37.0238 47.0035C37.2166 46.9794 37.4095 46.9071 37.6023 46.8347L37.6505 46.8107L37.6023 45.7259L37.53 45.7982Z" fill="#6F6F6E"/>
  <path d="M43.7253 41.3935C43.5324 41.1766 43.2673 40.9837 43.0021 40.8632C42.6647 40.7427 42.3272 40.6704 41.9656 40.6704C41.7487 40.6704 41.5317 40.6945 41.3148 40.7668C41.1219 40.815 40.9291 40.9114 40.7362 41.0078C40.5675 41.1043 40.4229 41.2007 40.3023 41.3453C40.2541 41.3935 40.1818 41.4658 40.1577 41.5141V37.1992H38.9766V46.9377H40.1336V43.9728C40.1336 43.6594 40.1577 43.3702 40.23 43.0568C40.3024 42.8157 40.3988 42.5747 40.5675 42.3577C40.7121 42.1649 40.8809 42.0203 41.0978 41.9238C41.3389 41.8033 41.604 41.7551 41.8933 41.7551C42.2549 41.731 42.6164 41.8756 42.8575 42.1408C43.0985 42.4783 43.195 42.8639 43.195 43.2737V46.9377H44.352V43.2014C44.352 42.8639 44.3038 42.5265 44.2074 42.189C44.111 41.8997 43.9422 41.6105 43.7253 41.3935Z" fill="#6F6F6E"/>
  <path d="M51.2436 41.5812C50.9543 41.2919 50.5928 41.075 50.2071 40.9303C49.3634 40.617 48.4474 40.617 47.6037 40.9303C47.218 41.075 46.8806 41.2919 46.5672 41.5812C46.2779 41.8704 46.061 42.2079 45.8923 42.5936C45.5548 43.4373 45.5548 44.3533 45.8923 45.197C46.061 45.5826 46.2779 45.9201 46.5672 46.2094C46.8565 46.4986 47.218 46.7156 47.6037 46.8602C48.4474 47.1736 49.3634 47.1736 50.2071 46.8602C50.5928 46.7156 50.9302 46.4986 51.2436 46.2094C51.5329 45.9201 51.7739 45.5826 51.9186 45.197C52.0873 44.7872 52.1596 44.3292 52.1596 43.8953C52.1596 43.4373 52.0873 43.0034 51.9186 42.5936C51.7498 42.2079 51.5329 41.8704 51.2436 41.5812ZM50.7856 44.739C50.5928 45.2211 50.2312 45.6309 49.7491 45.8478C49.4839 45.9683 49.1947 46.0165 48.9054 46.0165C48.6161 46.0165 48.3269 45.9683 48.0858 45.8478C47.6037 45.6309 47.218 45.2452 47.0493 44.739C46.8565 44.1845 46.8565 43.606 47.0493 43.0516C47.218 42.5454 47.6037 42.1597 48.0858 41.9428C48.6161 41.7258 49.2188 41.7258 49.7491 41.9428C50.2312 42.1597 50.6169 42.5695 50.7856 43.0516C50.9543 43.606 50.9543 44.1845 50.7856 44.739Z" fill="#6F6F6E"/>
  <path d="M56.6188 40.6953C56.3777 40.6953 56.1367 40.7194 55.9197 40.7917C55.7028 40.8641 55.51 40.9364 55.3412 41.0569C55.1725 41.1533 55.0279 41.2738 54.8832 41.4185C54.835 41.4908 54.7627 41.539 54.7145 41.6113V40.84H53.5815V40.9364C53.5815 41.1292 53.5815 41.3462 53.6056 41.5872C53.6298 41.8283 53.6297 42.0693 53.6297 42.3345V46.9386H54.7868V43.9736C54.7627 43.4192 54.8832 42.8889 55.1725 42.4068C55.4617 42.0211 55.9438 41.8042 56.426 41.8524C56.5947 41.8524 56.7634 41.8765 56.9322 41.9247L57.0286 41.9488L57.1009 40.7917L57.0286 40.7676C56.9081 40.7194 56.7634 40.6953 56.6188 40.6953Z" fill="#6F6F6E"/>
  <path d="M59.4173 40.8359H58.2603V46.9345H59.4173V40.8359Z" fill="#6F6F6E"/>
  <path d="M58.8367 37.8008C58.6197 37.8008 58.4028 37.8731 58.2581 38.0418C58.1135 38.1865 58.0171 38.4034 58.0171 38.6204C58.0171 38.8373 58.0894 39.0543 58.234 39.1989C58.3787 39.3435 58.5956 39.4399 58.8126 39.4158C59.2465 39.4399 59.5839 39.1025 59.608 38.6927C59.608 38.6686 59.608 38.6445 59.608 38.6204C59.608 38.4034 59.5357 38.2106 59.367 38.0418C59.2465 37.8972 59.0536 37.8008 58.8367 37.8008Z" fill="#6F6F6E"/>
  <path d="M64.4056 45.7982C64.2851 45.8705 64.1405 45.9188 63.9958 45.9429C63.8512 45.967 63.7066 45.9911 63.5619 45.9911C63.3932 45.9911 63.2486 45.967 63.1039 45.8947C63.0075 45.8464 62.9111 45.75 62.8629 45.6295C62.8147 45.509 62.7665 45.3643 62.7665 45.2197V41.8209H64.502V40.8085H62.7665V39.1211H61.6335V40.8085H60.356V41.8209H61.6335V45.0028C61.6335 45.292 61.6576 45.5572 61.6817 45.8464C61.7058 46.0875 61.8023 46.3044 61.9469 46.4973C62.0915 46.6901 62.2603 46.8348 62.4772 46.9071C62.7665 47.0035 63.0557 47.0758 63.345 47.0517C63.5378 47.0517 63.7548 47.0276 63.9476 47.0035C64.1405 46.9794 64.3333 46.9071 64.5261 46.8347L64.5744 46.8107L64.5261 45.7259L64.4056 45.7982Z" fill="#6F6F6E"/>
  <path d="M68.4089 45.3677L66.6492 40.9083L66.6251 40.86H65.2993L67.7821 46.9104L67.3724 47.9952C67.3 48.2362 67.1554 48.4773 66.9867 48.6701C66.8179 48.8389 66.5769 48.9353 66.3358 48.9112C66.2153 48.9112 66.0948 48.9112 65.9743 48.8871C65.8778 48.8871 65.7814 48.863 65.685 48.8147L65.5886 48.7665L65.4439 49.779L65.4922 49.8031C65.6368 49.8754 65.8055 49.9236 65.9502 49.9477C66.0948 49.9718 66.2635 49.9718 66.4081 49.9718C66.6733 49.9718 66.9385 49.9236 67.1795 49.8513C67.3965 49.7789 67.5893 49.6584 67.7339 49.4897C67.9027 49.321 68.0232 49.1522 68.1196 48.9353C68.2401 48.7183 68.3366 48.4773 68.433 48.2362L71.3497 40.8359H70.0962L68.4089 45.3677Z" fill="#6F6F6E"/>
  <path d="M123.345 44.498C123.345 44.7149 123.321 44.9078 123.249 45.1006C123.201 45.2211 123.104 45.3417 123.008 45.4381C122.912 45.5104 122.791 45.5586 122.671 45.5827C122.574 45.6068 122.454 45.6068 122.333 45.6068H121.586C121.297 45.6068 121.031 45.5586 120.766 45.4622C120.356 45.3176 120.043 44.956 119.947 44.5221C119.898 44.281 119.85 44.0641 119.85 43.823V41.1474H118.669V46.7398C118.693 47.2701 118.597 47.8004 118.356 48.2825C118.091 48.6441 117.633 48.8369 117.199 48.7887H116.885C116.789 48.7887 116.668 48.7646 116.572 48.7646L116.21 48.6923L116.09 49.8734C116.21 49.8734 116.355 49.8975 116.548 49.9217C116.765 49.9458 116.982 49.9458 117.199 49.9458C117.584 49.9458 117.97 49.8734 118.332 49.7047C118.645 49.5601 118.934 49.3431 119.175 49.0539C119.392 48.7646 119.585 48.4271 119.682 48.0656C119.802 47.6799 119.85 47.2701 119.85 46.8603V45.7273C119.923 45.9443 120.019 46.1371 120.188 46.3059C120.308 46.4505 120.453 46.5469 120.622 46.6433C120.766 46.7157 120.935 46.7639 121.104 46.788C121.248 46.8121 121.393 46.8121 121.538 46.8121H122.574C122.887 46.8121 123.201 46.7639 123.49 46.6433C123.707 46.5469 123.924 46.4023 124.069 46.2095C124.213 46.0166 124.334 45.7997 124.406 45.5586C124.478 45.3176 124.503 45.0524 124.503 44.7872V36.1094H123.321L123.345 44.498Z" fill="#6F6F6E"/>
  <path d="M82.1701 37.8219C82.5316 37.8219 82.8209 37.5085 82.8209 37.1469C82.8209 36.7854 82.5075 36.4961 82.146 36.4961C81.7844 36.4961 81.4951 36.8095 81.4951 37.171C81.5192 37.5326 81.8085 37.8219 82.1701 37.8219Z" fill="#6F6F6E"/>
  <path d="M80.1955 37.8185C80.0508 37.939 79.9785 38.1319 79.9785 38.3006C79.9785 38.6863 80.2919 38.9755 80.6535 38.9996C80.8463 38.9996 81.015 38.9273 81.1356 38.8068C81.2802 38.6863 81.3525 38.4934 81.3525 38.3247C81.3525 37.939 81.0391 37.6257 80.6535 37.6257C80.4847 37.6016 80.316 37.6739 80.1955 37.8185Z" fill="#6F6F6E"/>
  <path d="M96.4179 48.543C96.0322 48.5671 95.7429 48.8804 95.767 49.242C95.7911 49.6277 96.1045 49.917 96.4661 49.8929C96.8518 49.8687 97.141 49.5554 97.1169 49.1938C97.1169 49.0251 97.0446 48.8563 96.9 48.7358C96.7794 48.6153 96.5866 48.543 96.4179 48.543Z" fill="#6F6F6E"/>
  <path d="M94.4154 48.543C94.0297 48.543 93.7163 48.8563 93.7163 49.242C93.7163 49.6277 94.0297 49.9411 94.4154 49.9411C94.801 49.9411 95.1144 49.6277 95.1144 49.242C95.1144 49.0492 95.0421 48.8804 94.9216 48.7599C94.7769 48.6153 94.6082 48.543 94.4154 48.543Z" fill="#6F6F6E"/>
  <path d="M114.037 37.8224C113.917 37.9429 113.844 38.1358 113.844 38.3045C113.844 38.4974 113.917 38.6661 114.037 38.7866C114.302 39.0518 114.736 39.0518 115.025 38.7866C115.146 38.6661 115.218 38.4733 115.218 38.3045C115.218 37.9188 114.929 37.6055 114.543 37.6055C114.326 37.6055 114.158 37.6778 114.037 37.8224Z" fill="#6F6F6E"/>
  <path d="M112.038 37.8224C111.917 37.9429 111.845 38.1358 111.845 38.3045C111.845 38.4974 111.917 38.6661 112.038 38.7866C112.303 39.0518 112.737 39.0518 113.026 38.7866C113.171 38.6661 113.243 38.4733 113.219 38.3045C113.219 37.9188 112.905 37.6055 112.544 37.6055C112.351 37.6055 112.182 37.7019 112.038 37.8224Z" fill="#6F6F6E"/>
  <path d="M116.278 43.3353C116.278 42.9496 116.229 42.5639 116.109 42.2023C115.988 41.889 115.82 41.5756 115.579 41.3345C115.338 41.0935 115.072 40.9006 114.759 40.756C114.422 40.6114 114.036 40.5391 113.674 40.5632C113.216 40.5632 112.782 40.6596 112.373 40.8283C111.987 40.9971 111.649 41.2381 111.36 41.5274C111.071 41.8166 110.854 42.1541 110.709 42.5157C110.565 42.8773 110.492 43.2629 110.492 43.6727C110.492 44.0584 110.565 44.4441 110.709 44.8057C110.83 45.119 111.023 45.3842 111.24 45.6011H108.636C108.323 45.6253 108.01 45.5529 107.72 45.4324C107.528 45.336 107.335 45.1914 107.214 44.9985C107.094 44.8539 107.021 44.661 106.997 44.4682C106.973 44.3236 106.949 44.1548 106.949 44.0102C106.997 43.1183 106.732 42.2264 106.202 41.4792C105.671 40.8765 104.9 40.5391 104.105 40.5873C103.695 40.5873 103.285 40.6596 102.899 40.8283C102.538 40.973 102.224 41.1899 101.959 41.4792C101.694 41.7684 101.477 42.13 101.357 42.4916C101.212 42.9014 101.14 43.3353 101.14 43.7692C101.14 44.0825 101.116 44.3718 101.019 44.661C100.971 44.8539 100.85 45.0467 100.73 45.2155C100.633 45.336 100.489 45.4324 100.32 45.4806C100.175 45.5288 100.007 45.5529 99.8621 45.5529H99.0184C98.7532 45.5529 98.464 45.5047 98.2229 45.4083C98.0301 45.336 97.8372 45.1914 97.6926 45.0467C97.548 44.878 97.4515 44.6852 97.4033 44.4923C97.3551 44.2513 97.331 44.0343 97.331 43.7933V41.1417H96.1017V44.4682C96.1258 44.7575 96.0534 45.0467 95.9088 45.2878C95.7401 45.5047 95.4508 45.6253 95.1857 45.6011H84.4347V43.4317C84.4347 43.046 84.3624 42.6362 84.2419 42.2746C84.1214 41.9372 83.9285 41.6238 83.6875 41.3586C83.4464 41.0935 83.1572 40.9006 82.8438 40.7801C82.4822 40.6355 82.0965 40.5632 81.7109 40.5632C81.3011 40.5632 80.8672 40.6596 80.5056 40.8283C80.144 40.9971 79.8066 41.2622 79.5173 41.5515C79.2521 41.8648 79.0352 42.2264 78.8906 42.6362C78.7459 43.046 78.6495 43.504 78.6736 43.9379C78.6736 44.2995 78.7218 44.6369 78.8423 44.9744C78.9629 45.3119 79.1557 45.6253 79.3968 45.8904C79.686 46.1797 80.0235 46.3966 80.4092 46.5413C80.8913 46.7341 81.3975 46.8064 81.9037 46.8064H95.2821C95.4749 46.8064 95.6437 46.7823 95.8365 46.7582C96.0052 46.7341 96.174 46.6859 96.3427 46.5895C96.5114 46.493 96.6561 46.3725 96.7766 46.2279C96.9212 46.035 97.0418 45.8422 97.1141 45.6252C97.2105 46.0109 97.4274 46.3243 97.7649 46.5171C98.1265 46.71 98.5122 46.8064 98.8978 46.7823H99.9103C100.248 46.7823 100.561 46.6618 100.85 46.4448C101.164 46.2038 101.405 45.8904 101.501 45.5047C101.742 45.9145 102.08 46.2761 102.514 46.5171C102.948 46.7341 103.454 46.8546 103.96 46.8546C104.201 46.8546 104.418 46.8305 104.659 46.8064C104.876 46.7823 105.117 46.71 105.31 46.6136C105.551 46.493 105.744 46.3484 105.937 46.1797C106.178 45.9627 106.37 45.6976 106.539 45.4324C106.636 45.8904 106.925 46.2761 107.335 46.5171C107.527 46.6136 107.72 46.6859 107.913 46.7341C108.13 46.7823 108.323 46.7823 108.54 46.7823H116.278V43.3353ZM83.2536 45.6252H81.8314C81.5662 45.6252 81.3252 45.6012 81.0841 45.5288C80.8431 45.4565 80.6261 45.3601 80.4333 45.1914C80.2404 45.0226 80.0958 44.8298 79.9753 44.5887C79.8548 44.2995 79.8066 43.9861 79.8066 43.6968C79.8066 43.1665 79.9994 42.6603 80.361 42.2746C80.5297 42.1059 80.7226 41.9854 80.9154 41.8889C81.1323 41.7925 81.3493 41.7684 81.5662 41.7684C82.0483 41.7443 82.5063 41.9613 82.7956 42.347C83.109 42.8291 83.2536 43.3835 83.2295 43.962L83.2536 45.6252ZM105.696 44.5887C105.623 44.8057 105.527 44.9985 105.358 45.1673C105.213 45.336 105.021 45.4806 104.804 45.577C104.297 45.7699 103.719 45.7699 103.213 45.577C102.996 45.4806 102.803 45.336 102.658 45.1673C102.514 44.9985 102.393 44.8057 102.321 44.5887C102.248 44.3477 102.224 44.1066 102.224 43.8656C102.224 43.5763 102.273 43.2629 102.369 42.9978C102.465 42.7567 102.586 42.5398 102.755 42.347C102.923 42.1782 103.116 42.0336 103.333 41.9131C103.55 41.8166 103.791 41.7684 104.032 41.7684C104.249 41.7684 104.49 41.8166 104.683 41.9131C104.9 42.0095 105.093 42.1541 105.262 42.347C105.43 42.5398 105.575 42.7567 105.671 42.9978C105.84 43.4799 105.84 44.0584 105.696 44.5887ZM115.097 45.6252H113.409C113.096 45.6011 112.807 45.5047 112.541 45.336C112.3 45.1914 112.083 44.9985 111.915 44.7575C111.722 44.4441 111.625 44.0584 111.649 43.6727C111.649 43.4076 111.698 43.1183 111.794 42.8773C111.891 42.6362 112.035 42.4434 112.204 42.2505C112.373 42.0818 112.565 41.9372 112.782 41.8648C112.999 41.7684 113.24 41.7443 113.481 41.7443C113.723 41.7443 113.988 41.7925 114.205 41.8889C114.397 41.9613 114.566 42.1059 114.711 42.2505C114.831 42.3952 114.928 42.5639 115 42.7567C115.072 42.9255 115.097 43.1183 115.097 43.2871V45.6252Z" fill="#6F6F6E"/>
  <path d="M127.393 36.1367H126.236V46.8394H127.393V36.1367Z" fill="#6F6F6E"/>
  <path d="M80.68 11.6435C80.8728 11.6435 81.0416 11.5712 81.1621 11.4507C81.4273 11.1855 81.4273 10.7275 81.1621 10.4624C81.0416 10.3419 80.8487 10.2695 80.68 10.2695C80.5113 10.2695 80.3184 10.3418 80.1979 10.4865C79.9327 10.7516 79.9327 11.1855 80.1979 11.4507C80.3184 11.5712 80.4872 11.6435 80.68 11.6435Z" fill="#6F6F6E"/>
  <path d="M79.3765 18.5646C79.6658 18.8538 80.0033 19.0708 80.3889 19.2154C80.871 19.4083 81.3772 19.4806 81.8835 19.4806H106.447C106.639 19.4806 106.832 19.4565 107.001 19.4324C107.17 19.4083 107.339 19.3601 107.507 19.2636C107.676 19.1672 107.821 19.0467 107.941 18.9021C108.086 18.7333 108.206 18.5164 108.303 18.2994C108.399 18.6851 108.616 18.9985 108.954 19.1913C109.315 19.3842 109.701 19.4565 110.087 19.4565H113.413C113.606 19.4565 113.799 19.4324 113.967 19.4083C114.136 19.3842 114.305 19.336 114.474 19.2395C114.642 19.1431 114.787 19.0226 114.908 18.878C115.052 18.6851 115.173 18.4923 115.269 18.2753C115.366 18.661 115.583 18.9744 115.92 19.1672C116.282 19.3601 116.667 19.4565 117.077 19.4324H127.346C127.346 19.4324 127.442 17.046 127.346 16.0335C127.153 14.3703 126.141 12.707 123.441 12.707C122.525 12.707 121.609 12.8758 120.741 13.2132L120.91 14.2739C121.536 14.0087 122.211 13.8641 122.886 13.8159C123.513 13.7677 124.767 13.7677 125.369 14.3462C126.478 15.4068 126.116 18.203 126.116 18.203H124.646V17.0942C124.646 16.829 124.598 16.5639 124.526 16.3228C124.453 16.1059 124.333 15.913 124.164 15.7202C124.019 15.5514 123.826 15.4309 123.61 15.3345C123.368 15.2381 123.127 15.1899 122.862 15.1899C122.597 15.1899 122.308 15.2381 122.067 15.3586C121.826 15.4791 121.609 15.6479 121.44 15.8407C121.247 16.0577 121.103 16.2987 121.03 16.5639C120.934 16.829 120.886 17.1424 120.886 17.4316C120.886 17.6727 120.934 17.8896 121.006 18.1066C121.006 18.1307 121.03 18.1789 121.054 18.203H117.173C116.908 18.203 116.619 18.1789 116.378 18.0825C116.185 18.0102 115.992 17.8655 115.848 17.7209C115.703 17.5522 115.607 17.3593 115.558 17.1665C115.51 16.9254 115.486 16.7085 115.486 16.4674V13.7677H114.305V17.0942C114.329 17.3834 114.257 17.6727 114.112 17.9138C113.943 18.1307 113.654 18.2512 113.389 18.2271H110.207C109.942 18.2271 109.653 18.203 109.412 18.1066C109.219 18.0343 109.026 17.8896 108.881 17.745C108.737 17.5763 108.64 17.3834 108.592 17.1906C108.544 16.9495 108.52 16.7326 108.52 16.4915V13.7918H107.339V17.1183C107.363 17.4075 107.29 17.6968 107.146 17.9379C106.977 18.1548 106.688 18.2753 106.423 18.2512H84.5109V16.0576C84.5109 15.672 84.4386 15.2622 84.3181 14.9006C84.1976 14.5631 84.0047 14.2498 83.7637 13.9846C83.5226 13.7194 83.2333 13.5266 82.92 13.382C82.5584 13.2373 82.1727 13.165 81.787 13.165C81.3773 13.165 80.9434 13.2615 80.5818 13.4302C80.2202 13.5989 79.8827 13.8641 79.5935 14.1533C79.3283 14.4667 79.1114 14.8283 78.9667 15.2381C78.8221 15.6479 78.7257 16.1059 78.7498 16.5398C78.7498 16.9013 78.798 17.2388 78.9185 17.5763C78.9426 17.9861 79.1355 18.2994 79.3765 18.5646ZM122.477 18.203C122.356 18.1789 122.236 18.1066 122.139 18.0343C122.043 17.962 121.97 17.8414 121.922 17.745C121.874 17.6004 121.826 17.4558 121.85 17.287C121.85 17.1424 121.874 17.0219 121.922 16.8772C121.97 16.7567 122.043 16.6603 122.115 16.5639C122.26 16.3951 122.501 16.2987 122.718 16.2987C122.959 16.2746 123.176 16.3951 123.32 16.588C123.465 16.829 123.561 17.1183 123.537 17.3834V18.2271H122.862C122.718 18.2512 122.597 18.2512 122.477 18.203ZM79.9792 15.5032C80.0756 15.2622 80.1961 15.0693 80.3889 14.8765C80.5577 14.7078 80.7505 14.5631 80.9434 14.4667C81.1603 14.3703 81.3772 14.3462 81.5942 14.3462C82.0763 14.3221 82.5343 14.539 82.8236 14.9247C83.1369 15.4068 83.2816 15.9612 83.2575 16.5398V18.2512H81.8352C81.5701 18.2512 81.329 18.2271 81.088 18.1548C80.8469 18.0825 80.63 17.9861 80.4371 17.8173C80.2443 17.6486 80.0997 17.4558 80.0033 17.2147C79.8827 16.9254 79.8345 16.6121 79.8345 16.3228C79.8345 16.0335 79.8827 15.7684 79.9792 15.5032Z" fill="#6F6F6E"/>
  <path d="M82.6531 11.6464C82.846 11.6464 83.0147 11.5741 83.1352 11.4535C83.4004 11.1884 83.4004 10.7545 83.1352 10.4652C82.8942 10.2001 82.4603 10.176 82.1951 10.4411L82.171 10.4652C81.9059 10.7304 81.9059 11.1643 82.171 11.4535C82.2916 11.5741 82.4844 11.6464 82.6531 11.6464Z" fill="#6F6F6E"/>
  <path d="M109.53 11.1106H109.144C108.903 11.1106 108.686 11.0865 108.469 11.0142C108.3 10.966 108.132 10.8695 107.987 10.749C107.866 10.6526 107.77 10.5321 107.722 10.3874C107.674 10.2428 107.625 10.0982 107.625 9.95356C107.601 9.7125 107.722 9.47145 107.939 9.35093C108.18 9.20629 108.445 9.15808 108.71 9.15808C108.807 9.15808 108.903 9.15808 108.975 9.18219L109.216 9.20629L109.313 8.45903C109.192 8.43493 109.072 8.41083 108.951 8.41083C108.831 8.41083 108.71 8.38672 108.59 8.38672C108.349 8.38672 108.083 8.41082 107.866 8.50724C107.674 8.57956 107.481 8.70008 107.336 8.84472C107.047 9.10987 106.902 9.47145 106.902 9.85714C106.902 10.0741 106.95 10.2669 107.023 10.4839C107.119 10.7249 107.288 10.966 107.505 11.1347H106.396V11.882H109.506L109.53 11.1106Z" fill="#6F6F6E"/>
  <path d="M112.063 22.5356C112.449 22.5356 112.738 22.2463 112.762 21.8607C112.762 21.6678 112.69 21.4991 112.569 21.3786C112.304 21.1134 111.87 21.1134 111.605 21.3786C111.34 21.6437 111.34 22.0776 111.605 22.3428C111.702 22.4633 111.894 22.5356 112.063 22.5356Z" fill="#6F6F6E"/>
  <path d="M114.545 22.3485C114.81 22.0833 114.81 21.6494 114.545 21.3842C114.424 21.2637 114.232 21.1914 114.063 21.1914C113.677 21.1914 113.388 21.5289 113.412 21.8905C113.412 22.252 113.725 22.5413 114.063 22.5413C114.232 22.5654 114.424 22.4931 114.545 22.3485Z" fill="#6F6F6E"/>
  <path d="M80.1955 23.942C80.0508 24.0626 79.9785 24.2554 79.9785 24.4241C79.9785 24.8098 80.2919 25.0991 80.6535 25.1232C80.8463 25.1232 81.015 25.0509 81.1356 24.9304C81.2802 24.8098 81.3525 24.617 81.3525 24.4483C81.3525 24.2554 81.2802 24.0867 81.1356 23.9662C80.8945 23.6769 80.4606 23.6769 80.1955 23.942Z" fill="#6F6F6E"/>
  <path d="M79.3727 32.031C79.6619 32.3203 79.9994 32.5373 80.3851 32.6819C80.8672 32.8747 81.3734 32.947 81.8796 32.947H86.8453C87.2309 32.9711 87.5925 32.8506 87.93 32.6578C88.2675 32.4167 88.5085 32.0792 88.629 31.6695C88.7978 31.9346 88.9906 32.1516 89.2076 32.3685C89.5933 32.6819 90.0513 32.8747 90.5334 32.947C90.7503 32.9711 90.9431 32.9952 91.1601 32.9952C91.6181 33.0194 92.0761 32.9229 92.4859 32.7542C92.8233 32.6096 93.1126 32.3926 93.3537 32.1034C93.5706 31.8141 93.7393 31.5007 93.8358 31.1391C93.9322 30.7776 93.9804 30.416 93.9804 30.0544C93.9804 29.5964 93.9322 29.1384 93.8117 28.7045C93.7152 28.3188 93.5224 27.9814 93.2813 27.668C93.0403 27.3787 92.7269 27.1618 92.3894 26.9931C91.6181 26.6556 90.7262 26.6556 89.9548 26.9931C89.5933 27.1377 89.2799 27.3546 89.0147 27.6439C88.7496 27.9332 88.5326 28.2947 88.388 28.6563C88.2434 29.0661 88.1469 29.5241 88.1711 29.958C88.1711 31.1632 87.7372 31.7418 86.8935 31.7418H84.4347V29.5482C84.4347 29.1625 84.3624 28.7527 84.2419 28.3912C84.1214 28.0537 83.9285 27.7403 83.6875 27.4752C83.4464 27.21 83.1572 27.0172 82.8438 26.8966C82.4822 26.752 82.0965 26.6797 81.7109 26.6797C81.3011 26.6797 80.8672 26.7761 80.5056 26.9448C80.144 27.1136 79.8066 27.3787 79.5173 27.668C79.228 27.9814 79.0352 28.3429 78.8906 28.7527C78.7459 29.1625 78.6495 29.6205 78.6736 30.0544C78.6736 30.416 78.7218 30.7535 78.8423 31.0909C78.9388 31.4525 79.1316 31.7659 79.3727 32.031ZM89.4727 29.0661C89.5691 28.8251 89.6897 28.6081 89.8584 28.4153C90.0271 28.2465 90.22 28.1019 90.4369 27.9814C90.6539 27.8849 90.8949 27.8367 91.136 27.8367C91.3529 27.8367 91.594 27.8849 91.7868 27.9814C92.0038 28.0778 92.1966 28.2224 92.3653 28.4153C92.5341 28.6081 92.6787 28.8251 92.751 29.0661C92.8474 29.3554 92.8957 29.6446 92.8957 29.9339C92.8957 30.1749 92.8716 30.4401 92.7992 30.657C92.7269 30.874 92.6305 31.0668 92.4618 31.2356C92.3171 31.4043 92.1243 31.5489 91.9073 31.6453C91.6663 31.7418 91.4011 31.8141 91.136 31.79C90.8467 31.79 90.5816 31.7418 90.3164 31.6453C90.0995 31.5489 89.9307 31.4043 89.762 31.2356C89.6174 31.0668 89.4968 30.874 89.4245 30.657C89.3522 30.416 89.304 30.1749 89.3281 29.9339C89.3281 29.6446 89.3763 29.3554 89.4727 29.0661ZM79.9753 28.9697C80.0717 28.7286 80.1922 28.5358 80.3851 28.3429C80.6984 28.0055 81.1323 27.8126 81.6144 27.8126C82.0965 27.7885 82.5545 28.0055 82.8438 28.3912C83.1572 28.8733 83.3018 29.4518 83.2777 30.0303V31.7418H81.8555C81.5903 31.7418 81.3493 31.7177 81.1082 31.6453C80.8672 31.573 80.6502 31.4766 80.4574 31.3079C80.2646 31.1391 80.1199 30.9222 80.0235 30.6811C79.903 30.3919 79.8548 30.0785 79.8548 29.7893C79.8307 29.5241 79.8789 29.2589 79.9753 28.9697Z" fill="#6F6F6E"/>
  <path d="M82.1701 23.9391C82.5316 23.9391 82.8209 23.6257 82.8209 23.2641C82.8209 22.9025 82.5075 22.6133 82.146 22.6133C81.7844 22.6133 81.4951 22.9266 81.4951 23.2882C81.5192 23.6498 81.8085 23.9391 82.1701 23.9391Z" fill="#6F6F6E"/>
  <path d="M117.776 32.9488C117.993 32.9488 118.185 32.9006 118.354 32.7801C118.619 32.5872 118.836 32.3462 118.981 32.0569C119.198 32.3462 119.487 32.5872 119.8 32.7318C120.138 32.8765 120.524 32.9488 120.909 32.9488H122.428C122.741 32.9488 123.055 32.9006 123.344 32.7801C123.585 32.6836 123.778 32.539 123.922 32.3462C124.067 32.1533 124.188 31.9364 124.26 31.6953C124.332 31.4543 124.356 31.1891 124.356 30.9239V22.2461H123.175V30.6106C123.175 30.8275 123.151 31.0204 123.079 31.2132C123.03 31.3337 122.934 31.4543 122.838 31.5507C122.741 31.623 122.621 31.6712 122.5 31.6953C122.404 31.7194 122.283 31.7194 122.163 31.7194H121.03C120.765 31.7194 120.524 31.6712 120.282 31.5266C120.09 31.4061 119.921 31.2132 119.8 31.0204C119.68 30.7793 119.583 30.5142 119.511 30.249C119.439 29.9356 119.391 29.6223 119.367 29.3089C119.342 28.9955 119.294 28.6822 119.198 28.3929C119.101 28.0795 118.957 27.7903 118.764 27.5492C118.571 27.2841 118.306 27.0671 118.017 26.9225C117.655 26.7538 117.269 26.6573 116.86 26.6814C116.667 26.6814 116.45 26.7056 116.257 26.7297C116.04 26.7538 115.847 26.802 115.654 26.8261C115.461 26.8502 115.293 26.8984 115.1 26.9707C114.931 27.0189 114.762 27.0671 114.666 27.1153L114.955 28.2724C115.22 28.1519 115.51 28.0795 115.775 28.0072C116.016 27.959 116.257 27.9108 116.522 27.9108C116.932 27.8867 117.318 28.0313 117.631 28.2965C117.944 28.6822 118.137 29.1402 118.161 29.6464C118.209 30.1044 118.306 30.5624 118.426 30.9963C118.499 31.2614 118.619 31.5266 118.788 31.7676H112.328C112.328 30.9481 112.255 30.1285 112.111 29.333C111.87 28.634 111.291 28.1278 110.568 27.9349C110.207 27.8385 105.458 27.7903 105.024 27.7903H104.686L108.519 25.1869L107.868 24.3191L102.975 27.7421V28.9232H107.917C108.664 28.9232 109.435 28.9714 110.182 29.0437C110.448 29.1161 110.665 29.2607 110.833 29.4776C111.002 29.7187 111.098 30.008 111.123 30.2972C111.123 30.3936 111.147 31.1891 111.147 31.7917H100.902V29.5982C100.902 29.2125 100.83 28.8027 100.709 28.4411C100.589 28.1036 100.42 27.7903 100.179 27.5251C99.9377 27.26 99.6485 27.0671 99.311 26.9466C98.9494 26.802 98.5637 26.7297 98.1539 26.7297C97.7442 26.7297 97.3103 26.8261 96.9246 26.9948C96.563 27.1635 96.2255 27.4287 95.9604 27.718C95.6711 28.0313 95.4783 28.3929 95.3336 28.8027C95.189 29.2125 95.1167 29.6705 95.1167 30.1044C95.1167 30.466 95.1649 30.8034 95.2854 31.1409C95.4059 31.4784 95.5988 31.7917 95.8399 32.0569C96.1291 32.3462 96.4666 32.5631 96.8282 32.7077C97.3103 32.9006 97.8165 32.9729 98.3227 32.9729H99.7208C99.7208 33.3827 99.6485 33.7684 99.5038 34.1299C99.3833 34.3951 99.1905 34.6361 98.9494 34.829C98.7084 34.9977 98.4432 35.1183 98.1539 35.1665C97.8406 35.2147 97.5272 35.2629 97.1897 35.2629C96.9969 35.2629 96.78 35.2629 96.563 35.2388L95.8881 35.1906C95.8639 35.3834 95.8399 35.5521 95.8399 35.745C95.8157 35.9378 95.8157 36.1307 95.7916 36.3235C96.0086 36.3476 96.2496 36.3717 96.4666 36.3958C96.6835 36.4199 96.9005 36.3958 97.1174 36.3958C97.6236 36.3958 98.1298 36.3476 98.636 36.203C99.0699 36.0825 99.4797 35.8896 99.8172 35.6004C100.155 35.3111 100.42 34.9495 100.589 34.5156C100.781 34.0094 100.902 33.4791 100.902 32.9247L117.776 32.9488ZM99.7208 31.7435H98.2745C98.0093 31.7435 97.7683 31.7194 97.5272 31.6471C97.2862 31.5748 97.0692 31.4784 96.8764 31.3096C96.6835 31.1409 96.5389 30.9481 96.4425 30.707C96.322 30.4177 96.2737 30.1044 96.2737 29.8151C96.2737 29.2848 96.4666 28.7786 96.8041 28.3929C96.9728 28.2242 97.1656 28.0795 97.3826 28.0072C97.5995 27.9108 97.8165 27.8626 98.0575 27.8626C98.5396 27.8385 98.9735 28.0554 99.2628 28.4411C99.6003 28.9232 99.7449 29.5017 99.7208 30.0803V31.7435Z" fill="#6F6F6E"/>
  <path d="M127.393 22.2461H126.236V32.9488H127.393V22.2461Z" fill="#6F6F6E"/>
  <defs>
    <linearGradient id="paint0_linear_22228_8876" x1="142.587" y1="3.72901" x2="142.587" y2="50.3165" gradientUnits="userSpaceOnUse">
      <stop stop-color="#00B0B2"/>
      <stop offset="0.33" stop-color="#058AB3"/>
      <stop offset="0.51" stop-color="#077BB4"/>
      <stop offset="0.59" stop-color="#1276B2"/>
      <stop offset="0.73" stop-color="#2F6AAC"/>
      <stop offset="0.91" stop-color="#5D56A3"/>
      <stop offset="1" stop-color="#754C9E"/>
    </linearGradient>
    <linearGradient id="paint1_linear_22228_8876" x1="148.023" y1="3.74279" x2="148.023" y2="50.3167" gradientUnits="userSpaceOnUse">
      <stop stop-color="#00B0B2"/>
      <stop offset="0.33" stop-color="#058AB3"/>
      <stop offset="0.51" stop-color="#077BB4"/>
      <stop offset="0.59" stop-color="#1276B2"/>
      <stop offset="0.73" stop-color="#2F6AAC"/>
      <stop offset="0.91" stop-color="#5D56A3"/>
      <stop offset="1" stop-color="#754C9E"/>
    </linearGradient>
    <linearGradient id="paint2_linear_22228_8876" x1="152.667" y1="3.78564" x2="152.667" y2="50.391" gradientUnits="userSpaceOnUse">
      <stop stop-color="#00B0B2"/>
      <stop offset="0.33" stop-color="#058AB3"/>
      <stop offset="0.51" stop-color="#077BB4"/>
      <stop offset="0.59" stop-color="#1276B2"/>
      <stop offset="0.73" stop-color="#2F6AAC"/>
      <stop offset="0.91" stop-color="#5D56A3"/>
      <stop offset="1" stop-color="#754C9E"/>
    </linearGradient>
    <linearGradient id="paint3_linear_22228_8876" x1="145.774" y1="3.62481" x2="145.774" y2="50.2855" gradientUnits="userSpaceOnUse">
      <stop stop-color="#00B0B2"/>
      <stop offset="0.33" stop-color="#058AB3"/>
      <stop offset="0.51" stop-color="#077BB4"/>
      <stop offset="0.59" stop-color="#1276B2"/>
      <stop offset="0.73" stop-color="#2F6AAC"/>
      <stop offset="0.91" stop-color="#5D56A3"/>
      <stop offset="1" stop-color="#754C9E"/>
    </linearGradient>
    <linearGradient id="paint4_linear_22228_8876" x1="159.53" y1="3.72612" x2="159.53" y2="50.3135" gradientUnits="userSpaceOnUse">
      <stop stop-color="#00B0B2"/>
      <stop offset="0.33" stop-color="#058AB3"/>
      <stop offset="0.51" stop-color="#077BB4"/>
      <stop offset="0.59" stop-color="#1276B2"/>
      <stop offset="0.73" stop-color="#2F6AAC"/>
      <stop offset="0.91" stop-color="#5D56A3"/>
      <stop offset="1" stop-color="#754C9E"/>
    </linearGradient>
    <linearGradient id="paint5_linear_22228_8876" x1="163.262" y1="4.50838" x2="163.262" y2="48.2338" gradientUnits="userSpaceOnUse">
      <stop stop-color="#00B0B2"/>
      <stop offset="0.33" stop-color="#058AB3"/>
      <stop offset="0.51" stop-color="#077BB4"/>
      <stop offset="0.59" stop-color="#1276B2"/>
      <stop offset="0.73" stop-color="#2F6AAC"/>
      <stop offset="0.91" stop-color="#5D56A3"/>
      <stop offset="1" stop-color="#754C9E"/>
    </linearGradient>
    <linearGradient id="paint6_linear_22228_8876" x1="158.597" y1="3.82715" x2="158.597" y2="48.4316" gradientUnits="userSpaceOnUse">
      <stop stop-color="#00B0B2"/>
      <stop offset="0.33" stop-color="#058AB3"/>
      <stop offset="0.51" stop-color="#077BB4"/>
      <stop offset="0.59" stop-color="#1276B2"/>
      <stop offset="0.73" stop-color="#2F6AAC"/>
      <stop offset="0.91" stop-color="#5D56A3"/>
      <stop offset="1" stop-color="#754C9E"/>
    </linearGradient>
    <linearGradient id="paint7_linear_22228_8876" x1="165.526" y1="3.63963" x2="165.526" y2="50.3003" gradientUnits="userSpaceOnUse">
      <stop stop-color="#00B0B2"/>
      <stop offset="0.33" stop-color="#058AB3"/>
      <stop offset="0.51" stop-color="#077BB4"/>
      <stop offset="0.59" stop-color="#1276B2"/>
      <stop offset="0.73" stop-color="#2F6AAC"/>
      <stop offset="0.91" stop-color="#5D56A3"/>
      <stop offset="1" stop-color="#754C9E"/>
    </linearGradient>
    <linearGradient id="paint8_linear_22228_8876" x1="151.765" y1="2.53973" x2="151.765" y2="49.1273" gradientUnits="userSpaceOnUse">
      <stop stop-color="#00B0B2"/>
      <stop offset="0.33" stop-color="#058AB3"/>
      <stop offset="0.51" stop-color="#077BB4"/>
      <stop offset="0.59" stop-color="#1276B2"/>
      <stop offset="0.73" stop-color="#2F6AAC"/>
      <stop offset="0.91" stop-color="#5D56A3"/>
      <stop offset="1" stop-color="#754C9E"/>
    </linearGradient>
    <linearGradient id="paint9_linear_22228_8876" x1="168.711" y1="3.72891" x2="168.711" y2="50.3164" gradientUnits="userSpaceOnUse">
      <stop stop-color="#00B0B2"/>
      <stop offset="0.33" stop-color="#058AB3"/>
      <stop offset="0.51" stop-color="#077BB4"/>
      <stop offset="0.59" stop-color="#1276B2"/>
      <stop offset="0.73" stop-color="#2F6AAC"/>
      <stop offset="0.91" stop-color="#5D56A3"/>
      <stop offset="1" stop-color="#754C9E"/>
    </linearGradient>
    <linearGradient id="paint10_linear_22228_8876" x1="151.359" y1="2.85068" x2="151.359" y2="49.4367" gradientUnits="userSpaceOnUse">
      <stop stop-color="#00B0B2"/>
      <stop offset="0.33" stop-color="#058AB3"/>
      <stop offset="0.51" stop-color="#077BB4"/>
      <stop offset="0.59" stop-color="#1276B2"/>
      <stop offset="0.73" stop-color="#2F6AAC"/>
      <stop offset="0.91" stop-color="#5D56A3"/>
      <stop offset="1" stop-color="#754C9E"/>
    </linearGradient>
    <linearGradient id="paint11_linear_22228_8876" x1="163.211" y1="2.93025" x2="163.211" y2="49.5173" gradientUnits="userSpaceOnUse">
      <stop stop-color="#00B0B2"/>
      <stop offset="0.33" stop-color="#058AB3"/>
      <stop offset="0.51" stop-color="#077BB4"/>
      <stop offset="0.59" stop-color="#1276B2"/>
      <stop offset="0.73" stop-color="#2F6AAC"/>
      <stop offset="0.91" stop-color="#5D56A3"/>
      <stop offset="1" stop-color="#754C9E"/>
    </linearGradient>
    <linearGradient id="paint12_linear_22228_8876" x1="159.973" y1="2.87365" x2="159.973" y2="49.4525" gradientUnits="userSpaceOnUse">
      <stop stop-color="#00B0B2"/>
      <stop offset="0.33" stop-color="#058AB3"/>
      <stop offset="0.51" stop-color="#077BB4"/>
      <stop offset="0.59" stop-color="#1276B2"/>
      <stop offset="0.73" stop-color="#2F6AAC"/>
      <stop offset="0.91" stop-color="#5D56A3"/>
      <stop offset="1" stop-color="#754C9E"/>
    </linearGradient>
    <linearGradient id="paint13_linear_22228_8876" x1="148.071" y1="2.93266" x2="148.071" y2="49.5207" gradientUnits="userSpaceOnUse">
      <stop stop-color="#00B0B2"/>
      <stop offset="0.33" stop-color="#058AB3"/>
      <stop offset="0.51" stop-color="#077BB4"/>
      <stop offset="0.59" stop-color="#1276B2"/>
      <stop offset="0.73" stop-color="#2F6AAC"/>
      <stop offset="0.91" stop-color="#5D56A3"/>
      <stop offset="1" stop-color="#754C9E"/>
    </linearGradient>
  </defs>
</svg>