<svg xmlns="http://www.w3.org/2000/svg" width="1280" height="239" viewBox="0 0 1280 239" fill="none">
  <path d="M1288.22 229.188C1240.29 287.903 1093.78 380.043 891.257 278.905C638.097 152.482 471.217 -138.273 384.703 -21.7973C298.19 94.6787 216.491 164.867 167.366 54.0406C118.241 -56.7863 174.387 -295.866 -71.3111 -282.657M1295.22 206.648C1247.29 265.358 1100.79 357.503 898.26 256.362C645.1 129.939 478.22 -160.816 391.706 -44.3402C305.192 72.1355 223.494 142.324 174.369 31.4977C125.244 -79.3292 181.39 -318.409 -64.3084 -305.2M1303.63 179.596C1255.69 238.306 1109.19 330.451 906.662 229.311C653.503 102.888 486.623 -187.868 400.109 -71.3921C313.595 45.0842 231.897 115.273 182.772 4.4458C133.647 -106.381 189.793 -345.461 -55.9054 -332.252M1312.03 152.544C1264.09 211.254 1117.6 303.399 915.066 202.259C661.906 75.8356 495.026 -214.92 408.512 -98.444C321.999 18.0323 240.3 88.2207 191.175 -22.6062C142.05 -133.432 198.197 -372.513 -47.5018 -359.304M1320.43 125.492C1272.49 184.202 1126 276.347 923.469 175.207C670.31 48.7839 503.429 -241.971 416.915 -125.495C330.402 -9.01947 248.703 61.1691 199.578 -49.6578C150.453 -160.484 206.599 -399.564 -39.0988 -386.356M1328.84 98.4379C1280.9 157.155 1134.4 249.295 931.872 148.155C678.712 21.7324 511.832 -269.023 425.319 -152.547C338.805 -36.0707 257.107 34.1174 207.982 -76.7088C158.856 -187.536 215.003 -426.616 -30.6957 -413.407M1337.24 71.3906C1289.31 130.103 1142.8 222.243 940.275 121.104C687.116 -5.31914 520.236 -296.075 433.722 -179.599C347.208 -63.1225 265.51 7.06609 216.385 -103.761C167.259 -214.587 223.406 -453.668 -22.2926 -440.459M1345.64 44.3381C1297.71 103.051 1151.21 195.191 948.678 94.0523C695.519 -32.3712 528.639 -323.126 442.125 -206.651C355.611 -90.1743 273.913 -19.9857 224.788 -130.812C175.662 -241.639 231.809 -480.719 -13.8891 -467.511M1354.04 17.2855C1306.11 75.9977 1159.61 168.14 957.082 67.0003C703.922 -59.4227 537.042 -350.178 450.528 -233.702C364.015 -117.226 282.316 -47.0376 233.191 -157.864C184.065 -268.691 240.212 -507.771 -5.48651 -494.562M1362.45 -9.76717C1314.52 48.945 1168.01 141.088 965.485 39.9492C712.325 -86.4743 545.445 -377.23 458.931 -260.754C372.417 -144.278 290.719 -74.0895 241.594 -184.916C192.469 -295.742 248.616 -534.823 2.91703 -521.614M1370.85 -36.8197C1322.92 21.8979 1176.42 114.036 973.888 12.8972C720.728 -113.526 553.848 -404.281 467.334 -287.805C380.821 -171.329 299.122 -101.141 249.997 -211.968C200.872 -322.794 257.019 -561.875 11.3201 -548.666M1378.15 -58.8409C1330.21 -0.128068 1183.71 92.013 981.18 -9.12545C728.021 -135.549 561.141 -426.304 474.627 -309.828C388.113 -193.352 306.415 -123.164 257.29 -233.99C208.164 -344.817 264.311 -583.897 18.6129 -570.688M1385.15 -81.3874C1337.21 -22.6697 1190.71 69.4697 988.183 -31.6683C735.023 -158.092 568.143 -448.847 481.63 -332.371C395.116 -215.895 313.417 -145.706 264.292 -256.534C215.167 -367.36 271.314 -606.44 25.6155 -593.231M1393.55 -108.434C1345.62 -49.7223 1199.11 42.4187 996.586 -58.7203C743.426 -185.144 576.547 -475.899 490.033 -359.422C403.519 -242.947 321.82 -172.759 272.695 -283.585C223.57 -394.412 279.717 -633.492 34.0185 -620.283M1401.95 -135.486C1354.02 -76.7759 1207.52 15.3666 1004.99 -85.7724C751.829 -212.195 584.949 -502.95 498.436 -386.474C411.922 -269.999 330.224 -199.81 281.098 -310.637C231.974 -421.463 288.12 -660.544 42.4211 -647.335M1410.35 -162.539C1362.42 -103.829 1215.92 -11.6866 1013.39 -112.823C760.233 -239.247 593.353 -530.002 506.839 -413.526C420.325 -297.05 338.627 -226.862 289.502 -337.688C240.376 -448.515 296.523 -687.595 50.8247 -674.386M1418.76 -189.591C1370.83 -130.881 1224.33 -38.7392 1021.8 -139.875C768.636 -266.299 601.754 -557.052 515.242 -440.578C428.729 -324.102 347.03 -253.913 297.905 -364.74C248.78 -475.566 304.926 -714.646 59.2282 -701.438M1427.16 -216.643C1379.22 -157.928 1232.72 -65.7858 1030.2 -166.929C777.039 -293.35 610.158 -584.104 523.645 -467.63C437.132 -351.154 355.433 -280.965 306.308 -391.791C257.183 -502.618 313.329 -741.698 67.6308 -728.489M1435.57 -243.696C1387.63 -184.98 1241.13 -92.8384 1038.6 -193.976C785.442 -320.402 618.562 -611.157 532.049 -494.681C445.535 -378.205 363.837 -308.017 314.711 -418.843C265.586 -529.67 321.733 -768.75 76.0344 -755.541M1443.97 -270.748C1396.03 -212.032 1249.53 -119.891 1047 -221.028C793.845 -347.454 626.966 -638.21 540.451 -521.733C453.938 -405.257 372.239 -335.068 323.115 -445.895C273.989 -556.722 330.134 -795.8 84.4374 -782.593M1452.37 -297.8C1404.44 -239.085 1257.94 -146.943 1055.41 -248.081C802.247 -374.503 635.37 -665.262 548.855 -548.784C462.341 -432.309 380.643 -362.12 331.517 -472.946C282.393 -583.773 338.538 -822.852 92.84 -809.645M1460.77 -324.848C1412.84 -266.137 1266.34 -173.995 1063.81 -275.133C810.65 -401.556 643.774 -692.314 557.26 -575.839C470.744 -459.36 389.046 -389.172 339.921 -499.998C290.796 -610.825 346.942 -849.905 101.244 -836.696M1198.22 518.409C1150.29 577.124 1003.79 669.264 801.262 568.126C548.101 441.702 381.221 150.946 294.708 267.422C208.194 383.899 126.496 454.087 77.3702 343.26C28.2454 232.433 84.3919 -6.64646 -161.307 6.5624M1205.22 495.864C1157.29 554.579 1010.79 646.72 808.263 545.582C555.104 419.159 388.224 128.403 301.71 244.879C215.197 361.355 133.498 431.544 84.3727 320.717C35.2475 209.89 91.3941 -29.1899 -154.305 -15.9809M1213.63 468.812C1165.7 527.527 1019.19 619.667 816.667 518.53C563.507 392.107 396.627 101.352 310.113 217.828C223.599 334.304 141.901 404.492 92.776 293.666C43.6506 182.839 99.7975 -56.2412 -145.901 -43.0325M1222.03 441.76C1174.1 500.475 1027.6 592.615 825.07 491.478C571.91 365.055 405.03 74.3 318.517 190.776C232.003 307.252 150.304 377.441 101.179 266.614C52.0536 155.787 108.2 -83.2933 -137.498 -70.0846M1230.43 414.709C1182.5 473.423 1036 565.564 833.473 464.427C580.313 338.003 413.433 47.248 326.92 163.724C240.406 280.2 158.707 350.389 109.582 239.562C60.4572 128.735 116.604 -110.344 -129.094 -97.1361M1238.84 387.661C1190.9 446.371 1044.4 538.512 841.876 437.375C588.717 310.952 421.836 20.197 335.323 136.673C248.809 253.149 167.111 323.337 117.985 212.511C68.8602 101.683 125.007 -137.396 -120.692 -124.188M1247.24 360.609C1199.31 419.32 1052.8 511.46 850.279 410.324C597.12 283.9 430.24 -6.85489 343.726 109.621C257.212 226.097 175.514 296.286 126.389 185.459C77.2633 74.6323 133.41 -164.448 -112.288 -151.239M1255.65 333.557C1207.71 392.268 1061.21 484.412 858.682 383.272C605.523 256.849 438.643 -33.9068 352.129 82.5695C265.616 199.045 183.917 269.234 134.792 158.407C85.6669 47.5807 141.813 -191.5 -103.885 -178.291M1264.05 306.506C1216.11 365.216 1069.62 457.361 867.086 356.22C613.926 229.797 447.046 -60.9581 360.532 55.5176C274.019 171.994 192.32 242.182 143.195 131.356C94.0698 20.5288 150.216 -218.551 -95.4819 -205.342M1272.45 279.454C1224.52 338.164 1078.02 430.309 875.488 329.169C622.329 202.746 455.449 -88.0099 368.936 28.4658C282.422 144.942 200.723 215.131 151.598 104.304C102.473 -6.52301 158.619 -245.603 -87.0791 -232.394M1280.86 252.402C1232.92 311.112 1086.42 403.257 883.892 302.117C630.732 175.693 463.852 -115.062 377.338 1.41452C290.825 117.89 209.126 188.079 160.001 77.2524C110.876 -33.5744 167.023 -272.654 -78.6755 -259.446" stroke="white" stroke-opacity="0.15" stroke-width="0.544416"/>
</svg>