<svg xmlns="http://www.w3.org/2000/svg" width="173" height="34" viewBox="0 0 173 34" fill="none">
  <path d="M114.181 13.8119H115.241C115.41 13.8119 115.554 13.6673 115.554 13.4987V6.10226C115.554 5.93361 115.41 5.78906 115.241 5.78906H114.181C114.012 5.78906 113.868 5.93361 113.868 6.10226V13.4987C113.868 13.6673 114.012 13.8119 114.181 13.8119Z" fill="#262626"/>
  <path d="M108.037 7.54752H100.641L103.17 5.0178C103.291 4.89734 103.291 4.7046 103.17 4.56005L102.568 3.95773C102.448 3.83727 102.255 3.83727 102.11 3.95773L98.4 7.66798C98.3518 7.71617 98.3036 7.81255 98.3036 7.88482V8.72806C98.3036 8.89671 98.4482 9.04126 98.6168 9.04126H107.868C108.88 9.04126 109.723 9.86041 109.723 10.8723V12.2938H94.9307C94.7861 12.2938 94.6656 12.1492 94.6656 12.0046V3.95773C94.6656 3.78908 94.5211 3.64453 94.3284 3.64453H93.2683C93.0996 3.64453 92.9551 3.78908 92.9551 3.95773V12.101C92.9551 13.0165 93.7019 13.7634 94.6175 13.7634H110.35C110.952 13.7634 111.434 13.2816 111.434 12.6792V10.8964C111.434 9.01717 109.916 7.49934 108.037 7.49934" fill="#262626"/>
  <path d="M42.9389 6.92045H35.8797V4.10161C35.8797 3.95706 35.7593 3.8125 35.5906 3.8125H34.4342C34.2896 3.8125 34.1451 3.93297 34.1451 4.10161V12.3413H29.2784C29.2784 12.3413 29.2784 10.3898 29.2784 9.73927C29.2784 8.75148 28.917 7.78778 28.0978 7.13728C27.4714 6.63133 26.7005 6.4145 25.785 6.4145C24.8694 6.4145 24.4117 6.58315 23.8576 6.89635C23.3034 7.23365 22.8698 7.66732 22.5566 8.24554C22.2434 8.79967 22.0747 9.47425 22.0747 10.197C22.0747 12.0281 23.0384 13.835 25.8091 13.835H45.2999C45.9022 13.835 46.3841 13.3532 46.3841 12.7508V10.7753C46.3841 9.0165 46.0709 6.92045 42.9389 6.92045ZM27.5919 12.3172H25.8572C24.3876 12.3172 23.7853 11.2812 23.7853 10.1488C23.7853 9.0165 24.6767 7.90824 25.7609 7.90824C26.845 7.90824 27.5919 8.55874 27.5919 9.54653V12.3172ZM44.6735 12.3172H35.8797V8.43827H43.1798C44.3121 8.43827 44.6735 8.82375 44.6735 9.9802V12.3413V12.3172Z" fill="#262626"/>
  <path d="M15.3044 12.3174H11.4978V9.7154C11.4737 8.7276 11.1123 7.7639 10.2932 7.1134C9.66675 6.60746 8.89579 6.39062 7.98027 6.39062C7.06475 6.39062 6.607 6.55927 6.05287 6.87248C5.49874 7.20977 5.06507 7.64344 4.75187 8.22166C4.43867 8.77579 4.27002 9.45038 4.27002 10.1732C4.27002 12.0042 5.23372 13.8111 8.00437 13.8111H15.3044V12.3174ZM9.76312 12.3174H8.00437C6.53472 12.3174 5.9565 11.2814 5.9565 10.1491C5.9565 9.01672 6.84792 7.90845 7.93209 7.90845C9.01625 7.90845 9.76312 8.55896 9.76312 9.54675V12.3174Z" fill="#262626"/>
  <path d="M89.3889 7.22794C88.8348 6.89065 88.1843 6.74609 87.4615 6.74609H86.1605C85.9918 6.74609 85.8473 6.89065 85.8473 7.05929V7.92663C85.8473 8.11937 85.9918 8.26393 86.1846 8.23984H87.7506C88.0879 8.23984 88.377 8.31211 88.642 8.48076C88.907 8.64941 89.0998 8.89033 89.2443 9.20354C89.3889 9.51674 89.4612 9.90222 89.4612 10.3359V11.8778C89.4612 12.1187 89.2684 12.3115 89.0275 12.3115H84.474C84.3054 12.3115 84.1367 12.456 84.1367 12.6488V13.492C84.1367 13.6607 84.2813 13.8052 84.474 13.8052H89.1962C90.3044 13.8052 91.1717 12.9138 91.1717 11.8296V10.5286C91.1717 9.78176 91.0031 9.13126 90.6899 8.57713C90.3767 8.023 89.943 7.56524 89.3889 7.22794Z" fill="#262626"/>
  <path d="M114.469 3.90589V3.71314C114.469 3.56859 114.469 3.44812 114.541 3.35175C114.589 3.25538 114.662 3.1831 114.734 3.11083C114.806 3.06264 114.903 3.03855 115.023 3.03855H115.673C115.794 3.03855 115.89 2.94218 115.89 2.84581V2.41214C115.89 2.29168 115.794 2.19531 115.673 2.19531H114.927C114.083 2.19531 113.553 2.84581 113.553 3.39994V3.92997H113.192C113.071 3.92997 112.975 4.02635 112.975 4.14681V4.67684C112.975 4.79731 113.071 4.89367 113.192 4.89367H116.059C116.179 4.89367 116.276 4.79731 116.276 4.67684V4.14681C116.276 4.02635 116.179 3.92997 116.059 3.92997H114.493L114.469 3.90589Z" fill="#262626"/>
  <path d="M80.3057 12.3115H76.3546V10.5046C76.3546 8.43264 74.8608 6.74616 72.7166 6.74616C70.5724 6.74616 69.0063 8.31218 69.0063 10.5046V11.9261C69.0063 12.1429 68.8377 12.3356 68.5968 12.3356H65.7779C65.5852 12.3356 65.4406 12.1911 65.4406 11.9983V7.34848C65.4406 7.17983 65.2961 7.03528 65.1274 7.03528H64.0674C63.8987 7.03528 63.7301 7.17983 63.7301 7.34848V11.9261C63.7301 12.1429 63.5614 12.3356 63.3205 12.3356H57.5142C57.201 12.3356 56.9841 12.2634 56.8637 12.1429C56.7432 12.0224 56.6709 11.8297 56.6709 11.5406V6.6257C56.6709 6.45705 56.5264 6.3125 56.3577 6.3125H55.2736C55.1049 6.3125 54.9845 6.43296 54.9845 6.60161V7.03528H53.2016C51.226 7.05937 49.5396 8.28809 49.5396 10.336C49.5396 12.3838 50.9851 13.8294 53.0089 13.8294C55.0327 13.8294 55.5386 13.0102 55.7554 12.2634C55.8518 12.9861 56.2614 13.8294 57.996 13.8294H62.4532C63.5855 13.8294 64.1396 13.4921 64.3565 12.6488C64.4769 13.3716 64.8865 13.8294 65.8984 13.8294H67.9945C69.0545 13.8294 69.8014 13.468 69.9941 12.3356C70.4037 13.2993 71.6083 13.8294 72.7889 13.8294H80.3539C81.4622 13.8294 82.3536 12.938 82.3536 11.8297V7.34848C82.3536 7.17983 82.2091 7.03528 82.0404 7.03528H80.9803C80.8117 7.03528 80.643 7.17983 80.643 7.34848V11.9261C80.643 12.1429 80.4503 12.3356 80.2335 12.3356M55.0086 10.1432C55.0086 11.5647 54.0449 12.3115 53.1052 12.3115C52.1656 12.3115 51.2742 11.7092 51.2742 10.4323C51.2742 9.15542 52.1897 8.50492 53.2498 8.50492H55.0086V10.1432ZM74.644 12.3115H72.6684C71.7288 12.3115 70.6928 11.4683 70.6928 10.3119C70.6928 9.15542 71.5361 8.21581 72.5961 8.21581C73.6562 8.21581 74.6199 8.93859 74.6199 10.2637V12.3115H74.644Z" fill="#262626"/>
  <path d="M9.49812 13.7605C9.06446 14.9651 7.47435 15.5433 5.33011 15.3747C1.42711 15.0615 1.49939 11.3512 2.10171 9.66474C2.17398 9.49609 2.10171 9.30335 1.90896 9.23107L0.945262 8.74922C0.752522 8.65285 0.511595 8.74922 0.439317 8.91787C-0.596663 11.3994 -0.11481 16.6757 5.3542 17.0852C7.93211 17.278 10.6546 15.9047 11.3292 13.7364H9.49812V13.7605Z" fill="#262626"/>
  <path d="M20.0747 7.01172H18.9183C18.7737 7.01172 18.6292 7.13218 18.6292 7.30083V11.9266C18.6292 12.1675 18.4364 12.3362 18.2196 12.3362H14.9912V13.8299H18.3642C19.4483 13.8299 20.3398 12.9385 20.3398 11.8543V7.32492C20.3398 7.18036 20.2193 7.03581 20.0506 7.03581" fill="#262626"/>
  <path d="M78.6675 15.1602C78.0893 15.1602 77.6074 15.642 77.6074 16.2202C77.6074 16.7984 78.0893 17.2803 78.6675 17.2803C79.2457 17.2803 79.7276 16.7984 79.7276 16.2202C79.7276 15.642 79.2457 15.1602 78.6675 15.1602Z" fill="#262626"/>
  <path d="M81.4385 15.1602C80.8603 15.1602 80.3784 15.642 80.3784 16.2202C80.3784 16.7984 80.8603 17.2803 81.4385 17.2803C82.0167 17.2803 82.4986 16.7984 82.4986 16.2202C82.4986 15.642 82.0167 15.1602 81.4385 15.1602Z" fill="#262626"/>
  <path d="M59.6592 15.1602C59.081 15.1602 58.5991 15.642 58.5991 16.2202C58.5991 16.7984 59.081 17.2803 59.6592 17.2803C60.2374 17.2803 60.7193 16.7984 60.7193 16.2202C60.7193 15.642 60.2374 15.1602 59.6592 15.1602Z" fill="#262626"/>
  <path d="M62.4302 15.1602C61.852 15.1602 61.3701 15.642 61.3701 16.2202C61.3701 16.7984 61.852 17.2803 62.4302 17.2803C63.0084 17.2803 63.4903 16.7984 63.4903 16.2202C63.4903 15.642 63.0084 15.1602 62.4302 15.1602Z" fill="#262626"/>
  <path d="M16.1963 15.1602C15.6181 15.1602 15.1362 15.642 15.1362 16.2202C15.1362 16.7984 15.6181 17.2803 16.1963 17.2803C16.7745 17.2803 17.2564 16.7984 17.2564 16.2202C17.2564 15.642 16.7745 15.1602 16.1963 15.1602Z" fill="#262626"/>
  <path d="M18.9902 15.1602C18.412 15.1602 17.9302 15.642 17.9302 16.2202C17.9302 16.7984 18.412 17.2803 18.9902 17.2803C19.5685 17.2803 20.0503 16.7984 20.0503 16.2202C20.0503 15.642 19.5685 15.1602 18.9902 15.1602Z" fill="#262626"/>
  <path d="M52.8169 5.44827C53.3951 5.44827 53.877 4.96642 53.877 4.3882C53.877 3.80998 53.3951 3.32812 52.8169 3.32812C52.2387 3.32812 51.7568 3.80998 51.7568 4.3882C51.7568 4.96642 52.2387 5.44827 52.8169 5.44827Z" fill="#262626"/>
  <path d="M55.6109 5.44827C56.1891 5.44827 56.6709 4.96642 56.6709 4.3882C56.6709 3.80998 56.1891 3.32812 55.6109 3.32812C55.0326 3.32812 54.5508 3.80998 54.5508 4.3882C54.5508 4.96642 55.0326 5.44827 55.6109 5.44827Z" fill="#262626"/>
  <path d="M6.34181 5.44827C6.92003 5.44827 7.40188 4.96642 7.40188 4.3882C7.40188 3.80998 6.92003 3.32812 6.34181 3.32812C5.76359 3.32812 5.28174 3.80998 5.28174 4.3882C5.28174 4.96642 5.76359 5.44827 6.34181 5.44827Z" fill="#262626"/>
  <path d="M9.13722 5.44827C9.71544 5.44827 10.1973 4.96642 10.1973 4.3882C10.1973 3.80998 9.71544 3.32812 9.13722 3.32812C8.559 3.32812 8.07715 3.80998 8.07715 4.3882C8.07715 4.96642 8.559 5.44827 9.13722 5.44827Z" fill="#262626"/>
  <path d="M27.5912 11.4688V15.3958C27.5912 15.7331 27.4467 15.9018 27.1334 15.9018H23.5918C23.4473 15.9018 23.3027 16.0222 23.3027 16.1909V17.1305C23.3027 17.2751 23.4232 17.4196 23.5918 17.4196H27.3021C28.4104 17.4196 29.3018 16.5282 29.3018 15.4199V11.4928H27.5912V11.4688Z" fill="#262626"/>
  <path d="M3.37816 30.5291V21.4703H0.342501C0.173853 21.4703 0.0292969 21.3257 0.0292969 21.1571V20.2898C0.0292969 20.1211 0.173853 19.9766 0.342501 19.9766H8.1003C8.26895 19.9766 8.41351 20.1211 8.41351 20.2898V21.1571C8.41351 21.3257 8.26895 21.4703 8.1003 21.4703H5.06464V30.5291C5.06464 30.6977 4.92009 30.8423 4.75144 30.8423H3.69136C3.52272 30.8423 3.37816 30.6977 3.37816 30.5291Z" fill="#262626"/>
  <path d="M10.9434 30.9622C10.3652 30.9622 9.83512 30.8418 9.37736 30.5768C8.9196 30.3118 8.55822 29.9504 8.2932 29.4685C8.02818 28.9867 7.90771 28.4325 7.90771 27.7579V23.4695C7.90771 23.3008 8.05227 23.1562 8.24501 23.1562H9.20872C9.37736 23.1562 9.52192 23.3008 9.52192 23.4695V27.6375C9.52192 28.288 9.69056 28.7939 10.0279 29.1071C10.3652 29.4203 10.8229 29.589 11.4252 29.589C12.0275 29.589 12.6058 29.3721 13.0153 28.9385C13.4249 28.5048 13.6177 27.8543 13.6177 27.0352V23.4936C13.6177 23.3249 13.7622 23.1804 13.9309 23.1804H14.8946C15.0632 23.1804 15.2078 23.3249 15.2078 23.4936V30.5286C15.2078 30.6972 15.0632 30.8418 14.8946 30.8418H13.9068C13.7622 30.8418 13.6417 30.7213 13.6417 30.5768V29.0348C13.4008 29.7335 12.5576 30.9863 10.9434 30.9863" fill="#262626"/>
  <path d="M17.7624 30.5768L16.5578 23.5417C16.5337 23.349 16.6783 23.1562 16.871 23.1562H17.8347C17.9793 23.1562 18.1238 23.2767 18.1479 23.4213L19.0634 29.7576H19.3284L20.6294 23.4213C20.6535 23.2767 20.774 23.1804 20.9426 23.1804H23.0387C23.1833 23.1804 23.3037 23.2767 23.3519 23.4213L24.6288 29.7576H24.8697L25.8093 23.4213C25.8093 23.2767 25.9539 23.1562 26.1225 23.1562H27.0862C27.279 23.1562 27.4476 23.349 27.3995 23.5417L26.1948 30.5768C26.1707 30.7213 26.0503 30.8418 25.8816 30.8418H23.6892C23.5446 30.8418 23.4242 30.7454 23.376 30.6009L22.0268 24.1922H21.9064L20.5572 30.6009C20.5331 30.7454 20.4126 30.8418 20.244 30.8418H18.0515C17.907 30.8418 17.7624 30.7213 17.7383 30.5768" fill="#262626"/>
  <path d="M31.0371 31.0626C30.483 31.0626 30.0011 30.9662 29.5675 30.7734C29.1338 30.5807 28.7965 30.3157 28.5315 29.9543C28.2665 29.5929 28.146 29.1592 28.146 28.6292C28.146 28.0992 28.2665 27.6655 28.5315 27.3041C28.7965 26.9668 29.1338 26.7018 29.5675 26.5091C30.0011 26.3404 30.5071 26.2441 31.0853 26.2441H33.4223V25.7381C33.4223 25.3044 33.2777 24.943 33.0127 24.6539C32.7477 24.3889 32.314 24.2444 31.7599 24.2444C31.2058 24.2444 30.7962 24.3648 30.483 24.6298C30.2661 24.8226 30.0975 25.0635 29.977 25.3526C29.9288 25.4972 29.7602 25.5935 29.6156 25.5454L28.6278 25.2803C28.4351 25.2322 28.3387 25.0394 28.4351 24.8467C28.5797 24.5335 28.7965 24.2444 29.0133 24.0034C29.2783 23.6661 29.6638 23.4011 30.1216 23.1843C30.5793 22.9675 31.1335 22.8711 31.784 22.8711C32.7718 22.8711 33.5668 23.1361 34.145 23.642C34.7233 24.148 35.0124 24.8708 35.0124 25.8104V28.9665C35.0124 29.2797 35.1569 29.4243 35.446 29.4243H35.8556C36.0002 29.4243 36.1206 29.5447 36.1206 29.6893V30.5084C36.1206 30.653 36.0002 30.7734 35.8556 30.7734H34.916C33.9523 30.7734 33.7355 29.9784 33.7355 29.4965C33.4945 30.1711 32.6513 30.6048 32.3381 30.7493C32.0249 30.8939 31.5912 30.9662 31.0612 30.9662M31.278 29.7375C31.9285 29.7375 32.4345 29.5447 32.844 29.1833C33.2295 28.8219 33.4464 28.316 33.4464 27.6655V27.521H31.2057C30.7721 27.521 30.4348 27.6173 30.1698 27.786C29.9048 27.9787 29.7843 28.2437 29.7843 28.581C29.7843 28.9183 29.9288 29.2074 30.1939 29.4243C30.4589 29.6411 30.8444 29.7375 31.3021 29.7375" fill="#262626"/>
  <path d="M72.8857 31.0626C72.3316 31.0626 71.8498 30.9662 71.4161 30.7734C70.9824 30.5807 70.6451 30.3157 70.3801 29.9543C70.1151 29.5929 69.9946 29.1592 69.9946 28.6292C69.9946 28.0992 70.1151 27.6655 70.3801 27.3041C70.6451 26.9668 70.9824 26.7018 71.4161 26.5091C71.8498 26.3404 72.3557 26.2441 72.9339 26.2441H75.2709V25.7381C75.2709 25.3044 75.1263 24.943 74.8613 24.6539C74.5963 24.3889 74.1626 24.2444 73.6085 24.2444C73.0544 24.2444 72.6448 24.3648 72.3316 24.6298C72.1148 24.8226 71.9461 25.0635 71.8257 25.3526C71.7775 25.4972 71.6088 25.5935 71.4643 25.5454L70.4765 25.2803C70.2837 25.2322 70.1874 25.0394 70.2837 24.8467C70.4283 24.5335 70.6451 24.2444 70.862 24.0034C71.127 23.6661 71.5125 23.4011 71.9702 23.1843C72.428 22.9675 72.9821 22.8711 73.6326 22.8711C74.6204 22.8711 75.4155 23.1361 75.9937 23.642C76.5719 24.148 76.861 24.8708 76.861 25.8104V28.9665C76.861 29.2797 77.0056 29.4243 77.2947 29.4243H77.7042C77.8488 29.4243 77.9693 29.5447 77.9693 29.6893V30.5084C77.9693 30.653 77.8488 30.7734 77.7042 30.7734H76.7646C75.8009 30.7734 75.5841 29.9784 75.5841 29.4965C75.3432 30.1711 74.4999 30.6048 74.1867 30.7493C73.8735 30.8939 73.4399 30.9662 72.9098 30.9662M73.1267 29.7375C73.7772 29.7375 74.2831 29.5447 74.6927 29.1833C75.0782 28.8219 75.295 28.316 75.295 27.6655V27.521H73.0544C72.6207 27.521 72.2834 27.6173 72.0184 27.786C71.7534 27.9787 71.6329 28.2437 71.6329 28.581C71.6329 28.9183 71.7775 29.2074 72.0425 29.4243C72.3075 29.6411 72.693 29.7375 73.1508 29.7375" fill="#262626"/>
  <path d="M37.8544 22.1228C37.5411 22.1228 37.2761 22.0264 37.0593 21.8096C36.8425 21.6168 36.7461 21.3518 36.7461 21.0145C36.7461 20.6772 36.8425 20.4363 37.0593 20.2195C37.2761 20.0267 37.5411 19.9062 37.8544 19.9062C38.1676 19.9062 38.4326 20.0026 38.6494 20.2195C38.8662 20.4122 38.9626 20.6772 38.9626 21.0145C38.9626 21.3518 38.8662 21.5927 38.6494 21.8096C38.4326 22.0023 38.1676 22.1228 37.8544 22.1228ZM37.0352 30.507V23.496C37.0352 23.3274 37.1798 23.1828 37.3484 23.1828H38.3121C38.4808 23.1828 38.6253 23.3274 38.6253 23.496V30.507C38.6253 30.6756 38.4808 30.8202 38.3121 30.8202H37.3484C37.1798 30.8202 37.0352 30.6756 37.0352 30.507Z" fill="#262626"/>
  <path d="M46.6007 33.955C46.4321 33.955 46.2875 33.8104 46.2875 33.6418V29.4256C46.0707 30.0279 44.9865 31.0639 43.4446 31.0639C41.9027 31.0639 42.2159 30.9193 41.6618 30.6061C41.1317 30.2929 40.6981 29.8592 40.3608 29.2569C40.0476 28.6787 39.8789 27.9559 39.8789 27.1368V26.8958C39.8789 26.0767 40.0476 25.3539 40.3608 24.7757C40.6981 24.1975 41.1317 23.7397 41.6618 23.4265C42.1918 23.1133 42.8423 22.9688 43.4687 22.9688C45.0347 22.9688 46.0948 24.0529 46.2875 24.8721V23.4747C46.2875 23.3061 46.4321 23.1856 46.5766 23.1856H47.5403C47.709 23.1856 47.8535 23.3301 47.8535 23.4988V33.6418C47.8535 33.8104 47.709 33.955 47.5403 33.955H46.5766H46.6007ZM43.8783 29.6424C44.577 29.6424 45.1552 29.4256 45.6129 28.9678C46.0707 28.5341 46.2875 27.8836 46.2875 27.0645V26.9199C46.2875 26.1008 46.0707 25.4744 45.6129 25.0166C45.1552 24.5589 44.577 24.342 43.8783 24.342C43.1796 24.342 42.6255 24.5589 42.1677 25.0166C41.7099 25.4503 41.4931 26.1008 41.4931 26.9199V27.0645C41.4931 27.8836 41.7099 28.5341 42.1677 28.9678C42.6255 29.4015 43.1796 29.6424 43.8783 29.6424Z" fill="#262626"/>
  <path d="M51.7568 30.5096L54.7202 20.1498C54.7443 20.0293 54.8647 19.957 54.9611 19.957H57.539C57.6595 19.957 57.7558 20.0293 57.7799 20.1498L60.7433 30.5096C60.7915 30.6782 60.671 30.8469 60.5024 30.8469H59.3219C59.2014 30.8469 59.105 30.7746 59.0809 30.6541L58.4063 28.269H54.1179L53.4433 30.6541C53.4192 30.7746 53.2987 30.8469 53.2024 30.8469H51.9977C51.8291 30.8469 51.7086 30.6782 51.7568 30.5096ZM54.5515 26.727H57.9968L56.4067 21.0171H56.1657L54.5756 26.727H54.5515Z" fill="#262626"/>
  <path d="M65.0801 31.0593C64.3332 31.0593 63.6827 30.9147 63.0804 30.6015C62.4781 30.2883 61.9962 29.8306 61.6589 29.2523C61.3216 28.65 61.1289 27.9513 61.1289 27.1322V26.9395C61.1289 26.1203 61.2975 25.3975 61.6589 24.8193C61.9962 24.2411 62.4781 23.7833 63.0804 23.4701C63.6827 23.1569 64.3573 22.9883 65.0801 22.9883C65.8029 22.9883 66.4534 23.1328 66.9593 23.3978C67.4893 23.6629 67.8989 24.0242 68.2121 24.482C68.4771 24.8434 68.6699 25.253 68.7662 25.6866C68.8144 25.8312 68.7181 25.9758 68.5735 25.9999L67.5375 26.2167C67.393 26.2408 67.2725 26.1685 67.2243 26.0239C67.152 25.783 67.0798 25.5421 66.9352 25.3493C66.7666 25.0602 66.5256 24.8434 66.2365 24.6748C65.9233 24.5061 65.5619 24.4338 65.1042 24.4338C64.6464 24.4338 64.2609 24.5302 63.8996 24.747C63.5382 24.9398 63.2491 25.2289 63.0563 25.6144C62.8395 25.9998 62.7431 26.4576 62.7431 26.9876V27.1322C62.7431 27.6622 62.8395 28.1441 63.0563 28.5055C63.2731 28.8909 63.5382 29.1801 63.8996 29.3728C64.2609 29.5655 64.6705 29.6619 65.1042 29.6619C65.7788 29.6619 66.3088 29.4933 66.6461 29.1319C66.9352 28.8428 67.152 28.4814 67.2725 28.0477C67.3207 27.9032 67.4412 27.8309 67.5857 27.855L68.6217 28.0959C68.7662 28.12 68.8626 28.2886 68.8144 28.4332C68.694 28.8669 68.4771 29.2523 68.2362 29.6137C67.923 30.0474 67.4893 30.4088 66.9834 30.6738C66.4534 30.9388 65.827 31.0593 65.1042 31.0593" fill="#262626"/>
  <path d="M81.5104 31.0637C80.884 31.0637 80.2816 30.9191 79.7516 30.6059C79.2216 30.2927 78.7879 29.8591 78.4506 29.2568C78.1133 28.6785 77.9688 27.9558 77.9688 27.1366V26.8957C77.9688 26.0765 78.1374 25.3779 78.4506 24.7755C78.7638 24.1732 79.1975 23.7396 79.7516 23.4264C80.2816 23.1132 80.8839 22.9686 81.5344 22.9686C83.2691 22.9686 84.1364 24.125 84.3774 24.6551V20.2221C84.3774 20.0775 84.4978 19.957 84.6424 19.957H85.7266C85.8711 19.957 85.9916 20.0775 85.9916 20.2221V30.5819C85.9916 30.7264 85.8711 30.8469 85.7266 30.8469H84.6665C84.5219 30.8469 84.4015 30.7264 84.4015 30.5819V29.4013C84.2328 29.9073 83.4137 31.0637 81.5344 31.0637M81.9681 29.6422C82.6668 29.6422 83.245 29.4254 83.7028 28.9677C84.1605 28.534 84.3774 27.8835 84.3774 27.0643V26.9198C84.3774 26.1006 84.1605 25.4742 83.7028 25.0165C83.245 24.5587 82.6668 24.3419 81.9681 24.3419C81.2694 24.3419 80.7153 24.5587 80.2575 25.0165C79.7998 25.4501 79.583 26.1006 79.583 26.9198V27.0643C79.583 27.8835 79.7998 28.534 80.2575 28.9677C80.7153 29.4013 81.2694 29.6422 81.9681 29.6422Z" fill="#262626"/>
  <path d="M91.0519 31.0593C90.281 31.0593 89.5823 30.8906 89.004 30.5774C88.4258 30.2401 87.9681 29.7824 87.6308 29.2042C87.2935 28.6018 87.1489 27.9272 87.1489 27.1322V26.9395C87.1489 26.1444 87.3176 25.4457 87.6308 24.8434C87.944 24.2411 88.4017 23.7833 88.98 23.4701C89.5582 23.1328 90.2328 22.9883 90.9796 22.9883C91.7265 22.9883 92.377 23.1569 92.9311 23.4701C93.4853 23.8074 93.9189 24.2411 94.2321 24.8193C94.5453 25.3975 94.6899 26.0721 94.6899 26.8672V27.4695H88.7631C88.7631 28.1441 89.004 28.6741 89.4377 29.0837C89.8714 29.4933 90.4014 29.686 91.0519 29.686C91.7024 29.686 92.112 29.5415 92.4252 29.2764C92.6661 29.0596 92.8589 28.8187 93.0275 28.5537C93.0998 28.4332 93.2443 28.385 93.3648 28.4573L94.2321 28.891C94.3767 28.9632 94.4249 29.1319 94.3285 29.2523C94.2081 29.4692 94.0394 29.686 93.8226 29.9269C93.5575 30.2401 93.1962 30.5051 92.7384 30.7461C92.2806 30.9629 91.7265 31.0834 91.0278 31.0834M88.8113 26.2167H93.0757C93.0275 25.6385 92.8348 25.1807 92.4493 24.8675C92.0638 24.5302 91.582 24.3856 90.9796 24.3856C90.3773 24.3856 89.8955 24.5543 89.51 24.8675C89.1245 25.2048 88.9077 25.6385 88.8113 26.2167Z" fill="#262626"/>
  <path d="M95.8705 30.5833V23.4519C95.8705 23.3073 95.9909 23.1869 96.1355 23.1869H97.1955C97.3401 23.1869 97.4606 23.3073 97.4606 23.4519V24.512C97.7979 23.7651 98.4965 23.0664 99.7253 23.0664C100.954 23.0664 100.761 23.1869 101.099 23.4278C101.412 23.6446 101.845 24.1747 101.99 24.7047C102.135 24.2469 102.93 23.0905 104.351 23.0905C105.772 23.0905 105.291 23.1869 105.676 23.4037C106.062 23.5964 106.375 23.9096 106.592 24.2951C106.833 24.7047 106.929 25.1865 106.929 25.7889V30.6315C106.929 30.776 106.808 30.8965 106.664 30.8965H105.58C105.435 30.8965 105.315 30.776 105.315 30.6315V25.9093C105.315 25.4516 105.194 25.0902 104.929 24.8252C104.664 24.5601 104.303 24.4397 103.845 24.4397C103.387 24.4397 102.954 24.6083 102.64 24.9215C102.327 25.2347 102.183 25.6925 102.183 26.2948V30.6074C102.183 30.7519 102.062 30.8724 101.918 30.8724H100.834C100.689 30.8724 100.569 30.7519 100.569 30.6074V25.8852C100.569 25.4275 100.448 25.0661 100.183 24.8011C99.918 24.5361 99.5566 24.4156 99.0989 24.4156C98.6411 24.4156 98.2074 24.5842 97.8942 24.8974C97.581 25.2106 97.4365 25.6684 97.4365 26.2707V30.5833C97.4365 30.7278 97.316 30.8483 97.1715 30.8483H96.0873C95.9427 30.8483 95.8223 30.7278 95.8223 30.5833" fill="#262626"/>
  <path d="M109.242 33.6879V32.8206C109.242 32.6761 109.362 32.5556 109.507 32.5556H113.53C113.819 32.5556 113.964 32.411 113.964 32.0978V29.3031C113.843 29.809 113 30.9896 111.29 30.9896C109.579 30.9896 110.181 30.8691 109.724 30.6041C109.266 30.3391 108.904 29.9777 108.639 29.4958C108.374 29.014 108.254 28.4599 108.254 27.8094V23.4486C108.254 23.3041 108.374 23.1836 108.519 23.1836H109.603C109.748 23.1836 109.868 23.3041 109.868 23.4486V27.6889C109.868 28.3635 110.037 28.8453 110.374 29.1585C110.711 29.4717 111.169 29.6404 111.771 29.6404C112.374 29.6404 112.952 29.4236 113.362 28.9899C113.771 28.5562 113.964 27.9298 113.964 27.0866V23.4727C113.964 23.3282 114.084 23.2077 114.229 23.2077H115.313C115.458 23.2077 115.578 23.3282 115.578 23.4727V32.1219C115.578 33.1579 114.735 34.0011 113.699 34.0011H109.507C109.362 34.0011 109.242 33.8807 109.242 33.7361" fill="#262626"/>
  <path d="M171.086 21.7797H164.051C162.991 21.7797 162.124 20.9123 162.124 19.8523V12.8172C162.124 11.7572 161.257 10.8898 160.197 10.8898H153.162C152.101 10.8898 151.234 10.0225 151.234 8.96243V1.9274C151.234 0.867332 150.367 0 149.307 0H142.248C141.188 0 140.32 0.867332 140.32 1.9274V8.36012C140.32 9.95023 139.622 11.444 138.393 12.4799L126.298 22.5506C125.672 23.0807 125.311 23.8516 125.311 24.6467V32.6695C125.311 33.7296 126.539 34.3078 127.334 33.6332L139.67 23.3457C140.103 22.9843 140.368 22.4302 140.368 21.876V13.3232C140.368 11.9981 141.453 10.9139 142.778 10.9139H149.259C150.319 10.9139 151.186 11.7813 151.186 12.8413V19.8764C151.186 20.9364 152.053 21.8038 153.113 21.8038H160.148C161.208 21.8038 162.076 22.6711 162.076 23.7312V30.7662C162.076 31.8263 162.943 32.6936 164.003 32.6936H171.062C172.122 32.6936 172.99 31.8263 172.99 30.7662V23.7071C172.99 22.647 172.122 21.7797 171.062 21.7797" fill="#4A2BAD"/>
  <path d="M147.187 25.4922C147.596 25.2031 147.645 25.1549 147.645 25.3236L147.331 25.8777C147.211 26.1668 146.777 25.7572 147.187 25.4681V25.4922Z" fill="#4A2BAD"/>
  <path d="M143.838 26.2593C144.031 25.9942 144.248 25.7533 144.489 25.5124C144.513 25.4883 144.633 25.3438 144.682 25.3438C144.682 25.3438 144.682 25.3437 144.682 25.3678C144.682 25.3678 144.682 25.3919 144.682 25.416C144.585 25.5847 143.887 26.8375 143.887 27.0784C143.887 27.3193 144.417 27.1748 144.561 27.0543C144.658 26.982 144.633 26.8616 144.658 26.7411C144.658 26.5243 144.537 26.3315 144.73 26.1629C144.85 26.0424 145.115 25.9461 145.26 26.0424C145.621 26.2834 145.091 26.8375 144.923 27.0302C144.73 27.2712 144.489 27.4639 144.224 27.6084C144.079 27.7048 143.67 27.9939 143.501 27.8494C143.477 27.8253 143.453 27.7771 143.453 27.753C143.308 27.1748 143.549 26.6929 143.887 26.2352L143.838 26.2593Z" fill="#4A2BAD"/>
  <path d="M144.032 29.1314C143.863 29.3241 143.188 29.3241 143.188 29.3241C143.188 29.3241 143.743 28.8423 144.032 28.6254C144.345 28.3845 144.899 27.6858 145.116 27.4449C145.333 27.204 145.718 26.698 145.839 26.5535C145.959 26.4089 146.296 26.0234 146.296 26.0234C146.296 26.0234 146.489 26.4089 145.983 27.0353C145.766 27.3003 145.26 27.7822 144.995 28.0713C144.73 28.3845 144.176 28.9386 144.008 29.1314H144.032Z" fill="#4A2BAD"/>
  <path d="M148.537 26.017C148.489 26.017 148.441 26.017 148.392 26.0411C148.32 26.0652 148.344 26.0893 148.344 26.1857C148.344 26.3543 148.344 26.523 148.296 26.6675C148.296 26.7639 148.248 26.8362 148.2 26.9085C148.103 27.053 147.91 27.0771 147.766 27.2217C147.645 27.3421 147.501 27.4867 147.405 27.6312C147.332 27.7276 147.26 28.0167 147.236 28.1372C147.164 28.5708 146.152 28.9322 145.646 28.9322C144.923 28.9322 145.477 28.4986 145.574 28.4263C145.574 28.4263 145.598 28.4263 145.622 28.4263L146.585 28.3299C147.019 28.2817 147.14 27.7035 146.947 27.559C146.754 27.3903 146.585 27.3421 146.561 27.0289C146.561 26.8844 146.778 26.3061 147.284 26.5712C147.573 26.7157 147.862 26.6916 147.862 26.6916V26.5712L147.814 26.0652C147.477 26.1375 147.573 25.8966 147.597 25.7761C147.645 25.6556 147.766 25.7038 148.055 25.5593C148.32 25.4388 148.416 25.3906 148.465 25.3906L148.537 25.9206C148.537 25.9688 148.537 25.9929 148.465 26.017H148.537Z" fill="#4A2BAD"/>
</svg>