<svg xmlns="http://www.w3.org/2000/svg" width="60" height="81" viewBox="0 0 60 81" fill="none">
  <path d="M40.2236 80.095C37.8207 80.095 35.4417 79.3018 33.5174 77.861L0 52.6794L2.50309 51.2735C3.4082 50.7658 4.43348 50.4961 5.46675 50.4961C6.78638 50.4961 8.03992 50.9148 9.09122 51.7052L46.8879 80.095H40.2196H40.2236Z" fill="#003A5D"/>
  <path d="M12.9923 80.095L50.7849 51.7052C51.8382 50.9148 53.0918 50.4961 54.4094 50.4961C55.4467 50.4961 56.4679 50.7658 57.373 51.2735L59.8801 52.6794L26.3608 77.861C24.4344 79.3018 22.0555 80.095 19.6565 80.095H12.9883H12.9923Z" fill="#003A5D"/>
  <path d="M26.7178 59.9581L29.9397 62.2241L33.1597 59.9581V47.4895C31.9742 47.4006 30.9209 47.3594 29.9397 47.3594C28.9585 47.3594 27.9052 47.4006 26.7178 47.4895V59.9581Z" fill="#003A5D"/>
  <path d="M41.1508 42.4177C31.2807 30.1776 14.4319 26.3822 7.60547 26.3822V18.0898C31.2006 18.185 46.8919 36.0645 48.5259 37.9845L41.1508 42.4177Z" fill="#824B97"/>
  <path d="M30.1139 42.95C33.8745 42.95 37.5991 43.4546 41.1916 44.4543C41.2076 44.4417 41.2236 44.4288 41.2396 44.4194C43.8648 42.5249 46.3139 40.3606 48.5286 37.9835C45.4608 36.7618 42.2709 35.8478 39.0369 35.2607C36.1233 34.7307 33.1216 34.4609 30.1159 34.4609C27.1122 34.4609 24.1766 34.7245 21.281 35.2417C18.045 35.8224 14.8491 36.7331 11.7793 37.9518C13.976 40.313 16.413 42.4678 19.0262 44.3656C19.4307 44.2957 19.8352 44.2196 20.2337 44.1369C20.8024 43.9973 21.3871 43.8671 21.9599 43.753C24.6231 43.2167 27.3685 42.947 30.1159 42.947" fill="#003A5D"/>
  <path d="M18.7472 2.01172C28.6173 14.2519 45.4661 18.0474 52.2925 18.0474V26.3397C28.6974 26.2444 13.0061 8.36504 11.3721 6.44509L18.7472 2.01172Z" fill="#03A8A0"/>
  <path d="M11.3711 6.44853C14.4249 7.66397 17.6148 8.5811 20.8568 9.17137C23.7864 9.70135 26.7921 9.9711 29.7938 9.9711C32.7955 9.9711 35.8052 9.70135 38.7328 9.17137C41.9728 8.5811 45.1628 7.66714 48.2165 6.44853C46.0138 4.07477 43.5668 1.90409 40.9396 0C40.8034 0.0222144 40.6672 0.0444288 40.5331 0.0729902C39.4277 0.368124 38.2803 0.628351 37.1369 0.834627C34.7219 1.26622 32.2529 1.48519 29.7938 1.48519C27.3348 1.48519 24.8657 1.26622 22.4528 0.834627C21.3113 0.628351 20.1659 0.371298 19.0446 0.0698167C18.9224 0.0476023 18.7842 0.0222144 18.6541 0C16.0308 1.90092 13.5798 4.06842 11.3751 6.44853" fill="#003A5D"/>
  <path d="M52.3081 26.3313C52.5364 24.9762 52.6505 23.6021 52.6545 22.2438V22.2026C52.6545 20.8253 52.5324 19.4449 52.3041 18.0898L7.57093 18.1057C7.34265 19.4608 7.22852 20.8349 7.22852 22.1932V22.2312C7.22852 23.6085 7.34667 24.989 7.57695 26.3441L52.3081 26.3283V26.3313Z" fill="#003A5D"/>
</svg>