<svg width="34" height="32" viewBox="0 0 34 32" fill="none" xmlns="http://www.w3.org/2000/svg">
<path opacity="0.4" fill-rule="evenodd" clip-rule="evenodd" d="M3.07556 25.3748C1.33174 23.6244 1.28134 21.2614 1.18056 16.5353C1.14815 15.0157 1.14815 13.5051 1.18055 11.9855C1.28134 7.25947 1.33173 4.89646 3.07555 3.146C4.81938 1.39554 7.24634 1.33457 12.1003 1.21262C15.0919 1.13746 18.054 1.13746 21.0456 1.21263C25.8995 1.33459 28.3265 1.39556 30.0703 3.14602C31.8141 4.89648 31.8645 7.25949 31.9653 11.9855C31.9977 13.5051 31.9977 15.0157 31.9653 16.5353C31.8645 21.2613 31.8141 23.6244 30.0703 25.3748C29.85 25.596 29.6188 25.7901 29.3732 25.9609C27.1257 24.7197 24.322 24.7499 22.1015 26.0514C22.0051 26.1079 21.8932 26.1703 21.7712 26.2382C21.2732 26.5156 20.6088 26.8857 20.1573 27.3283C17.4668 27.3826 14.7955 27.3759 12.1003 27.3082C7.24635 27.1863 4.81938 27.1253 3.07556 25.3748ZM25.8169 21.9688C27.5198 21.9688 28.9002 20.5883 28.9002 18.8854C28.9002 17.1825 27.5198 15.8021 25.8169 15.8021C24.114 15.8021 22.7336 17.1825 22.7336 18.8854C22.7336 20.5883 24.114 21.9688 25.8169 21.9688Z" fill="#01778F"/>
<path d="M21.0165 2.36853C18.0443 2.29383 15.1015 2.29382 12.1293 2.36852C9.66778 2.43038 7.94777 2.47654 6.62006 2.70783C5.34435 2.93007 4.54891 3.30573 3.89482 3.96251C3.23613 4.6239 2.86634 5.40957 2.65112 6.64927C2.42635 7.94403 2.38768 9.6146 2.33654 12.0134C2.30449 13.517 2.30449 15.0117 2.33654 16.5153C2.38768 18.9141 2.42635 20.5847 2.65113 21.8794C2.86635 23.1191 3.23614 23.9048 3.89482 24.5662C4.54891 25.223 5.34435 25.5986 6.62007 25.8209C7.94778 26.0522 9.66779 26.0983 12.1293 26.1602C13.058 26.1835 14.2673 26.1996 15.0443 26.2084C15.6829 26.2156 16.1946 26.7391 16.1874 27.3777C16.1802 28.0162 15.6567 28.528 15.0182 28.5208C14.2401 28.512 13.0171 28.4957 12.0712 28.4719L11.9815 28.4697C9.63075 28.4106 7.73916 28.3631 6.22319 28.099C4.63598 27.8225 3.34602 27.2922 2.25629 26.198C1.17116 25.1084 0.643839 23.8367 0.372708 22.275C0.114534 20.7878 0.0752113 18.9419 0.0264974 16.6551L0.0245683 16.5646C-0.00818873 15.0281 -0.00818946 13.5006 0.0245663 11.9641L0.0264952 11.8736C0.0752071 9.58679 0.114528 7.74086 0.372702 6.25372C0.643832 4.69196 1.17115 3.42027 2.25629 2.33068C3.34602 1.23647 4.63598 0.706146 6.22318 0.429645C7.73916 0.165552 9.63078 0.118043 11.9815 0.0590016L12.0712 0.0567487C15.0822 -0.0189198 18.0637 -0.018916 21.0746 0.0567588L21.1643 0.059012C23.5151 0.118058 25.4067 0.165571 26.9227 0.429666C28.5099 0.70617 29.7998 1.2365 30.8896 2.3307C31.9747 3.42029 32.502 4.69198 32.7731 6.25375C33.0313 7.74089 33.0706 9.58682 33.1193 11.8736L33.1213 11.9641C33.1241 12.0979 33.1263 12.141 33.1288 12.1882L33.1308 12.2289C33.135 12.3184 33.1376 12.4266 33.1396 12.7105C33.1442 13.349 32.6302 13.8704 31.9917 13.875C31.3531 13.8795 30.8317 13.3656 30.8272 12.727C30.8251 12.4455 30.8227 12.3766 30.8208 12.3363L30.8192 12.3038C30.8165 12.252 30.8129 12.1818 30.8093 12.0134C30.7582 9.61462 30.7195 7.94405 30.4947 6.64929C30.2795 5.40959 29.9097 4.62392 29.251 3.96253C28.5969 3.30576 27.8015 2.93009 26.5258 2.70785C25.1981 2.47656 23.4781 2.4304 21.0165 2.36853Z" fill="#01778F"/>
<path d="M7.86946 8.27612C8.19446 7.72643 8.90354 7.54428 9.45323 7.86927L13.9888 10.5509C15.2905 11.3205 15.9826 11.5625 16.5731 11.5625C17.1636 11.5625 17.8557 11.3205 19.1574 10.5509L23.693 7.86927C24.2427 7.54428 24.9517 7.72643 25.2767 8.27612C25.6017 8.82581 25.4196 9.53488 24.8699 9.85988L20.3343 12.5415C18.9917 13.3353 17.8332 13.875 16.5731 13.875C15.313 13.875 14.1545 13.3353 12.8119 12.5415L8.27631 9.85988C7.72661 9.53488 7.54446 8.82581 7.86946 8.27612Z" fill="#01778F"/>
<path fill-rule="evenodd" clip-rule="evenodd" d="M25.8168 14.6458C23.4754 14.6458 21.5772 16.544 21.5772 18.8854C21.5772 21.2269 23.4754 23.125 25.8168 23.125C28.1583 23.125 30.0564 21.2269 30.0564 18.8854C30.0564 16.544 28.1583 14.6458 25.8168 14.6458ZM23.8897 18.8854C23.8897 17.8211 24.7525 16.9583 25.8168 16.9583C26.8811 16.9583 27.7439 17.8211 27.7439 18.8854C27.7439 19.9497 26.8811 20.8125 25.8168 20.8125C24.7525 20.8125 23.8897 19.9497 23.8897 18.8854Z" fill="#01778F"/>
<path fill-rule="evenodd" clip-rule="evenodd" d="M30.1169 25.0539C27.4826 23.5098 24.151 23.5098 21.5168 25.0539C21.4558 25.0896 21.3737 25.135 21.276 25.189C20.7988 25.4528 19.95 25.9221 19.3737 26.4775C19.0147 26.8234 18.5861 27.3582 18.5066 28.0745C18.4188 28.865 18.7844 29.5468 19.3475 30.0749C20.2102 30.884 21.3227 31.6042 22.7958 31.6042H28.8379C30.311 31.6042 31.4235 30.884 32.2861 30.0749C32.8493 29.5468 33.2148 28.865 33.1271 28.0745C33.0475 27.3582 32.619 26.8234 32.26 26.4775C31.6836 25.9221 30.8348 25.4528 30.3576 25.189C30.2602 25.1351 30.1778 25.0896 30.1169 25.0539ZM29.3781 27.2937C29.8543 27.5604 30.324 27.8234 30.6555 28.1427C30.724 28.2088 30.767 28.2598 30.7935 28.2957C30.7731 28.3198 30.7444 28.3505 30.7042 28.3881C30.0545 28.9975 29.4826 29.2917 28.8379 29.2917H22.7958C22.1511 29.2917 21.5791 28.9975 20.9294 28.3881C20.8893 28.3505 20.8605 28.3198 20.8401 28.2957C20.8666 28.2598 20.9096 28.2088 20.9782 28.1427C21.3096 27.8234 21.779 27.5606 22.2552 27.2939C22.3994 27.2132 22.5443 27.132 22.6861 27.0489C24.5983 25.9281 27.0354 25.9281 28.9475 27.0489C29.0892 27.132 29.234 27.213 29.3781 27.2937ZM30.8347 28.2393C30.8388 28.232 30.8396 28.2284 30.8396 28.2284C30.8396 28.2284 30.8388 28.2296 30.8377 28.2318C30.8369 28.2336 30.8358 28.2361 30.8347 28.2393Z" fill="#01778F"/>
</svg>
