<svg width="34" height="34" viewBox="0 0 34 34" fill="none" xmlns="http://www.w3.org/2000/svg">
<path opacity="0.4" d="M19.6564 10.4073H13.4897C9.66333 10.4073 8.86475 11.2059 8.86475 15.0323V31.9906H24.2814V15.0323C24.2814 11.2059 23.4828 10.4073 19.6564 10.4073Z" fill="#00A7A2"/>
<path d="M13.875 16.5738C13.875 15.9352 14.3927 15.4175 15.0312 15.4175H18.1146C18.7532 15.4175 19.2708 15.9352 19.2708 16.5738C19.2708 17.2124 18.7532 17.73 18.1146 17.73H15.0312C14.3927 17.73 13.875 17.2124 13.875 16.5738Z" fill="#00A7A2"/>
<path d="M13.875 21.1988C13.875 20.5602 14.3927 20.0425 15.0312 20.0425H18.1146C18.7532 20.0425 19.2708 20.5602 19.2708 21.1988C19.2708 21.8374 18.7532 22.355 18.1146 22.355H15.0312C14.3927 22.355 13.875 21.8374 13.875 21.1988Z" fill="#00A7A2"/>
<path d="M13.875 25.8238C13.875 25.1852 14.3927 24.6675 15.0312 24.6675H18.1146C18.7532 24.6675 19.2708 25.1852 19.2708 25.8238C19.2708 26.4624 18.7532 26.98 18.1146 26.98H15.0312C14.3927 26.98 13.875 26.4624 13.875 25.8238Z" fill="#00A7A2"/>
<path fill-rule="evenodd" clip-rule="evenodd" d="M1.15625 30.8342C0.517671 30.8342 0 31.3519 0 31.9905C0 32.629 0.517671 33.1467 1.15625 33.1467H31.9896C32.6282 33.1467 33.1458 32.629 33.1458 31.9905C33.1458 31.3519 32.6282 30.8342 31.9896 30.8342H31.6042V10.6372C31.6042 9.73816 31.6042 8.97848 31.5407 8.35137C31.4733 7.68573 31.3274 7.07282 30.9766 6.4933C30.625 5.91231 30.1503 5.50154 29.5925 5.13908C29.0693 4.79914 28.4017 4.45829 27.6159 4.05708L20.8715 0.613479C20.4009 0.373184 19.9355 0.169158 19.5002 0.0695753C19.0687 -0.0291225 18.4751 -0.0678929 17.931 0.284202C17.3968 0.629916 17.1834 1.1777 17.0857 1.5963C16.9853 2.02588 16.9583 2.52822 16.9583 3.05138V9.25088H13.4896C12.508 9.25088 11.6411 9.30057 10.9046 9.46237C10.1549 9.62705 9.46849 9.92322 8.92458 10.4671C8.38068 11.011 8.08451 11.6975 7.91983 12.4471C7.75803 13.1836 7.70833 14.0505 7.70833 15.0321V15.4175H4.23958C3.89569 15.4175 3.54041 15.434 3.21252 15.506C2.87153 15.5809 2.49078 15.7308 2.17286 16.0487C1.85493 16.3667 1.70503 16.7474 1.63012 17.0884C1.55809 17.4163 1.54167 17.7716 1.54167 18.1155V30.8342H1.15625ZM3.85417 30.8342V18.1155C3.85417 17.9525 3.85935 17.8318 3.867 17.7429C3.95593 17.7352 4.0766 17.73 4.23958 17.73H7.70833V30.8342H3.85417ZM10.0208 30.8342V15.0321C10.0208 14.1005 10.071 13.4327 10.1785 12.9433C10.2831 12.467 10.4257 12.2364 10.5598 12.1023C10.6938 11.9683 10.9245 11.8256 11.4007 11.721C11.8901 11.6135 12.558 11.5634 13.4896 11.5634H19.6562C20.5878 11.5634 21.2557 11.6135 21.7451 11.721C22.2214 11.8256 22.452 11.9683 22.5861 12.1023C22.7201 12.2364 22.8627 12.467 22.9674 12.9433C23.0749 13.4327 23.125 14.1005 23.125 15.0321V30.8342H10.0208ZM25.4375 30.8342V15.0321C25.4375 14.0505 25.3878 13.1836 25.226 12.4471C25.0613 11.6975 24.7652 11.011 24.2212 10.4671C23.6773 9.92322 22.9909 9.62705 22.2413 9.46237C21.5047 9.30057 20.6379 9.25088 19.6562 9.25088H19.2708V3.05138C19.2708 2.79042 19.2793 2.58609 19.2933 2.42757C19.4314 2.48366 19.6046 2.56311 19.8199 2.67305L26.5133 6.0906C27.3639 6.52491 27.9226 6.81182 28.3325 7.07819C28.7191 7.32938 28.8894 7.51076 28.9982 7.69065C29.108 7.872 29.1923 8.11293 29.24 8.58432C29.2903 9.08123 29.2917 9.72321 29.2917 10.6933V30.8342H25.4375Z" fill="#00A7A2"/>
</svg>
