<svg width="34" height="34" viewBox="0 0 34 34" fill="none" xmlns="http://www.w3.org/2000/svg">
<path opacity="0.4" fill-rule="evenodd" clip-rule="evenodd" d="M25.8219 18.5057C25.8219 13.2338 25.8219 10.5978 24.0158 8.96005C22.2096 7.32227 19.3026 7.32227 13.4886 7.32227C7.67462 7.32227 4.76762 7.32227 2.96145 8.96005C1.15527 10.5978 1.15527 13.2338 1.15527 18.5057V20.8055C1.15527 26.0774 1.15527 28.7134 2.96145 30.3512C4.76762 31.9889 7.67462 31.9889 13.4886 31.9889C19.3026 31.9889 22.2096 31.9889 24.0158 30.3512C25.8219 28.7134 25.8219 26.0774 25.8219 20.8055V18.5057ZM15.6392 16.5679L14.554 14.3795C13.9682 13.1921 13.0063 13.1921 12.4144 14.3795L11.3292 16.5679C11.1812 16.8725 10.7866 17.1647 10.4598 17.2207L8.49282 17.5501C7.23496 17.7615 6.94516 18.6816 7.84539 19.5893L9.37455 21.1311C9.63353 21.3922 9.77534 21.8958 9.69519 22.2564L9.2574 24.165C8.91211 25.6695 9.71368 26.2601 11.0332 25.4705L12.8768 24.3701C13.216 24.1712 13.7647 24.1712 14.0977 24.3701L15.9413 25.4705C17.267 26.2601 18.0624 25.6757 17.7171 24.165L17.2793 22.2564C17.1992 21.8958 17.341 21.3922 17.6 21.1311L19.1291 19.5893C20.0355 18.6816 19.7396 17.7615 18.4817 17.5501L16.5148 17.2207C16.1818 17.1647 15.7872 16.8725 15.6392 16.5679Z" fill="#003A5D"/>
<path fill-rule="evenodd" clip-rule="evenodd" d="M13.4875 12.3333C14.5232 12.3333 15.2169 13.1093 15.5912 13.8672L15.5919 13.8686L16.6642 16.0309L16.6731 16.0394C16.6805 16.0462 16.6892 16.0533 16.6988 16.0605C16.7084 16.0676 16.7178 16.0739 16.7266 16.0792L16.7394 16.0864L18.6743 16.4105C19.5071 16.5505 20.4132 16.9968 20.7196 17.9581C21.0256 18.9178 20.5473 19.8064 19.9497 20.4055L19.9483 20.407L18.444 21.9237C18.4387 21.9346 18.4319 21.9514 18.4258 21.9729C18.419 21.9967 18.4158 22.0171 18.4147 22.0306L18.8453 23.908C19.0396 24.7581 19.0582 25.9389 18.1416 26.6126C17.2203 27.2899 16.0978 26.9096 15.3497 26.464L13.5357 25.3813L13.5242 25.3797C13.5142 25.3785 13.5028 25.3778 13.4906 25.3778C13.4784 25.3778 13.4667 25.3785 13.4562 25.3797C13.4494 25.3805 13.4437 25.3814 13.4392 25.3823L11.6274 26.4637C10.8767 26.9127 9.75691 27.287 8.83679 26.61C7.92237 25.9373 7.93566 24.7602 8.13144 23.907L8.56183 22.0306C8.56071 22.0171 8.55751 21.9967 8.55074 21.9729C8.54466 21.9514 8.53777 21.9346 8.53253 21.9237L7.02543 20.4042C6.4315 19.8053 5.95519 18.9179 6.25852 17.9602C6.56324 16.998 7.46878 16.5506 8.30278 16.4104L10.2311 16.0874L10.2421 16.0811C10.2509 16.0758 10.2605 16.0694 10.2702 16.0621C10.2799 16.0548 10.2887 16.0475 10.2963 16.0406L10.306 16.0313L11.3806 13.8643C11.7578 13.1076 12.4533 12.3333 13.4875 12.3333ZM12.3677 17.0789L13.4502 14.896C13.462 14.8723 13.4741 14.8493 13.4855 14.8288C13.4961 14.8483 13.507 14.8693 13.518 14.8917L13.5191 14.8939L14.6027 17.0789C14.7794 17.44 15.0575 17.7217 15.3184 17.9158C15.5809 18.1111 15.931 18.2955 16.3247 18.3617L18.2917 18.6912C18.3214 18.6962 18.3488 18.7016 18.3739 18.7073C18.3556 18.7279 18.335 18.7498 18.312 18.7729L18.3092 18.7757L16.78 20.3175C16.4782 20.6218 16.2971 21.0033 16.2012 21.3413C16.105 21.6801 16.06 22.0958 16.1516 22.5079L16.5911 24.4241C16.599 24.4585 16.6058 24.4912 16.6116 24.5222C16.587 24.5087 16.5607 24.4937 16.534 24.4778L14.6913 23.3779C14.3023 23.1457 13.8634 23.0653 13.4906 23.0653C13.1166 23.0653 12.6804 23.1461 12.2928 23.3734L10.4405 24.479C10.4142 24.4947 10.389 24.5092 10.3648 24.5226C10.3706 24.4915 10.3775 24.4586 10.3854 24.4241L10.8232 22.5155L10.8249 22.5079C10.9165 22.0958 10.8715 21.6801 10.7753 21.3413C10.6794 21.0033 10.4983 20.6218 10.1965 20.3175L8.66733 18.7757C8.64334 18.7515 8.62205 18.7286 8.60321 18.7071C8.62813 18.7015 8.65589 18.696 8.68542 18.6911L10.6518 18.3617L10.6559 18.361C11.0477 18.2939 11.3952 18.1083 11.6548 17.9142C11.9135 17.7209 12.1911 17.4397 12.3677 17.0789Z" fill="#003A5D"/>
<path fill-rule="evenodd" clip-rule="evenodd" d="M19.5753 3.33272e-07H19.7348C22.5742 -1.7794e-05 24.8123 -3.20928e-05 26.5615 0.213221C28.3497 0.431222 29.8025 0.888858 30.9589 1.93749C32.1315 3.00078 32.6583 4.36159 32.9064 6.03449C33.1447 7.64195 33.1447 9.68962 33.1447 12.2458V14.7333C33.1447 17.2895 33.1447 19.3372 32.9064 20.9447C32.6583 22.6176 32.1315 23.9784 30.9589 25.0417C29.8541 26.0435 28.477 26.5072 26.7913 26.7364C26.7758 26.864 26.759 26.9889 26.7409 27.1113C26.4929 28.7842 25.9661 30.1451 24.7934 31.2083C23.637 32.257 22.1842 32.7146 20.396 32.9326C18.6468 33.1459 16.4088 33.1459 13.5694 33.1458H13.4098C10.5705 33.1459 8.33239 33.1459 6.58315 32.9326C4.79497 32.7146 3.34219 32.257 2.18574 31.2083C1.01312 30.1451 0.486318 28.7842 0.238278 27.1113C-6.11761e-05 25.5039 -3.36059e-05 23.4562 8.24659e-07 20.9V18.4125C-3.36059e-05 15.8563 -6.11761e-05 13.8086 0.238278 12.2012C0.486318 10.5283 1.01312 9.16745 2.18574 8.10415C3.29221 7.10084 4.66996 6.63854 6.35321 6.40952C6.57727 4.56746 7.08975 3.08135 8.35122 1.93749C9.50767 0.888858 10.9605 0.431222 12.7486 0.213221C14.4979 -3.20698e-05 16.7359 -1.7794e-05 19.5753 3.33272e-07ZM29.4055 23.3286C28.8528 23.8298 28.1178 24.1648 26.9491 24.3718C26.9792 23.3367 26.9792 22.1824 26.9792 20.9V18.4125C26.9792 15.8563 26.9792 13.8086 26.7409 12.2012C26.4929 10.5283 25.9661 9.16745 24.7934 8.10415C23.637 7.05552 22.1842 6.59789 20.396 6.37989C18.6468 6.16663 16.4087 6.16665 13.5693 6.16667H13.4099C11.6139 6.16666 10.0584 6.16665 8.71515 6.22061C8.92421 4.93935 9.29723 4.20132 9.9046 3.65058C10.5543 3.06142 11.4581 2.70017 13.0285 2.50873C14.6214 2.31453 16.7184 2.3125 19.6551 2.3125C22.5918 2.3125 24.6887 2.31453 26.2817 2.50873C27.852 2.70017 28.7558 3.06142 29.4055 3.65058C30.0391 4.22507 30.4154 5.00113 30.6189 6.37365C30.8292 7.79197 30.8322 9.66781 30.8322 12.3397V14.6394C30.8322 17.3114 30.8292 19.1872 30.6189 20.6055C30.4154 21.978 30.0391 22.7541 29.4055 23.3286ZM6.863 8.67539C5.29265 8.86684 4.38884 9.22809 3.73912 9.81724C3.10556 10.3917 2.72927 11.1678 2.52577 12.5403C2.31548 13.9586 2.3125 15.8345 2.3125 18.5064V20.8061C2.3125 23.478 2.31548 25.3539 2.52577 26.7722C2.72927 28.1447 3.10556 28.9208 3.73912 29.4953C4.38884 30.0844 5.29265 30.4457 6.863 30.6371C8.45595 30.8313 10.5529 30.8333 13.4896 30.8333C16.4263 30.8333 18.5232 30.8313 20.1162 30.6371C21.6865 30.4457 22.5903 30.0844 23.2401 29.4953C23.8736 28.9208 24.2499 28.1447 24.4534 26.7722C24.6637 25.3539 24.6667 23.478 24.6667 20.8061V18.5064C24.6667 15.8345 24.6637 13.9586 24.4534 12.5403C24.2499 11.1678 23.8736 10.3917 23.2401 9.81724C22.5903 9.22809 21.6865 8.86684 20.1162 8.67539C18.5232 8.48119 16.4263 8.47917 13.4896 8.47917C10.5529 8.47917 8.45595 8.48119 6.863 8.67539Z" fill="#003A5D"/>
</svg>
