<svg width="34" height="34" viewBox="0 0 34 34" fill="none" xmlns="http://www.w3.org/2000/svg">
<g opacity="0.4">
<path d="M1.3012 9.73648C1.7267 11.8486 2.43276 13.9298 3.89426 16.4736L7.83477 11.9564C7.86047 11.9266 7.88594 11.8972 7.91118 11.8679C9.29868 10.2621 9.99499 9.45624 10.0995 8.45693C10.2043 7.43943 9.67093 6.48356 8.6041 4.5719L7.25822 2.15145C6.6616 1.0877 5.50532 0.810139 4.49707 1.62722C2.11212 3.56972 0.672203 6.62231 1.3012 9.73648Z" fill="#814A98"/>
<path d="M23.3979 31.8291C21.2889 31.4129 19.2076 30.7037 16.6592 29.2391L21.1856 25.3079C22.8382 23.8587 23.6646 23.1495 24.679 23.0416C25.695 22.9337 26.6508 23.4579 28.5655 24.5371L30.9813 25.8783C32.0497 26.4796 32.3318 27.6358 31.5101 28.6378C29.5645 31.0274 26.5167 32.4612 23.3979 31.8291Z" fill="#814A98"/>
</g>
<path fill-rule="evenodd" clip-rule="evenodd" d="M24.869 33.1325C24.3016 33.1325 23.7327 33.0769 23.1685 32.9628C20.6941 32.4741 18.508 31.6355 16.083 30.2419C10.7519 27.1863 5.94495 22.3794 2.89245 17.0529C1.51112 14.6495 0.670924 12.4649 0.168341 9.96744C-0.505367 6.62974 0.872898 3.09151 3.76815 0.734306C4.51431 0.129973 5.38844 -0.112099 6.23173 0.0482343C7.0781 0.210109 7.80114 0.757401 8.26826 1.5899L9.61572 4.01351L9.6189 4.01921C10.7623 6.0691 11.3931 7.19989 11.2514 8.57994C11.1098 9.9401 10.2864 10.8933 8.79504 12.6196L8.78624 12.6298L5.31599 16.609C8.03857 21.0752 12.0623 25.0988 16.5316 27.8229L20.4289 24.4374L20.4301 24.4364C22.1314 22.9447 23.1595 22.0432 24.559 21.8937C25.965 21.7488 27.1583 22.4179 29.1362 23.5309L31.5459 24.8691C32.3908 25.3439 32.9396 26.0731 33.0999 26.9241C33.2587 27.7659 33.012 28.6353 32.4077 29.3723C30.4513 31.7757 27.6733 33.134 24.872 33.134L24.869 33.1325ZM18.6854 29.0132C20.3288 29.8241 21.8997 30.356 23.6233 30.6967C26.1254 31.2039 28.8033 30.1355 30.6148 27.9093C30.7335 27.7644 30.8629 27.5547 30.8244 27.3512C30.7936 27.1863 30.644 27.0167 30.4143 26.8872L28.0047 25.549C26.2919 24.5839 25.4425 24.123 24.8011 24.1923C24.1583 24.2602 23.4629 24.8506 21.9475 26.178L18.6838 29.0132H18.6854ZM5.71992 2.31C5.52413 2.31 5.33143 2.44091 5.22505 2.52725C3.00043 4.3387 1.9305 7.01504 2.43462 9.50946C2.78458 11.2454 3.31953 12.8195 4.12428 14.4536L7.03493 11.1159C8.34997 9.59424 8.88492 8.95294 8.94967 8.33936C9.01442 7.7119 8.60587 6.95039 7.59454 5.13739L6.24716 2.71544C6.12228 2.4919 5.96038 2.35005 5.79542 2.31768C5.77076 2.31305 5.74459 2.31 5.71992 2.31Z" fill="#814A98"/>
<path d="M25.8207 17.7235C25.1824 17.7235 24.6644 17.2055 24.6644 16.5673V13.8694H23.5745C22.9439 13.8694 22.3472 13.8693 21.8555 13.376C21.3606 12.8873 21.3606 12.2999 21.3606 11.6802V8.85894C21.3606 8.22069 21.8786 7.70269 22.5168 7.70269C23.1551 7.70269 23.6731 8.22069 23.6731 8.85894V11.5569H24.6644V8.85894C24.6644 8.22069 25.1824 7.70269 25.8207 7.70269C26.4589 7.70269 26.9769 8.22069 26.9769 8.85894V16.5673C26.9769 17.2055 26.4589 17.7235 25.8207 17.7235Z" fill="#814A98"/>
<path d="M19.2115 17.7235H17.8918C17.1102 17.7235 16.492 17.7235 15.9648 17.2163C15.4144 16.6922 15.4144 16.0417 15.4144 15.2878V13.4839C15.4144 13.0091 15.4144 12.4725 15.8553 12.0285C16.3039 11.5599 16.859 11.5569 17.3507 11.5569C17.7377 11.5491 17.9196 11.5214 18.0029 11.4998C18.0568 11.2701 18.0568 10.6719 18.0568 10.1385V10.0152H16.5707C15.9324 10.0152 15.4144 9.49719 15.4144 8.85894C15.4144 8.22069 15.9324 7.70269 16.5707 7.70269H17.8918C18.6719 7.70269 19.2886 7.70277 19.8174 8.20689C20.3693 8.73722 20.3693 9.38612 20.3693 10.14C20.3693 11.5244 20.3693 12.4387 19.6416 13.1633C19.6339 13.171 19.6262 13.1786 19.6185 13.1848C19.0759 13.6966 18.3806 13.8216 17.7254 13.857V15.411H19.2115C19.8498 15.411 20.3678 15.929 20.3678 16.5673C20.3678 17.2055 19.8498 17.7235 19.2115 17.7235Z" fill="#814A98"/>
<path d="M27.5747 20.4249C27.8029 20.6777 28.1189 20.8071 28.435 20.8071V20.8103C28.7109 20.8103 28.9884 20.7115 29.2089 20.5126C29.36 20.377 29.5357 20.2166 29.7145 20.0316C31.9268 17.8162 33.1447 14.8748 33.1447 11.7375C33.1447 8.60019 31.9222 5.65092 29.7053 3.43401C25.1266 -1.14166 17.6772 -1.14166 13.0985 3.43401L13.0815 3.45102C12.9289 3.60981 12.7809 3.77168 12.6252 3.94589C12.2012 4.42381 12.2443 5.15453 12.7207 5.57849C13.1986 6.00245 13.9294 5.95926 14.3534 5.48289C14.486 5.33335 14.6124 5.19625 14.7419 5.06059C18.4203 1.3945 24.3974 1.39602 28.0711 5.06827C29.8518 6.84889 30.8322 9.21689 30.8322 11.736C30.8322 14.2551 29.8518 16.6231 28.0711 18.4022L28.0542 18.419C27.9386 18.5393 27.8183 18.6503 27.661 18.7921C27.1862 19.2192 27.1477 19.95 27.5747 20.4249Z" fill="#814A98"/>
</svg>
