<svg xmlns="http://www.w3.org/2000/svg" width="50" height="31" viewBox="0 0 50 31" fill="none">
  <path d="M23.9801 30.6074H0.0180664V30.9977H23.9792V30.6074H23.9801Z" fill="#8C9091"/>
  <path d="M49.9256 30.6074H32.7222V30.9977H49.9256V30.6074Z" fill="#8C9091"/>
  <path d="M46.5613 5.02292V1.00545V0H42.8017V1.18023L42.3647 1.68296V9.01529H40.6142V4.40338L39.6304 3.28891H38.8006V2.2402H36.3285V12.8502H33.8945V5.76619H29.396V9.49639H24.5798V4.79102L23.6834 3.65492H20.7051V6.43851H16.4463V1.46405H15.3327V0H11.9892V9.00318H9.44706V8.01936H7.94322V4.63874H6.24555L5.67793 3.67655H3.68866V4.57298H3.23007V9.49033H0V10.2544H0.742404H3.99411V5.33788H4.45357V4.44145H5.23923L5.80772 5.40277H7.17659V8.78426H8.67957V9.78971H12.7515V0.764903H14.5652V2.22895H15.6796V7.20254H20.7034V9.80875H21.4675V4.42069H23.3096L23.8123 5.05407V9.49725V10.263H24.5781H29.3942H30.16V9.49725V6.53196H33.1504V13.6168H37.1142V3.00423H38.0556V4.05295H39.3016L39.8692 4.68719V9.77933H43.1504V1.9659L43.5873 1.46318V0.764903H45.7946V1.74785V5.76532H49.1597H49.9255V5.02292H46.5613Z" fill="#6ABF4B"/>
  <path d="M43.7527 16.998C42.3086 16.998 41.2382 17.3805 40.5417 18.1454C39.8443 18.9094 39.4964 20.0153 39.4964 21.4585V24.224H31.6821V16.998H29.506V26.1968C29.506 27.0404 29.3113 27.7075 28.9219 28.2016C28.5325 28.6948 27.9225 28.9414 27.0945 28.9414H26.4299V30.9999H27.2667C28.7463 30.9999 29.8478 30.5872 30.5746 29.7617C31.2331 29.0124 31.5956 27.9723 31.6674 26.6502L30.6032 26.24H49.9265V16.9989H43.7545H43.7527V16.998ZM47.7278 24.224H41.6726V21.6619C41.6726 20.7689 41.8742 20.1052 42.2783 19.6726C42.6824 19.24 43.327 19.0237 44.2139 19.0237H47.7278V23.8104L48.7999 24.2231H47.7278V24.224Z" fill="#007473"/>
  <path d="M47.514 12.7441H45.3777V14.8805H47.514V12.7441Z" fill="#007473"/>
  <path d="M22.6563 17.0006H10.6775V24.2153H4.71747C3.83057 24.2153 3.18594 23.999 2.78186 23.5663C2.37777 23.1337 2.17616 22.4718 2.17616 21.5771V19.4269L1.10409 19.0141H4.7642V16.998H0V21.7796C0 23.2228 0.347839 24.3269 1.04525 25.0927C1.7418 25.8567 2.81214 26.24 4.25628 26.24H26.859V21.3296C26.859 18.4422 25.4581 16.998 22.6563 16.998V17.0006ZM24.6828 24.2274H14.361V24.217H12.8536V19.0288H22.1528C23.0319 19.0288 23.673 19.2287 24.0771 19.6293C24.4812 20.03 24.6828 20.6409 24.6828 21.4629V23.8207L25.7428 24.2283H24.6828V24.2274Z" fill="#007473"/>
</svg>