<svg width="22" height="29" viewBox="0 0 22 29" fill="none" xmlns="http://www.w3.org/2000/svg">
<path d="M14.4978 28.8695C13.6317 28.8695 12.7743 28.5836 12.0807 28.0643L0 18.9881L0.902188 18.4814C1.22842 18.2984 1.59796 18.2012 1.97038 18.2012C2.44601 18.2012 2.89783 18.3521 3.27675 18.637L16.8998 28.8695H14.4964H14.4978Z" fill="#003A5D"/>
<path d="M4.6826 28.8695L18.3042 18.637C18.6838 18.3521 19.1357 18.2012 19.6106 18.2012C19.9844 18.2012 20.3525 18.2984 20.6788 18.4814L21.5824 18.9881L9.501 28.0643C8.80668 28.5836 7.94924 28.8695 7.08458 28.8695H4.68115H4.6826Z" fill="#003A5D"/>
<path d="M9.63013 21.6113L10.7914 22.428L11.952 21.6113V17.1172C11.5247 17.0852 11.1451 17.0703 10.7914 17.0703C10.4378 17.0703 10.0581 17.0852 9.63013 17.1172V21.6113Z" fill="#003A5D"/>
<path d="M14.832 15.288C11.2745 10.8763 5.20166 9.50833 2.74121 9.50833V6.51953C11.2456 6.55384 16.9012 12.9981 17.4902 13.6902L14.832 15.288Z" fill="#824B97"/>
<path d="M10.8535 15.4816C12.2089 15.4816 13.5514 15.6635 14.8462 16.0238C14.852 16.0192 14.8577 16.0146 14.8635 16.0112C15.8097 15.3284 16.6924 14.5483 17.4907 13.6915C16.385 13.2512 15.2352 12.9218 14.0696 12.7101C13.0194 12.5191 11.9375 12.4219 10.8542 12.4219C9.77156 12.4219 8.71347 12.5169 7.66982 12.7033C6.50347 12.9126 5.35156 13.2408 4.24512 13.6801C5.03688 14.5311 5.91524 15.3078 6.85713 15.9918C7.00292 15.9666 7.14872 15.9392 7.29235 15.9094C7.49732 15.8591 7.70808 15.8122 7.9145 15.771C8.87442 15.5777 9.86394 15.4805 10.8542 15.4805" fill="#003A5D"/>
<path d="M6.75708 0.726562C10.3146 5.13828 16.3874 6.50629 18.8478 6.50629V9.4951C10.3435 9.46075 4.68783 3.01649 4.09888 2.32448L6.75708 0.726562Z" fill="#03A8A0"/>
<path d="M4.09814 2.32425C5.19881 2.76233 6.34856 3.09289 7.51708 3.30564C8.573 3.49666 9.65635 3.59388 10.7383 3.59388C11.8202 3.59388 12.9049 3.49666 13.9601 3.30564C15.1279 3.09289 16.2777 2.76347 17.3784 2.32425C16.5844 1.46867 15.7024 0.686292 14.7555 0C14.7064 0.00800674 14.6574 0.0160135 14.609 0.0263079C14.2106 0.132683 13.797 0.226477 13.3849 0.300825C12.5145 0.456384 11.6246 0.535308 10.7383 0.535308C9.85194 0.535308 8.96202 0.456384 8.09231 0.300825C7.68091 0.226477 7.26807 0.133827 6.86389 0.025164C6.81987 0.0171573 6.77007 0.00800674 6.72315 0C5.77766 0.685148 4.89423 1.46638 4.09959 2.32425" fill="#003A5D"/>
<path d="M18.8535 9.49C18.9358 9.00159 18.9769 8.50632 18.9784 8.01676V8.00189C18.9784 7.50547 18.9343 7.00794 18.8521 6.51953L2.72889 6.52525C2.64661 7.01366 2.60547 7.50894 2.60547 7.9985V8.01221C2.60547 8.50863 2.64805 9.00621 2.73106 9.49462L18.8535 9.48891V9.49Z" fill="#003A5D"/>
</svg>
